{"glyphs":{"0":{"ha":644,"x_min":63,"x_max":602,"o":"m 220 369 q 256 137 220 230 q 292 71 270 94 q 339 48 313 48 q 385 76 365 48 q 419 152 406 104 q 443 393 443 241 q 415 629 443 544 q 335 713 387 713 q 228 504 252 713 q 220 369 220 441 m 63 374 q 85 530 63 459 q 144 652 107 600 q 335 763 224 763 q 522 663 448 763 q 602 380 602 557 q 522 107 602 220 q 335 -4 446 -4 q 144 96 222 -4 q 63 374 63 202 z "},"1":{"ha":444,"x_min":30,"x_max":413,"o":"m 241 4 q 74 -6 163 4 q 69 17 70 0 q 74 41 69 33 q 131 49 113 41 q 152 63 150 57 q 161 178 161 85 l 161 589 q 156 642 161 630 q 138 654 150 654 q 97 645 126 654 q 48 626 69 637 q 31 643 31 633 q 31 657 31 652 q 33 663 30 663 l 315 785 l 317 785 q 326 776 322 785 q 331 763 330 767 q 320 648 320 730 l 320 178 q 326 71 320 85 q 342 53 331 57 q 365 44 352 48 q 407 41 387 41 q 412 17 413 33 q 407 -6 411 0 q 241 4 319 4 z "},"2":{"ha":606,"x_min":30,"x_max":559,"o":"m 559 235 q 516 94 544 178 q 485 0 487 9 l 41 0 q 30 22 30 7 q 97 95 65 61 q 159 165 130 130 q 276 320 226 241 q 354 548 354 443 q 313 648 354 606 q 234 689 276 689 q 168 677 193 689 q 125 649 143 665 q 97 619 107 633 q 83 602 87 606 q 69 609 80 602 q 57 631 57 617 q 137 726 80 681 q 302 785 211 785 q 452 731 391 785 q 515 580 515 676 q 422 367 515 476 q 193 124 291 217 l 402 124 q 500 196 470 124 q 515 230 509 217 q 532 243 520 243 q 559 235 544 243 z "},"3":{"ha":589,"x_min":33,"x_max":541,"o":"m 167 422 q 346 559 346 461 q 317 656 346 617 q 231 694 287 694 q 98 631 161 694 q 85 665 85 635 q 176 747 119 709 q 307 785 233 785 q 408 759 367 785 q 470 704 450 733 q 491 631 491 674 q 474 559 491 589 q 435 507 457 530 q 357 456 396 469 q 519 359 463 443 q 541 264 541 324 q 512 153 541 204 q 437 67 483 102 q 213 -7 341 -7 q 111 7 154 -7 q 48 37 69 22 q 33 87 33 61 q 50 134 33 113 q 95 156 67 156 q 143 135 124 156 q 178 96 161 115 q 263 44 220 44 q 378 217 378 44 q 341 341 378 289 q 244 394 304 394 q 178 383 226 394 q 167 411 167 394 l 167 422 z "},"4":{"ha":602,"x_min":7,"x_max":557,"o":"m 485 6 q 394 -6 457 -6 q 331 9 331 -6 l 331 213 l 20 213 q 7 243 7 219 l 428 770 l 441 781 q 451 787 444 787 q 471 775 457 787 q 485 754 485 763 l 485 296 l 541 296 q 552 281 546 296 q 557 244 557 265 q 546 213 557 224 l 485 213 l 485 6 m 331 570 q 282 507 315 550 q 215 421 250 465 q 150 342 180 378 q 113 296 120 306 l 331 296 l 331 570 z "},"5":{"ha":591,"x_min":37,"x_max":537,"o":"m 322 352 q 267 387 296 374 q 188 400 237 400 q 98 383 139 400 q 87 407 87 383 l 93 431 q 104 492 96 456 q 119 570 111 528 q 133 654 126 613 q 147 728 141 694 q 156 776 154 761 l 372 776 q 485 789 439 776 q 495 784 489 787 q 502 773 502 781 q 496 747 502 765 q 481 711 491 730 q 456 656 461 665 q 265 644 328 644 l 191 644 l 163 502 q 280 517 222 517 q 381 498 337 517 q 459 448 424 480 q 537 281 537 376 q 435 74 537 157 q 217 -7 337 -7 q 114 7 157 -7 q 52 37 70 22 q 37 84 37 56 q 53 134 37 113 q 97 156 69 156 q 144 135 126 156 q 178 96 163 115 q 265 44 222 44 q 380 217 380 44 q 322 352 380 296 z "},"6":{"ha":611,"x_min":56,"x_max":563,"o":"m 224 400 q 215 296 215 361 q 219 192 215 231 q 237 119 224 152 q 319 44 263 44 q 378 92 354 44 q 402 200 402 139 q 396 297 402 261 q 378 361 391 333 q 285 422 346 422 q 224 400 246 422 m 519 757 q 239 465 304 669 q 336 494 289 494 q 424 481 383 494 q 496 441 465 469 q 563 254 563 376 q 481 69 563 146 q 304 -7 404 -7 q 128 85 202 -7 q 56 286 56 174 q 99 482 56 398 q 209 637 143 567 q 361 744 276 707 q 509 789 446 780 q 519 757 522 778 z "},"7":{"ha":565,"x_min":28,"x_max":552,"o":"m 433 778 l 544 783 q 552 769 552 783 q 543 739 552 756 q 519 691 533 722 l 187 -9 q 176 -13 183 -13 l 167 -13 q 127 -3 141 -13 q 113 17 113 7 q 295 344 181 120 q 452 656 409 567 l 169 656 q 85 587 113 656 q 74 558 78 569 q 69 547 70 548 q 53 545 67 546 q 28 556 39 544 q 42 610 33 578 q 58 675 50 643 q 72 735 67 707 q 81 778 78 763 l 433 778 z "},"8":{"ha":624,"x_min":65,"x_max":578,"o":"m 265 337 q 224 191 224 285 q 280 57 224 96 q 334 44 298 44 q 394 73 370 44 q 417 141 417 102 q 401 210 417 180 q 363 264 385 241 q 318 305 341 287 q 281 333 294 322 l 270 339 q 265 337 265 339 m 361 461 l 369 465 q 394 594 394 506 q 350 711 394 672 q 308 724 335 724 q 261 695 281 724 q 241 631 241 667 q 253 568 241 594 q 281 520 265 541 q 346 469 309 487 q 361 461 354 461 m 319 774 q 401 763 359 774 q 474 730 443 752 q 546 598 546 678 q 505 494 546 539 q 411 430 463 450 q 416 419 404 426 q 456 393 428 413 q 511 344 483 372 q 578 204 578 278 q 496 50 578 111 q 315 -7 420 -7 q 87 94 148 -7 q 65 179 65 131 q 79 256 65 226 q 115 307 93 285 q 220 370 152 348 q 213 381 224 372 q 179 409 202 389 q 133 456 156 430 q 83 594 83 520 q 157 724 83 670 q 319 774 226 774 z "},"9":{"ha":607,"x_min":52,"x_max":559,"o":"m 391 381 q 398 487 398 424 q 394 590 398 550 q 378 663 389 630 q 296 737 348 737 q 235 690 259 737 q 211 581 211 643 q 218 484 211 520 q 237 419 224 448 q 330 357 269 357 q 391 381 363 357 m 376 317 q 275 285 320 285 q 189 298 230 285 q 119 341 148 311 q 52 528 52 402 q 133 711 52 631 q 309 789 209 789 q 485 696 411 789 q 559 495 559 607 q 515 298 559 383 q 404 143 470 213 q 252 37 337 72 q 104 -7 167 2 q 94 24 91 4 q 278 147 211 72 q 376 317 344 222 z "},"\r":{"ha":0,"x_min":0,"x_max":0,"o":""},"\u0000":{"ha":0,"x_min":0,"x_max":0,"o":""}," ":{"ha":278,"x_min":0,"x_max":0,"o":""},"!":{"ha":311,"x_min":70,"x_max":254,"o":"m 254 78 q 227 14 254 41 q 163 -13 200 -13 q 98 14 126 -13 q 70 80 70 41 q 98 144 70 119 q 163 170 126 170 q 227 143 200 170 q 254 78 254 115 m 87 710 q 87 725 87 710 q 111 763 87 741 q 166 785 135 785 q 219 763 196 785 q 243 702 243 741 q 230 559 243 672 q 207 378 230 559 q 193 270 198 311 q 167 239 185 244 q 154 244 163 239 q 139 259 144 250 q 105 514 122 348 q 87 710 87 680 z "},"\"":{"ha":409,"x_min":43,"x_max":369,"o":"m 131 854 q 157 841 146 854 q 169 775 169 828 q 153 667 169 722 q 131 548 137 611 q 106 530 128 530 q 92 534 98 530 q 85 546 85 539 q 59 684 76 630 q 43 761 43 739 q 48 797 43 783 q 63 822 54 811 q 109 854 89 854 l 131 854 m 333 854 q 358 841 348 854 q 369 775 369 828 q 351 667 369 722 q 328 548 333 611 q 318 534 326 539 q 304 530 309 530 q 285 546 285 530 q 259 684 276 630 q 243 761 243 739 q 248 797 243 783 q 263 822 254 811 q 309 854 289 854 l 333 854 z "},"#":{"ha":613,"x_min":56,"x_max":526,"o":"m 94 415 q 91 441 87 415 q 115 496 100 491 l 513 496 q 520 470 526 496 q 498 415 509 419 l 94 415 m 61 181 q 56 194 56 181 q 59 220 56 206 q 81 263 72 259 l 480 263 q 487 251 487 263 q 485 226 487 239 q 463 181 476 185 l 61 181 m 365 44 q 354 34 365 41 q 330 28 343 28 q 315 33 315 28 l 411 633 q 421 645 415 643 q 441 648 428 648 l 456 648 q 461 644 457 648 l 365 44 m 167 44 q 156 34 167 41 q 133 28 146 28 q 117 33 117 28 l 213 633 q 239 648 219 648 l 259 648 q 265 644 261 648 l 167 44 z "},"$":{"ha":502,"x_min":67,"x_max":572,"o":"m 175 106 q 188 92 175 106 q 232 57 200 78 q 293 37 265 37 q 341 42 320 37 q 378 59 361 46 q 419 152 419 91 q 298 311 419 231 q 241 348 269 330 q 181 387 241 348 q 74 572 74 459 q 154 722 74 657 q 324 783 228 783 q 421 772 376 783 q 520 750 467 761 q 527 656 524 704 q 533 556 530 609 q 522 550 528 550 l 502 550 q 485 557 487 550 q 446 659 476 619 q 330 735 393 735 q 263 713 296 735 q 230 633 230 691 q 400 441 230 548 q 460 405 430 422 q 515 363 491 387 q 572 204 572 306 q 493 48 572 111 q 317 -13 417 -13 q 94 19 220 -13 q 74 132 81 59 q 67 217 67 206 q 83 228 70 222 q 105 233 96 233 q 116 217 113 233 q 134 168 119 200 q 175 106 150 135 m 352 817 q 400 807 400 817 l 261 -48 q 213 -37 213 -48 l 352 817 z "},"%":{"ha":707,"x_min":46,"x_max":793,"o":"m 130 -6 q 110 -18 126 -11 q 81 -24 94 -24 q 61 -9 61 -24 l 693 772 q 735 789 709 789 q 761 776 761 789 l 130 -6 m 591 335 q 528 244 535 335 q 526 197 526 222 q 531 144 526 172 q 544 93 535 115 q 609 37 569 37 q 674 126 667 37 q 676 173 676 148 q 671 227 676 198 q 656 280 667 256 q 591 335 630 335 m 603 372 q 644 372 603 372 q 739 319 685 372 q 793 189 793 267 q 737 56 793 111 q 598 0 681 0 q 462 53 515 0 q 409 183 409 106 q 465 317 409 261 q 603 372 520 372 m 228 746 q 165 657 172 746 q 163 609 163 633 q 168 556 163 585 q 181 504 172 528 q 246 450 206 450 q 311 537 304 450 q 313 586 313 561 q 308 640 313 611 q 293 693 304 669 q 228 746 267 746 m 240 783 q 281 783 240 783 q 376 731 322 783 q 430 602 430 680 q 374 467 430 526 q 236 411 320 411 q 99 464 152 411 q 46 594 46 517 q 102 728 46 672 q 240 783 157 783 z "},"&":{"ha":817,"x_min":59,"x_max":824,"o":"m 265 383 q 217 269 217 339 q 256 148 217 204 q 380 89 300 89 q 457 117 426 89 l 265 383 m 369 741 q 350 741 369 741 q 317 706 331 741 q 302 629 302 670 q 324 553 302 587 q 361 498 346 519 q 421 548 402 519 q 441 610 441 578 q 438 662 441 643 q 426 700 435 681 q 369 741 407 741 m 491 74 q 280 -6 407 -6 q 131 44 196 -6 q 59 191 59 102 q 174 396 59 322 q 230 433 204 417 q 184 499 209 461 q 159 588 159 537 q 176 674 159 639 q 222 735 193 709 q 375 789 283 789 q 517 750 467 789 q 567 646 567 711 q 457 478 567 539 q 394 448 426 461 l 565 220 q 639 319 639 307 q 631 335 639 331 q 612 341 622 339 q 592 342 602 343 q 579 344 581 341 q 576 364 576 348 q 580 381 576 380 l 663 380 q 820 383 735 380 q 823 365 824 381 q 819 343 822 348 l 804 343 q 733 326 756 343 q 685 274 720 313 q 598 178 624 204 q 613 161 602 174 q 637 133 624 148 q 688 98 674 98 q 714 106 702 98 q 736 124 726 113 q 754 146 746 135 q 767 163 761 157 q 785 156 776 163 q 798 141 794 150 q 780 112 796 135 q 737 63 763 89 q 625 -4 674 -4 q 546 19 576 -4 q 491 74 517 43 z "},"'":{"ha":274,"x_min":41,"x_max":176,"o":"m 41 766 q 41 787 41 766 q 66 838 41 807 q 127 869 91 869 q 176 843 163 869 q 148 574 165 676 q 117 552 139 561 q 102 559 107 552 q 61 669 81 613 q 41 766 41 724 z "},"(":{"ha":363,"x_min":37,"x_max":343,"o":"m 150 -6 q 127 28 150 -6 q 70 156 104 61 q 37 373 37 250 q 70 590 37 496 q 150 750 104 683 q 246 857 196 817 q 330 913 296 898 q 338 896 333 909 q 341 880 343 883 q 294 823 322 865 q 241 717 267 781 q 174 372 174 557 q 241 30 174 189 q 341 -135 289 -89 q 338 -151 343 -139 q 330 -167 333 -163 q 246 -112 296 -152 q 150 -6 196 -72 z "},")":{"ha":363,"x_min":7,"x_max":311,"o":"m 200 750 q 223 717 200 750 q 279 590 246 683 q 311 373 311 496 q 279 156 311 250 q 200 -6 246 61 q 104 -112 154 -72 q 20 -167 54 -152 q 11 -151 15 -163 q 9 -135 7 -139 q 156 181 107 -37 q 176 372 176 267 q 111 717 176 557 q 55 823 83 781 q 9 880 26 865 q 11 896 7 883 q 20 913 15 909 q 104 857 54 898 q 200 750 154 817 z "},"*":{"ha":546,"x_min":24,"x_max":493,"o":"m 146 724 q 141 774 131 750 q 206 811 157 822 q 241 784 228 807 q 256 744 254 761 q 259 712 259 728 q 259 681 259 696 q 263 656 259 665 l 270 643 q 280 635 274 635 q 294 644 285 635 q 307 667 302 654 q 319 693 313 680 q 355 758 337 739 q 397 778 372 778 q 437 764 422 778 q 454 726 452 750 q 438 683 456 702 q 405 657 420 665 q 374 645 389 650 q 344 637 359 641 q 313 617 319 628 q 307 600 307 606 q 319 593 307 594 q 367 583 339 583 q 483 533 465 583 q 483 491 493 509 q 451 464 474 472 q 405 466 428 456 q 369 488 381 476 q 348 513 357 500 q 298 563 320 552 q 289 563 293 567 q 283 550 285 563 q 285 522 281 537 q 293 493 289 507 q 278 381 315 411 q 202 389 239 350 q 188 431 185 406 q 199 472 191 457 q 219 500 207 487 q 248 556 243 531 l 248 563 q 246 574 248 570 q 231 573 244 576 q 206 563 219 570 q 180 548 193 556 q 67 526 104 498 q 52 600 24 557 q 90 627 65 620 q 131 630 115 633 q 163 620 148 626 q 226 609 204 606 q 233 609 230 607 q 243 617 239 609 q 231 640 243 620 q 194 673 219 659 q 146 724 170 687 z "},"+":{"ha":556,"x_min":39,"x_max":628,"o":"m 370 24 q 306 9 352 9 q 293 20 293 9 l 293 261 l 46 261 q 39 292 39 261 q 52 339 39 322 l 293 339 l 293 580 q 341 593 311 593 q 370 581 370 593 l 370 339 l 617 339 q 628 312 628 339 q 609 261 628 285 l 370 261 l 370 24 z "},",":{"ha":306,"x_min":22,"x_max":215,"o":"m 22 -163 q 109 -33 109 -98 q 100 -9 109 -19 q 80 11 91 0 q 50 83 50 37 q 98 159 50 130 q 137 170 117 170 q 198 150 172 170 q 215 72 215 117 q 201 -13 215 28 q 163 -89 187 -54 q 48 -193 119 -156 q 30 -179 37 -189 q 22 -163 22 -169 z "},"-":{"ha":456,"x_min":67,"x_max":389,"o":"m 76 243 q 67 259 67 243 q 85 326 67 276 q 212 333 156 330 q 317 338 269 337 q 377 340 365 339 q 389 328 389 341 q 370 257 389 294 q 217 249 317 254 q 76 243 117 244 z "},".":{"ha":298,"x_min":52,"x_max":235,"o":"m 235 78 q 208 14 235 41 q 144 -13 181 -13 q 79 14 106 -13 q 52 80 52 41 q 79 144 52 119 q 144 170 106 170 q 208 143 181 170 q 235 78 235 115 z "},"/":{"ha":507,"x_min":35,"x_max":480,"o":"m 119 -17 q 103 -33 117 -24 q 67 -43 89 -43 q 35 -33 35 -43 l 396 904 q 417 924 404 919 q 450 930 430 930 q 473 926 470 930 q 480 920 476 922 l 119 -17 z "},":":{"ha":298,"x_min":67,"x_max":250,"o":"m 250 433 q 224 369 250 396 q 160 343 198 343 q 94 370 122 343 q 67 436 67 398 q 94 500 67 474 q 160 526 122 526 q 224 498 198 526 q 250 433 250 470 m 250 78 q 224 14 250 41 q 160 -13 198 -13 q 94 14 122 -13 q 67 80 67 41 q 94 144 67 119 q 160 170 122 170 q 224 143 198 170 q 250 78 250 115 z "},";":{"ha":306,"x_min":35,"x_max":239,"o":"m 57 439 q 85 502 57 476 q 150 528 113 528 q 212 502 187 528 q 237 439 237 476 q 212 372 237 402 q 149 343 187 343 q 84 372 111 343 q 57 439 57 402 m 74 -126 q 81 -118 74 -126 q 101 -83 89 -109 q 113 -32 113 -57 q 106 2 113 -7 q 93 20 100 11 q 74 66 74 48 q 79 97 74 83 q 94 126 83 111 q 172 163 122 163 q 220 154 209 163 q 239 73 239 104 q 232 9 239 43 q 219 -42 226 -24 q 191 -88 211 -59 q 146 -141 170 -117 q 65 -206 94 -193 l 63 -206 q 44 -189 54 -206 q 35 -167 35 -172 q 47 -152 35 -161 q 74 -126 59 -143 z "},"<":{"ha":609,"x_min":37,"x_max":543,"o":"m 541 61 l 543 56 q 533 7 543 33 q 522 -19 524 -19 l 520 -19 q 517 -17 519 -19 l 59 217 q 37 265 37 228 q 59 294 37 285 l 515 522 q 520 526 519 526 q 541 456 530 526 q 537 444 541 448 l 150 256 l 539 63 l 541 61 z "},"=":{"ha":556,"x_min":80,"x_max":611,"o":"m 85 163 q 80 173 80 163 q 83 196 80 183 q 106 235 93 231 l 598 235 q 606 213 611 235 q 581 163 596 172 l 85 163 m 85 339 q 80 349 80 339 q 83 372 80 359 q 106 411 93 407 l 598 411 q 606 389 611 411 q 581 339 596 348 l 85 339 z "},">":{"ha":609,"x_min":63,"x_max":570,"o":"m 89 -17 l 83 -19 q 77 -8 80 -19 q 70 15 74 2 q 63 56 63 41 q 67 63 63 63 l 457 256 l 69 444 q 65 456 63 450 q 83 526 80 526 q 91 522 87 526 l 548 294 q 570 269 570 285 q 548 217 570 228 l 89 -17 z "},"?":{"ha":537,"x_min":67,"x_max":446,"o":"m 176 -13 q 158 -13 176 -13 q 111 13 141 -13 q 81 79 81 39 q 108 144 81 119 q 171 170 135 170 q 234 144 207 170 q 261 81 261 119 q 236 15 261 43 q 176 -13 211 -13 m 185 261 q 169 239 178 239 q 139 254 154 239 q 115 374 115 319 q 147 462 115 430 q 219 520 180 494 q 343 650 343 600 q 326 690 343 670 q 284 709 309 709 q 244 697 259 709 q 211 671 228 685 q 178 645 194 657 q 133 633 161 633 q 86 658 106 633 q 67 707 67 683 q 85 770 67 756 q 194 791 120 791 q 257 781 215 791 q 341 748 300 772 q 446 576 446 685 q 344 419 446 478 q 292 386 317 402 q 237 352 267 370 q 185 287 185 322 l 185 261 z "},"@":{"ha":609,"x_min":56,"x_max":894,"o":"m 654 107 q 681 67 654 67 q 731 89 704 67 q 783 148 759 111 q 841 346 841 239 q 772 563 841 480 q 544 657 696 657 q 373 617 452 657 q 237 512 294 576 q 147 368 180 448 q 115 194 115 287 q 165 22 115 100 q 280 -94 215 -56 q 334 -119 313 -115 q 374 -128 356 -124 q 357 -144 374 -135 q 326 -152 341 -152 q 266 -138 304 -152 q 189 -94 228 -124 q 120 -19 150 -63 q 56 202 56 78 q 92 381 56 291 q 194 543 128 470 q 349 660 259 615 q 537 706 439 706 q 701 678 635 706 q 809 602 767 650 q 894 354 894 506 q 813 102 894 211 q 727 21 776 52 q 629 -9 678 -9 q 543 16 580 -9 q 506 96 506 41 l 506 115 q 509 131 506 124 q 391 9 463 48 q 338 -6 363 -6 q 292 0 313 -6 q 254 22 270 6 q 217 136 217 59 q 251 283 217 213 q 339 411 285 354 q 460 505 393 469 q 593 541 528 541 q 726 526 676 541 l 657 156 q 654 124 654 148 l 654 107 m 541 476 q 419 381 469 476 q 369 181 369 291 q 382 131 369 146 q 417 115 396 115 q 492 174 456 115 q 548 335 528 233 l 574 459 q 559 472 565 469 q 541 476 554 476 z "},"A":{"ha":822,"x_min":-13,"x_max":837,"o":"m 257 -6 q 125 6 163 6 q -7 -6 87 6 q -12 14 -11 -2 q -9 39 -13 30 q 44 55 17 39 q 76 78 70 70 q 119 163 100 120 l 380 763 q 400 792 385 774 q 430 809 415 809 q 450 800 444 809 l 700 181 q 719 132 713 152 q 734 94 726 113 q 757 64 743 74 q 787 48 772 54 q 831 41 807 41 q 836 15 835 31 q 833 -6 837 -2 q 654 6 722 6 q 485 -6 585 6 q 481 20 481 0 q 485 41 481 41 q 557 63 531 41 q 569 78 569 70 q 531 180 569 96 l 494 269 q 489 274 489 274 l 243 274 q 233 269 239 274 q 213 221 224 250 q 191 167 202 193 q 163 88 163 106 q 176 62 163 70 q 206 48 189 54 q 257 41 235 41 q 262 16 263 33 q 257 -6 261 -2 m 261 339 q 326 333 261 333 l 413 333 q 463 335 433 333 l 465 339 l 465 343 l 365 581 l 261 343 l 261 339 z "},"B":{"ha":737,"x_min":41,"x_max":713,"o":"m 474 594 q 372 757 474 757 q 332 756 350 757 q 311 743 315 754 q 304 669 304 728 l 304 454 l 369 454 q 444 490 415 454 q 474 594 474 526 m 220 804 l 407 807 q 574 763 506 807 q 656 613 656 711 q 557 465 656 522 q 525 448 535 452 q 515 443 515 444 q 527 439 515 441 q 573 423 539 437 q 637 381 607 409 q 713 235 713 317 q 678 122 713 174 q 587 38 643 70 q 465 0 531 6 q 354 -5 398 -6 q 270 -4 309 -4 q 44 -4 157 -4 q 41 19 41 2 q 44 41 41 35 q 76 44 52 41 q 124 63 117 50 q 133 178 133 85 l 133 628 q 124 743 133 717 q 44 761 111 761 q 41 785 41 769 q 44 807 41 802 q 133 804 87 804 l 220 804 m 304 133 q 313 64 304 76 q 344 50 322 52 q 390 48 367 48 q 436 56 413 48 q 478 85 459 65 q 522 215 522 128 q 441 389 522 343 q 369 406 411 406 l 304 406 l 304 133 z "},"C":{"ha":787,"x_min":43,"x_max":781,"o":"m 739 250 q 781 235 757 250 q 769 163 781 222 q 731 48 743 52 q 610 9 672 28 q 462 -9 548 -9 q 300 21 376 -9 q 167 106 224 52 q 43 394 43 222 q 167 693 43 569 q 465 815 289 815 q 720 793 613 815 l 761 607 q 751 595 761 602 q 729 589 741 589 q 713 594 717 589 q 659 691 693 657 q 476 763 591 763 q 293 661 354 763 q 239 430 239 572 q 300 167 239 270 q 502 44 372 44 q 685 141 626 44 q 726 216 715 185 q 739 250 737 246 z "},"D":{"ha":891,"x_min":41,"x_max":876,"o":"m 310 743 q 308 737 310 743 q 305 713 306 731 q 304 433 304 694 l 304 157 q 315 76 304 104 q 344 56 320 63 q 391 48 367 48 q 611 132 541 48 q 681 396 681 217 q 594 667 681 570 q 372 757 513 757 q 332 756 350 757 q 310 743 315 754 m 220 804 q 407 807 300 804 q 748 704 620 807 q 876 411 876 596 q 737 96 876 204 q 398 -4 611 -4 q 44 -4 222 -4 q 41 19 41 2 q 44 41 41 35 q 76 44 52 41 q 124 63 117 50 q 133 178 133 85 l 133 628 q 124 743 133 717 q 44 761 111 761 q 41 785 41 769 q 44 807 41 802 q 133 804 87 804 l 220 804 z "},"E":{"ha":746,"x_min":41,"x_max":707,"o":"m 652 631 q 631 624 644 624 q 606 635 609 624 q 557 721 585 685 q 472 757 530 757 l 372 757 q 332 756 350 757 q 311 743 315 754 q 304 669 304 728 l 304 450 q 357 437 304 437 l 422 437 q 491 450 474 437 q 515 480 507 463 q 530 522 522 496 q 545 531 530 531 q 567 526 561 531 l 567 291 q 545 285 561 285 q 528 296 530 285 q 486 369 511 359 q 382 380 461 380 q 304 361 304 380 l 304 157 q 315 76 304 104 q 394 52 326 52 l 474 52 q 586 90 548 52 q 654 207 624 128 q 667 215 656 215 q 707 207 700 215 q 689 155 698 183 q 670 98 680 126 q 641 -2 648 41 q 211 -2 426 -2 l 44 -4 q 41 19 41 2 q 44 41 41 35 q 76 44 52 41 q 124 63 117 50 q 133 178 133 85 l 133 628 q 124 743 133 717 q 44 761 111 761 q 41 785 41 769 q 44 807 41 802 q 133 804 87 804 l 220 804 l 617 811 q 652 631 630 728 z "},"F":{"ha":657,"x_min":41,"x_max":652,"o":"m 652 631 q 631 624 644 624 q 606 635 609 624 q 557 721 585 685 q 472 757 530 757 l 372 757 q 332 756 350 757 q 311 743 315 754 q 304 669 304 728 l 304 444 q 357 431 304 431 l 422 431 q 491 444 474 431 q 515 474 507 457 q 530 517 522 491 q 545 526 530 526 q 567 520 561 526 l 567 285 q 547 281 563 281 q 528 291 531 281 q 485 365 511 354 q 385 374 467 374 q 304 357 304 374 l 304 178 q 305 109 304 137 q 311 69 306 81 q 327 53 317 57 q 348 44 337 48 q 393 41 369 41 q 396 17 396 33 q 393 -6 396 0 q 44 -6 219 11 q 41 17 41 0 q 44 41 41 33 q 102 49 83 41 q 124 63 120 57 q 133 178 133 85 l 133 628 q 124 743 133 717 q 44 761 111 761 q 41 785 41 769 q 44 807 41 802 q 133 804 87 804 l 220 804 l 617 811 q 652 631 630 728 z "},"G":{"ha":826,"x_min":43,"x_max":857,"o":"m 720 793 l 761 607 q 751 595 761 602 q 729 589 741 589 q 713 594 717 589 q 661 691 693 657 q 480 763 593 763 q 291 657 352 763 q 239 424 239 567 q 304 163 239 272 q 498 44 376 44 q 593 63 552 44 q 600 69 596 67 q 604 81 604 72 l 604 254 q 588 301 604 291 q 559 315 572 311 q 517 319 537 319 q 512 339 513 319 q 517 365 511 359 q 694 357 609 357 q 854 365 780 357 q 856 335 857 352 q 852 319 856 319 q 820 314 844 319 q 789 304 796 309 q 772 250 772 294 l 772 120 l 780 85 q 737 52 780 70 q 613 11 678 31 q 462 -9 548 -9 q 299 21 376 -9 q 166 106 222 52 q 76 233 109 159 q 43 394 43 307 q 76 556 43 480 q 167 691 109 633 q 301 781 224 748 q 465 815 378 815 q 720 793 613 815 z "},"H":{"ha":826,"x_min":41,"x_max":863,"o":"m 683 4 q 511 -6 604 4 q 507 17 507 0 q 511 41 507 33 q 569 49 550 41 q 589 63 587 57 q 598 178 598 85 l 598 380 l 596 383 l 596 385 q 528 387 563 387 q 399 387 452 387 q 331 386 346 387 q 311 384 315 385 q 306 383 307 383 q 304 380 304 381 l 304 178 q 305 109 304 137 q 311 69 306 81 q 327 53 317 57 q 348 44 337 48 q 393 41 369 41 q 396 17 396 33 q 393 -6 396 0 q 44 -6 219 11 q 41 17 41 0 q 44 41 41 33 q 102 49 83 41 q 124 63 120 57 q 133 178 133 85 l 133 628 q 124 743 133 717 q 44 763 111 763 q 41 787 41 770 q 44 809 41 804 q 220 800 137 800 q 393 809 300 800 q 396 787 396 804 q 393 763 396 770 q 337 756 357 763 q 315 743 317 748 q 305 694 306 722 q 304 628 304 667 l 304 454 q 306 452 304 452 q 421 446 311 446 q 598 450 531 446 l 598 452 l 600 456 l 598 628 q 589 743 598 717 q 511 763 581 763 q 507 787 507 770 q 511 809 507 804 q 687 800 604 800 q 857 809 770 800 q 862 787 861 804 q 857 763 863 770 q 802 756 822 763 q 780 743 781 748 q 770 628 770 717 l 770 178 q 776 71 770 85 q 792 53 781 57 q 815 44 802 48 q 857 41 837 41 q 862 17 863 33 q 857 -6 861 0 q 683 4 770 4 z "},"I":{"ha":406,"x_min":41,"x_max":396,"o":"m 44 809 q 220 800 137 800 q 393 809 300 800 q 396 787 396 804 q 393 763 396 770 q 337 756 357 763 q 315 743 317 748 q 305 694 306 722 q 304 628 304 667 l 304 178 q 305 109 304 137 q 311 69 306 81 q 327 53 317 57 q 348 44 337 48 q 393 41 369 41 q 396 17 396 33 q 393 -6 396 0 q 44 -6 219 11 q 41 17 41 0 q 44 41 41 33 q 102 49 83 41 q 124 63 120 57 q 133 178 133 85 l 133 628 q 124 743 133 717 q 44 763 111 763 q 41 787 41 770 q 44 809 41 804 z "},"J":{"ha":443,"x_min":-137,"x_max":407,"o":"m 230 800 q 402 809 315 800 q 406 787 406 804 q 402 763 407 770 q 346 756 367 763 q 324 743 326 748 q 315 628 315 717 l 315 174 q 218 -151 315 -35 q -48 -267 120 -267 q -86 -259 -65 -267 q -117 -244 -107 -252 q -137 -190 -137 -219 q -115 -135 -137 -161 q -68 -109 -93 -109 q -25 -122 -43 -109 q 7 -151 -7 -135 q 35 -180 22 -167 q 70 -193 48 -193 q 108 -165 93 -193 q 131 -89 124 -137 q 143 165 143 -17 l 143 628 q 133 743 143 717 q 56 763 126 763 q 52 787 52 770 q 56 809 52 804 q 230 800 148 800 z "},"K":{"ha":915,"x_min":41,"x_max":894,"o":"m 44 809 q 220 800 137 800 q 393 809 300 800 q 396 787 396 804 q 393 763 396 770 q 337 756 357 763 q 315 743 317 748 q 305 694 306 722 q 304 628 304 667 l 304 411 q 428 519 396 485 l 481 570 q 591 696 537 628 q 602 738 602 711 q 533 765 602 765 q 531 809 522 787 l 691 800 q 843 809 756 800 q 845 787 846 802 q 839 767 844 772 q 759 748 800 767 q 702 713 719 730 l 472 476 q 469 456 463 465 l 689 159 q 819 57 746 85 q 891 41 863 41 q 894 16 894 33 q 891 -6 893 -2 q 750 -9 839 -9 q 614 20 661 -9 q 544 81 567 50 l 330 369 q 317 374 324 374 q 304 367 309 374 l 304 178 q 305 109 304 137 q 311 69 306 81 q 327 53 317 57 q 348 44 337 48 q 393 41 369 41 q 396 17 396 33 q 393 -6 396 0 q 44 -6 219 11 q 41 17 41 0 q 44 41 41 33 q 102 49 83 41 q 124 63 120 57 q 133 178 133 85 l 133 628 q 124 743 133 717 q 44 763 111 763 q 41 787 41 770 q 44 809 41 804 z "},"L":{"ha":670,"x_min":41,"x_max":707,"o":"m 220 800 q 393 809 300 800 q 396 787 396 804 q 393 763 396 770 q 337 756 357 763 q 315 743 317 748 q 305 694 306 722 q 304 628 304 667 l 304 157 q 315 76 304 104 q 394 52 326 52 l 474 52 q 586 90 548 52 q 654 207 624 128 q 667 215 656 215 q 707 207 700 215 q 689 155 698 183 q 670 98 680 126 q 641 -2 648 41 q 211 -2 426 -2 l 44 -4 q 41 19 41 2 q 44 41 41 35 q 76 44 52 41 q 124 63 117 50 q 133 178 133 85 l 133 628 q 124 743 133 717 q 44 763 111 763 q 41 787 41 770 q 44 809 41 804 q 220 800 137 800 z "},"M":{"ha":1080,"x_min":11,"x_max":1081,"o":"m 139 191 l 159 709 q 141 748 159 739 q 74 763 106 763 q 70 790 69 772 q 74 809 72 807 q 141 805 117 807 q 207 802 165 802 l 335 809 l 567 291 l 570 289 q 576 296 576 289 l 628 426 q 761 804 737 698 q 778 804 761 804 l 835 802 q 859 802 835 802 q 1035 809 887 802 q 1042 788 1039 806 q 1041 763 1044 770 q 1008 759 1031 763 q 976 748 985 756 q 959 701 957 735 q 963 605 961 667 q 968 469 965 543 q 972 319 970 394 q 978 196 974 244 q 994 63 983 93 q 1056 41 998 46 q 1070 41 1067 41 q 1072 -6 1081 15 q 902 6 961 6 q 715 -6 843 6 q 710 15 711 -2 q 713 41 709 31 q 773 49 752 41 q 798 63 794 57 q 807 106 807 85 l 807 181 l 796 557 q 785 639 796 639 q 780 631 781 639 l 565 48 q 536 10 552 22 q 513 -2 520 -2 q 502 0 506 -2 l 228 639 q 223 485 224 544 q 220 378 222 426 q 213 191 215 241 q 217 80 209 107 q 304 44 220 57 q 324 41 320 41 q 329 19 328 33 q 326 -6 330 4 q 252 2 289 -2 q 182 6 215 6 q 22 -6 150 6 q 20 39 11 17 q 89 56 59 39 q 122 80 119 72 q 129 102 126 87 q 133 133 131 117 q 137 167 135 150 q 139 191 139 183 z "},"N":{"ha":915,"x_min":31,"x_max":902,"o":"m 44 763 q 39 784 39 763 q 43 809 39 806 q 106 804 72 807 q 188 800 139 800 q 315 809 237 800 q 589 448 348 733 q 706 304 650 374 q 709 324 709 309 l 709 581 q 696 739 709 687 q 596 765 683 765 q 594 783 594 765 q 596 811 593 802 q 671 804 639 807 q 746 800 704 800 q 900 811 789 800 q 902 789 902 806 q 896 763 902 772 q 825 754 850 763 q 796 737 800 744 q 791 711 793 730 q 787 670 789 693 q 783 585 783 626 l 783 170 q 789 -2 783 70 q 774 -6 785 -6 l 757 -6 q 720 22 739 -6 l 222 635 l 222 193 q 235 74 222 119 q 317 43 244 52 q 335 41 331 41 q 341 16 341 31 q 339 -6 341 0 q 185 6 228 6 q 110 2 143 6 q 35 -6 78 -2 q 32 22 31 4 q 35 41 33 41 q 102 52 74 41 q 135 74 130 63 q 148 196 148 104 l 148 628 q 111 748 148 733 q 44 763 78 763 z "},"O":{"ha":920,"x_min":43,"x_max":874,"o":"m 622 630 q 545 726 593 689 q 437 763 498 763 q 339 733 376 763 q 280 659 302 704 q 239 444 239 576 q 293 174 239 283 q 483 41 359 41 q 635 144 585 41 q 678 357 678 230 q 622 630 678 520 m 457 815 q 614 782 539 815 q 747 694 689 750 q 840 561 806 637 q 874 400 874 485 q 840 240 874 315 q 747 108 806 165 q 614 19 689 52 q 457 -13 539 -13 q 170 107 294 -13 q 77 240 111 165 q 43 400 43 315 q 77 561 43 485 q 170 693 111 637 q 457 815 294 815 z "},"P":{"ha":719,"x_min":41,"x_max":689,"o":"m 393 -6 q 44 -6 219 11 q 41 17 41 0 q 44 41 41 33 q 102 49 83 41 q 124 63 120 57 q 133 178 133 85 l 133 628 q 124 743 133 717 q 44 761 111 761 q 41 785 41 769 q 44 807 41 802 q 133 804 87 804 l 220 804 l 407 807 q 606 750 526 807 q 689 589 689 691 q 611 415 689 485 q 444 350 541 350 q 389 361 411 350 q 360 379 367 372 q 351 402 354 385 q 354 419 348 419 q 408 413 367 413 q 479 457 450 413 q 507 555 507 502 q 498 642 507 607 q 470 700 489 676 q 372 757 428 757 q 332 756 350 757 q 311 743 315 754 q 304 669 304 728 l 304 178 q 305 109 304 137 q 311 69 306 81 q 327 53 317 57 q 348 44 337 48 q 393 41 369 41 q 396 17 396 33 q 393 -6 396 0 z "},"Q":{"ha":891,"x_min":43,"x_max":963,"o":"m 950 -80 q 963 -102 963 -80 l 963 -109 q 845 -155 913 -135 q 725 -174 778 -174 q 628 -153 672 -174 q 541 -103 583 -131 q 455 -44 498 -74 q 361 0 411 -15 q 137 144 228 33 q 43 400 43 259 q 77 561 43 485 q 170 693 111 637 q 457 815 294 815 q 614 782 539 815 q 747 694 689 750 q 840 561 806 637 q 874 408 874 485 q 851 269 874 331 q 789 156 828 207 q 583 9 707 50 q 656 -30 626 -11 q 715 -63 687 -48 q 856 -91 776 -91 q 918 -85 893 -91 q 950 -80 943 -80 m 622 630 q 545 726 593 689 q 437 763 498 763 q 339 733 376 763 q 280 659 302 704 q 239 444 239 576 q 293 174 239 283 q 483 41 359 41 q 635 144 585 41 q 678 357 678 230 q 622 630 678 520 z "},"R":{"ha":907,"x_min":41,"x_max":894,"o":"m 220 804 l 407 807 q 656 681 594 807 q 676 593 676 639 q 658 513 676 546 q 615 452 641 480 q 509 387 565 400 l 687 159 q 819 57 743 87 q 889 41 859 41 q 893 16 894 33 q 889 -6 891 -2 q 748 -9 837 -9 q 613 20 659 -9 q 543 81 567 50 l 344 346 q 334 357 341 350 q 322 365 328 365 l 304 365 l 304 178 q 305 109 304 137 q 311 69 306 81 q 327 53 317 57 q 348 44 337 48 q 393 41 369 41 q 396 17 396 33 q 393 -6 396 0 q 44 -6 219 11 q 41 17 41 0 q 44 41 41 33 q 102 49 83 41 q 124 63 120 57 q 133 178 133 85 l 133 628 q 124 743 133 717 q 44 761 111 761 q 41 785 41 769 q 44 807 41 802 q 133 804 87 804 l 220 804 m 476 693 q 372 757 441 757 q 332 756 350 757 q 311 743 315 754 q 304 669 304 728 l 304 413 l 361 413 q 455 457 415 413 q 494 581 494 502 q 476 693 494 659 z "},"S":{"ha":583,"x_min":56,"x_max":583,"o":"m 309 39 q 389 66 354 39 q 424 157 424 93 q 356 274 424 213 q 296 320 328 300 q 237 360 265 341 q 177 402 209 380 q 119 452 144 424 q 65 598 65 513 q 148 756 65 689 q 326 819 226 819 q 427 807 380 819 q 530 785 474 796 q 538 687 535 737 q 544 581 541 637 q 531 574 537 574 q 494 583 496 574 q 444 700 485 644 q 331 767 396 767 q 261 744 294 767 q 228 661 228 722 q 404 465 228 581 q 466 423 433 444 q 524 374 498 402 q 583 213 583 307 q 500 50 583 115 q 319 -13 420 -13 q 85 20 211 -13 q 62 167 67 119 q 56 228 57 215 q 73 239 59 233 q 96 244 87 244 q 107 235 106 244 q 170 111 117 176 q 309 39 233 39 z "},"T":{"ha":776,"x_min":7,"x_max":763,"o":"m 559 -6 q 211 -6 385 11 q 207 17 207 0 q 211 41 207 33 q 269 49 250 41 q 289 63 287 57 q 299 109 298 81 q 300 178 300 137 l 300 750 l 185 750 q 101 702 139 750 q 56 594 63 654 q 43 589 52 589 q 7 598 17 589 l 41 822 q 45 825 44 824 q 55 826 46 826 q 72 822 63 826 q 94 815 81 819 q 181 804 133 804 l 587 804 q 696 822 656 804 q 714 826 706 826 q 730 822 722 826 l 763 598 q 735 589 754 589 q 715 594 717 589 q 676 691 704 657 q 583 750 630 750 l 470 750 l 470 178 q 480 63 470 85 q 559 41 487 41 q 563 17 563 33 q 559 -6 563 0 z "},"U":{"ha":893,"x_min":20,"x_max":889,"o":"m 589 809 q 740 800 696 800 q 816 804 783 800 q 885 809 848 807 q 889 787 889 804 q 885 763 889 770 q 816 754 837 763 q 791 735 794 744 q 774 587 774 689 l 774 350 q 672 76 774 174 q 439 -11 581 -11 q 293 16 361 -11 q 184 92 224 43 q 129 206 144 141 q 113 369 113 272 l 113 628 q 112 694 113 667 q 106 735 111 722 q 90 752 100 748 q 67 759 80 756 q 24 763 44 763 q 20 787 20 770 q 24 809 20 804 q 198 800 117 800 q 372 809 280 800 q 376 787 376 804 q 372 763 376 770 q 317 756 339 763 q 293 743 294 748 q 283 628 283 717 l 283 404 q 288 292 283 341 q 312 198 293 243 q 356 131 331 154 q 407 96 381 107 q 491 78 444 78 q 572 94 537 78 q 635 148 607 111 q 698 378 698 230 l 698 585 q 681 735 698 689 q 648 754 676 748 q 589 763 615 763 q 585 787 585 770 q 589 809 585 804 z "},"V":{"ha":859,"x_min":-11,"x_max":856,"o":"m 341 763 q 267 731 267 763 q 296 639 267 707 l 478 228 q 562 438 528 348 q 607 557 596 528 q 642 644 635 626 q 657 688 648 661 q 667 735 667 715 q 637 756 667 748 q 569 763 596 763 q 565 787 565 770 q 569 809 565 804 q 715 800 676 800 q 783 804 754 800 q 850 809 813 807 q 855 787 854 804 q 850 763 856 770 q 765 743 780 763 q 715 641 746 717 l 461 37 q 434 4 454 20 q 405 -13 415 -13 q 393 -8 394 -13 q 387 4 391 -4 l 120 624 q 98 678 109 650 q 77 727 87 706 q 36 756 67 748 q -6 763 6 763 q -10 787 -11 770 q -6 809 -9 804 q 169 800 81 800 q 341 809 248 800 q 344 787 344 804 q 341 763 344 770 z "},"W":{"ha":1146,"x_min":-13,"x_max":1174,"o":"m 887 809 q 1034 800 994 800 q 1104 804 1074 800 q 1170 809 1133 807 q 1174 787 1174 804 q 1170 763 1174 770 q 1083 743 1100 763 q 1033 641 1052 693 l 833 48 q 810 6 824 26 q 783 -13 796 -13 q 761 4 770 -13 l 559 511 l 404 54 q 380 4 393 20 q 357 -13 367 -13 q 339 4 348 -13 l 119 624 q 76 724 100 676 q 35 756 65 748 q -7 763 6 763 q -12 787 -13 770 q -7 809 -11 804 q 168 800 85 800 q 339 809 250 800 q 344 787 343 804 q 339 763 344 770 q 265 731 265 763 q 275 691 265 717 q 294 639 285 665 l 415 307 l 578 763 q 594 795 583 781 q 614 809 606 809 q 630 789 622 809 l 839 261 l 957 637 q 983 735 983 704 q 954 754 983 748 q 887 763 915 763 q 883 787 883 770 q 887 809 883 804 z "},"X":{"ha":863,"x_min":-15,"x_max":869,"o":"m 36 762 q 31 763 36 762 q 20 763 26 763 q 15 785 15 763 q 20 809 15 807 q 219 802 198 802 q 387 809 239 802 q 389 783 389 804 q 383 763 389 763 q 319 739 322 763 q 330 711 319 726 l 465 506 q 516 569 487 535 q 570 635 544 604 q 628 725 628 709 q 598 752 628 741 q 537 763 569 763 q 531 778 531 763 q 535 809 531 806 q 697 800 615 800 q 844 809 780 800 q 848 783 848 804 q 844 763 848 763 q 825 762 839 763 q 791 756 811 761 q 706 700 741 739 l 498 452 q 645 231 604 291 q 711 135 687 170 q 745 88 735 100 q 774 66 756 76 q 811 50 793 56 q 865 41 839 41 q 869 18 869 31 q 865 -6 869 4 q 685 2 791 2 q 476 -6 580 2 q 472 20 470 0 q 479 41 474 41 q 494 43 483 41 q 517 48 506 44 q 546 74 546 61 q 543 89 546 81 l 380 333 q 266 181 330 272 q 202 80 202 89 q 213 63 202 70 q 239 50 224 56 q 304 41 263 41 q 307 -6 315 19 q 154 2 244 2 q -11 -6 63 2 q -15 17 -15 0 q -11 41 -15 33 q 74 58 41 41 q 122 96 107 76 l 339 394 l 169 656 q 134 709 152 681 q 106 744 117 737 q 84 754 96 750 q 59 759 72 757 q 36 762 46 761 z "},"Y":{"ha":765,"x_min":-7,"x_max":774,"o":"m 363 4 q 191 -6 283 4 q 187 17 187 0 q 191 41 187 33 q 248 49 230 41 q 269 63 267 57 q 278 178 278 85 l 278 354 q 191 522 278 363 q 81 724 93 702 q 38 755 67 746 q -2 763 9 763 q -6 787 -7 770 q -2 809 -6 804 q 172 800 85 800 q 344 809 252 800 q 348 787 348 804 q 344 763 348 770 q 270 731 270 763 q 278 711 270 726 l 426 441 q 580 706 431 435 q 585 732 585 722 q 573 748 585 743 q 546 757 561 754 q 494 763 524 763 q 491 787 491 770 q 494 809 491 804 q 640 800 606 800 q 704 804 674 800 q 770 809 733 807 q 774 787 774 804 q 770 763 774 770 q 680 733 702 763 q 556 535 631 659 q 452 346 452 359 l 450 178 q 456 71 450 85 q 471 53 461 57 q 494 44 481 48 q 537 41 517 41 q 542 17 543 33 q 537 -6 541 0 q 363 4 448 4 z "},"Z":{"ha":776,"x_min":33,"x_max":746,"o":"m 426 802 q 709 815 528 802 q 718 798 713 813 q 722 778 722 783 q 701 740 722 772 q 646 656 680 707 q 570 541 613 606 l 483 411 q 246 57 380 256 l 511 57 q 628 100 581 57 q 693 207 669 144 q 706 215 693 215 q 746 207 739 215 q 729 156 739 183 q 709 100 719 128 q 680 2 685 26 l 637 2 l 459 0 q 56 0 257 0 q 42 16 50 4 q 33 38 33 28 q 37 52 33 48 l 504 746 l 280 746 q 124 637 165 746 q 102 580 113 607 q 89 572 102 572 q 52 578 57 572 l 94 809 q 206 802 124 802 l 426 802 z "},"[":{"ha":407,"x_min":91,"x_max":372,"o":"m 91 913 q 115 941 91 941 q 365 961 278 941 q 372 949 372 961 q 368 928 372 937 q 361 919 363 919 q 291 897 333 904 q 222 885 248 891 l 222 -93 q 291 -105 248 -98 q 361 -126 333 -111 q 372 -157 372 -137 q 365 -169 372 -169 q 115 -150 285 -150 q 91 -120 91 -146 l 91 913 z "},"\\":{"ha":543,"x_min":33,"x_max":476,"o":"m 33 922 q 65 930 37 930 q 102 911 93 930 q 265 502 206 650 q 357 269 324 354 q 417 119 391 185 q 459 11 443 52 q 476 -32 476 -30 q 466 -40 476 -35 q 444 -44 456 -44 q 406 -22 415 -44 l 33 922 z "},"]":{"ha":420,"x_min":2,"x_max":281,"o":"m 9 961 q 259 941 96 941 q 276 931 270 941 q 281 913 281 922 l 281 -120 q 259 -150 281 -146 q 9 -169 87 -150 q 2 -157 2 -169 q 13 -126 2 -137 q 83 -105 41 -111 q 152 -93 126 -98 l 152 885 q 83 897 126 891 q 13 919 41 904 q 6 928 11 919 q 2 949 2 937 q 9 961 2 961 z "},"^":{"ha":457,"x_min":46,"x_max":407,"o":"m 204 800 q 230 819 217 819 q 259 789 243 819 q 294 728 276 759 q 328 667 311 696 q 407 533 367 594 q 400 519 407 524 q 383 513 393 513 q 290 608 326 567 q 228 680 254 650 q 178 622 202 650 q 70 513 135 574 q 55 519 63 513 q 46 533 46 524 q 126 665 107 633 q 163 728 144 696 q 204 800 181 759 z "},"_":{"ha":594,"x_min":4,"x_max":581,"o":"m 19 -52 q 15 -13 4 -52 q 21 7 19 -2 q 28 17 24 17 l 578 17 q 581 6 581 17 q 570 -44 581 -6 q 563 -52 563 -59 l 19 -52 z "},"`":{"ha":304,"x_min":54,"x_max":265,"o":"m 144 704 q 127 717 144 704 q 81 758 109 730 q 54 800 54 787 q 66 826 54 813 q 100 839 78 839 q 156 823 144 839 q 188 781 169 807 q 226 726 207 754 q 265 660 265 667 q 258 646 265 654 q 245 639 252 639 q 209 658 239 639 q 144 704 180 678 z "},"a":{"ha":561,"x_min":35,"x_max":557,"o":"m 274 76 q 312 86 298 76 q 326 102 326 96 l 326 272 q 284 255 306 263 q 241 231 263 246 q 201 157 200 204 q 226 94 202 111 q 274 76 250 76 m 548 94 q 557 78 557 89 q 552 56 557 67 q 513 26 541 44 q 430 -7 463 -7 q 369 12 396 -7 q 333 54 343 31 q 260 9 307 28 q 187 -9 213 -9 q 131 4 161 -9 q 81 37 102 17 q 35 130 35 83 q 55 203 35 176 q 95 236 74 230 q 145 254 117 243 q 207 278 174 265 q 326 322 250 293 l 326 380 q 306 464 326 426 q 252 502 285 502 q 205 472 219 502 q 185 411 191 443 q 113 346 170 346 q 69 362 89 346 q 50 396 50 378 q 67 456 50 422 q 133 500 87 476 q 303 548 228 548 q 431 496 378 548 q 483 361 483 444 l 483 133 q 493 95 483 107 q 514 83 502 83 q 535 89 526 83 l 548 94 z "},"b":{"ha":619,"x_min":-7,"x_max":620,"o":"m 65 41 q 80 185 80 74 l 80 681 q 74 734 80 722 q 59 750 69 746 q 37 756 50 754 q -2 763 9 763 q -6 781 -6 763 q -2 802 -7 798 q 166 831 102 811 q 233 850 230 850 q 252 828 246 846 q 239 706 239 776 l 239 507 q 240 495 239 504 q 247 492 241 487 q 268 506 254 496 q 298 526 281 515 q 378 548 335 548 q 467 529 420 548 q 548 474 513 509 q 620 289 620 402 q 517 67 620 150 q 293 -9 426 -9 q 204 5 244 -9 q 135 19 163 19 q 94 9 107 19 q 78 21 91 9 q 65 41 65 33 m 306 457 q 243 431 269 457 q 239 420 239 428 l 239 120 q 260 67 239 89 q 315 44 281 44 q 371 62 348 44 q 411 107 394 80 q 444 239 444 167 q 404 411 444 365 q 306 457 363 457 z "},"c":{"ha":520,"x_min":35,"x_max":517,"o":"m 502 152 q 517 137 517 148 l 517 119 q 492 81 517 107 q 437 37 467 56 q 305 -11 369 -11 q 194 6 241 -11 q 113 57 148 24 q 35 244 35 131 q 131 452 35 359 q 354 548 230 548 q 478 526 441 548 q 502 471 502 502 q 483 416 502 441 q 435 391 465 391 q 389 410 406 391 q 357 446 372 430 q 274 483 324 483 q 211 428 237 483 q 189 315 189 380 q 206 207 189 250 q 248 139 222 165 q 357 91 296 91 q 450 111 419 91 q 502 152 481 131 z "},"d":{"ha":611,"x_min":37,"x_max":641,"o":"m 411 20 l 411 41 q 406 44 411 48 q 385 31 400 41 q 350 13 370 22 q 174 11 256 -30 q 56 144 91 50 q 37 256 37 191 q 71 379 37 322 q 156 472 106 435 q 260 527 206 509 q 356 544 315 544 q 406 543 396 544 q 411 570 411 543 l 411 681 q 404 741 411 720 q 369 757 398 752 q 330 763 341 763 q 326 781 326 763 q 330 802 326 798 q 498 831 433 811 q 568 849 563 850 q 578 841 572 848 q 583 828 583 833 q 570 706 570 776 l 570 131 q 571 106 570 117 q 581 85 572 94 q 637 74 593 74 q 641 55 641 67 q 633 33 641 43 q 539 17 600 31 q 420 -9 430 -9 q 411 20 411 -9 m 333 69 q 385 85 359 69 q 411 113 411 102 l 411 428 q 383 464 411 444 q 321 483 356 483 q 267 468 287 483 q 233 426 246 452 q 211 286 211 376 q 244 132 211 196 q 333 69 276 69 z "},"e":{"ha":531,"x_min":37,"x_max":522,"o":"m 196 344 q 221 345 200 344 q 269 348 243 346 q 354 354 328 350 q 370 375 370 356 q 367 417 370 394 q 354 456 363 439 q 301 496 333 496 q 250 479 269 496 q 219 437 231 461 q 196 344 196 389 m 489 311 q 196 296 378 302 q 259 130 196 183 q 364 91 307 91 q 452 111 420 91 q 504 152 483 131 q 519 131 519 148 q 512 105 519 115 q 487 75 506 94 q 441 37 469 56 q 306 -11 370 -11 q 194 6 241 -11 q 113 57 148 24 q 37 244 37 130 q 119 452 37 363 q 307 546 206 546 q 474 481 417 546 q 522 361 522 430 q 513 326 522 341 q 489 311 504 311 z "},"f":{"ha":381,"x_min":26,"x_max":498,"o":"m 198 4 q 30 -6 122 4 q 26 17 26 0 q 30 41 26 33 q 87 49 69 41 q 109 63 106 57 q 119 178 119 85 l 119 465 l 31 465 q 26 481 26 469 q 65 522 41 504 l 119 522 l 119 541 q 211 759 119 657 q 294 829 250 804 q 370 854 337 854 q 450 841 406 854 q 481 819 465 831 q 498 781 498 807 q 482 727 498 754 q 437 700 467 700 q 390 716 407 700 q 352 748 372 731 q 306 765 331 765 q 280 736 291 765 q 269 665 269 707 q 274 522 269 611 l 417 522 q 424 505 424 522 q 396 465 424 487 l 278 465 l 278 178 q 283 71 278 85 q 299 53 289 57 q 322 44 309 48 q 365 41 344 41 q 369 17 370 33 q 365 -6 369 0 q 198 4 278 4 z "},"g":{"ha":583,"x_min":28,"x_max":570,"o":"m 541 448 q 478 454 491 452 q 465 452 465 456 q 491 370 491 413 q 474 294 491 328 q 426 237 457 261 q 269 181 359 181 q 206 187 233 181 q 186 169 196 178 q 176 147 176 159 q 194 127 176 135 q 242 119 213 119 q 318 119 270 119 q 402 118 365 120 q 469 99 439 115 q 520 63 500 83 q 559 -24 559 24 q 531 -119 559 -72 q 457 -196 504 -165 q 231 -267 357 -267 q 84 -228 141 -267 q 28 -126 28 -189 q 62 -56 28 -89 q 131 -7 96 -24 q 79 38 100 2 q 57 113 57 74 q 159 202 57 143 q 75 264 106 222 q 44 352 44 306 q 62 431 44 398 q 109 489 80 463 q 267 541 172 541 q 396 511 350 541 q 404 507 400 507 l 557 522 q 570 508 570 515 q 560 478 570 502 q 541 448 550 454 m 181 -17 q 161 -70 161 -43 q 202 -165 161 -131 q 297 -198 243 -198 q 380 -188 352 -198 q 424 -163 407 -178 q 452 -98 452 -139 q 413 -37 452 -57 q 315 -17 374 -17 l 181 -17 m 261 496 q 194 419 202 496 q 193 373 193 396 q 197 323 193 350 q 211 274 202 296 q 280 226 235 226 q 341 307 339 226 q 343 350 343 328 q 339 399 343 372 q 326 448 335 426 q 261 496 304 496 z "},"h":{"ha":706,"x_min":13,"x_max":704,"o":"m 343 -6 q 182 4 256 4 q 17 -6 109 4 q 13 17 13 0 q 17 41 13 33 q 74 49 56 41 q 94 63 93 57 q 105 109 104 81 q 106 178 106 137 l 106 681 q 100 734 106 722 q 84 750 94 746 q 63 756 74 754 q 24 763 37 763 q 19 781 20 763 q 24 802 19 798 q 241 844 148 815 q 259 850 257 850 q 278 828 272 846 q 270 785 274 806 q 265 704 265 757 l 265 448 q 278 458 269 448 q 307 484 287 469 q 352 515 328 500 q 452 544 406 544 q 531 527 498 544 q 581 474 563 509 q 613 257 613 411 l 613 178 q 619 71 613 85 q 634 53 624 57 q 657 44 644 48 q 700 41 680 41 q 704 17 704 33 q 700 -6 704 0 q 540 4 607 4 q 380 -6 472 4 q 376 17 376 0 q 380 41 376 33 q 443 61 435 41 q 454 178 454 85 l 454 274 q 372 446 454 446 q 311 430 337 446 q 265 378 265 396 l 265 178 q 270 71 265 85 q 285 53 276 57 q 306 44 294 48 q 343 41 324 41 q 347 17 348 33 q 343 -6 346 0 z "},"i":{"ha":343,"x_min":30,"x_max":365,"o":"m 294 524 q 281 456 291 515 l 281 178 q 287 71 281 85 q 302 53 293 57 q 322 44 311 48 q 361 41 341 41 q 365 17 365 33 q 361 -6 365 0 q 202 4 269 4 q 33 -6 126 4 q 30 17 30 0 q 33 41 30 33 q 91 49 72 41 q 113 63 109 57 q 122 178 122 85 l 122 337 q 119 381 122 352 q 111 419 115 411 q 33 443 98 443 q 31 462 30 444 q 35 480 31 480 q 172 506 106 485 q 274 544 239 528 q 287 535 280 543 q 294 524 294 528 m 102 754 q 127 816 102 791 q 189 841 152 841 q 252 816 226 841 q 278 754 278 791 q 252 691 278 717 q 189 665 226 665 q 127 691 152 665 q 102 754 102 717 z "},"j":{"ha":311,"x_min":-20,"x_max":276,"o":"m -2 -267 q -20 -248 -20 -257 q -19 -238 -20 -239 q 3 -223 -17 -237 q 44 -174 22 -209 q 104 78 104 -80 l 104 337 q 100 381 104 352 q 93 419 96 411 q 30 441 83 437 q 16 444 19 443 q 13 462 13 444 q 17 480 13 480 q 154 506 87 485 q 256 544 220 528 q 269 535 263 543 q 276 524 276 528 q 269 493 272 517 q 264 452 265 469 q 263 409 263 435 l 263 146 q 204 -124 263 -43 q 94 -226 163 -181 q -2 -267 33 -267 m 174 663 q 110 689 137 663 q 83 753 83 715 q 110 817 83 791 q 174 843 137 843 q 238 817 211 843 q 265 753 265 791 q 238 689 265 715 q 174 663 211 663 z "},"k":{"ha":683,"x_min":13,"x_max":720,"o":"m 500 531 l 543 531 q 681 537 559 531 q 685 513 687 528 q 678 494 683 498 q 566 463 594 483 q 494 403 537 443 q 396 313 452 363 q 510 184 476 220 q 569 120 544 148 q 615 77 594 93 q 652 54 635 61 q 715 44 674 44 q 719 21 720 33 q 715 7 717 9 q 606 -7 676 -7 q 424 65 487 -7 q 280 230 361 128 q 275 235 276 233 q 265 246 274 237 l 265 178 q 270 71 265 85 q 286 53 276 57 q 307 44 296 48 q 352 41 328 41 q 356 17 356 33 q 352 -6 356 0 q 184 4 259 4 q 17 -6 109 4 q 13 17 13 0 q 17 41 13 33 q 74 49 56 41 q 94 63 93 57 q 105 109 104 81 q 106 178 106 137 l 106 681 q 100 734 106 722 q 84 750 94 746 q 63 756 74 754 q 24 763 37 763 q 19 781 20 763 q 24 802 19 798 q 241 844 148 815 q 259 850 257 850 q 278 828 272 846 q 270 785 274 806 q 265 704 265 757 l 263 289 q 356 353 293 300 q 440 430 419 406 q 461 464 461 454 q 452 479 461 474 q 430 487 443 483 q 383 494 407 494 q 381 519 380 504 q 387 537 381 533 q 444 533 417 535 q 500 531 472 531 z "},"l":{"ha":317,"x_min":13,"x_max":356,"o":"m 352 -6 q 184 4 259 4 q 17 -6 109 4 q 13 17 13 0 q 17 41 13 33 q 74 49 56 41 q 94 63 93 57 q 105 109 104 81 q 106 178 106 137 l 106 681 q 100 734 106 722 q 84 750 94 746 q 63 756 74 754 q 24 763 37 763 q 19 781 20 763 q 24 802 19 798 q 241 844 148 815 q 259 850 257 850 q 278 828 272 846 q 270 785 274 806 q 265 704 265 757 l 265 178 q 270 71 265 85 q 286 53 276 57 q 307 44 296 48 q 352 41 328 41 q 356 17 356 33 q 352 -6 356 0 z "},"m":{"ha":1039,"x_min":30,"x_max":1072,"o":"m 202 4 q 33 -6 126 4 q 30 17 30 0 q 33 41 30 33 q 91 49 72 41 q 113 63 109 57 q 122 178 122 85 l 122 337 q 119 381 122 352 q 111 419 115 411 q 33 443 98 443 q 31 462 30 444 q 35 480 31 480 q 172 506 106 485 q 274 544 239 528 q 287 535 280 543 q 293 524 294 528 q 283 470 285 493 q 283 448 281 448 q 287 450 285 448 q 293 454 289 452 q 356 506 319 483 q 471 544 420 544 q 556 522 522 544 q 613 441 591 500 q 626 451 617 441 q 658 478 635 461 q 709 509 681 494 q 821 544 776 544 q 899 527 867 544 q 948 474 931 509 q 980 257 980 411 l 980 178 q 981 109 980 137 q 987 69 981 81 q 1003 53 993 57 q 1026 44 1013 48 q 1069 41 1044 41 q 1072 17 1072 33 q 1069 -6 1072 0 q 908 4 976 4 q 748 -6 841 4 q 744 17 744 0 q 748 41 744 33 q 783 45 759 41 q 811 63 807 50 q 821 109 820 81 q 822 178 822 137 l 822 274 q 778 431 822 391 q 742 446 763 446 q 700 439 720 446 q 663 422 680 431 q 624 380 624 398 l 624 372 q 630 257 630 319 l 630 178 q 635 71 630 85 q 651 53 641 57 q 674 44 661 48 q 715 41 693 41 q 719 17 719 33 q 715 -6 719 0 q 550 4 622 4 q 394 -6 487 4 q 391 17 391 0 q 394 41 391 33 q 432 45 407 41 q 463 67 457 50 q 470 178 470 87 l 470 274 q 389 446 470 446 q 328 430 354 446 q 281 378 281 396 l 281 178 q 287 71 281 85 q 302 53 293 57 q 322 44 311 48 q 361 41 341 41 q 365 17 365 33 q 361 -6 365 0 q 202 4 269 4 z "},"n":{"ha":691,"x_min":30,"x_max":722,"o":"m 202 4 q 33 -6 126 4 q 30 17 30 0 q 33 41 30 33 q 91 49 72 41 q 113 63 109 57 q 122 178 122 85 l 122 337 q 119 381 122 352 q 111 419 115 411 q 33 443 98 443 q 31 462 30 444 q 35 480 31 480 q 172 506 106 485 q 274 544 239 528 q 287 536 280 544 q 294 524 294 528 q 292 510 293 520 q 287 485 291 500 q 283 448 278 448 q 287 450 285 448 q 293 454 289 452 q 356 506 319 483 q 468 544 420 544 q 547 527 515 544 q 598 474 580 509 q 630 257 630 411 l 630 178 q 635 71 630 85 q 651 53 641 57 q 674 44 661 48 q 717 41 696 41 q 721 17 722 33 q 717 -6 720 0 q 550 4 630 4 q 396 -6 489 4 q 393 17 393 0 q 396 41 393 33 q 433 45 409 41 q 463 67 457 50 q 470 178 470 87 l 470 274 q 389 446 470 446 q 328 430 354 446 q 281 378 281 396 l 281 178 q 287 71 281 85 q 302 53 293 57 q 322 44 311 48 q 361 41 341 41 q 365 17 365 33 q 361 -6 365 0 q 202 4 269 4 z "},"o":{"ha":611,"x_min":37,"x_max":609,"o":"m 307 496 q 215 359 224 496 q 211 285 211 322 q 218 205 211 248 q 241 126 224 161 q 335 43 276 43 q 433 178 422 43 q 435 250 435 213 q 428 331 435 287 q 404 411 420 376 q 307 496 369 496 m 322 546 q 438 526 385 546 q 530 469 491 506 q 609 274 609 391 q 526 74 609 159 q 324 -9 446 -9 q 117 70 196 -9 q 37 265 37 150 q 119 463 37 378 q 322 546 200 546 z "},"p":{"ha":637,"x_min":7,"x_max":633,"o":"m 180 -257 q 13 -267 100 -257 q 8 -244 9 -261 q 13 -220 7 -228 q 69 -213 48 -220 q 91 -200 89 -206 q 100 -85 100 -174 l 100 337 q 96 381 100 352 q 89 419 93 411 q 26 441 80 437 q 12 444 15 443 q 9 462 9 444 q 13 480 9 480 q 150 506 83 485 q 252 544 217 528 q 266 535 259 543 q 271 523 272 528 q 266 508 270 519 q 261 488 261 498 q 263 475 261 478 q 280 489 265 472 q 330 527 294 506 q 407 548 365 548 q 494 526 450 548 q 569 467 537 504 q 633 285 633 393 q 533 67 633 154 q 333 -9 446 -9 q 287 -4 307 -9 q 263 2 267 2 q 259 -19 259 2 l 259 -85 q 269 -200 259 -174 q 346 -220 276 -220 q 351 -244 352 -228 q 346 -267 350 -261 q 180 -257 257 -257 m 259 117 q 285 62 259 80 q 334 44 311 44 q 378 56 357 44 q 415 91 398 67 q 457 243 457 148 q 430 397 457 337 q 326 457 402 457 q 276 443 293 457 q 259 424 259 428 l 259 117 z "},"q":{"ha":611,"x_min":37,"x_max":659,"o":"m 656 -267 q 488 -257 563 -257 q 320 -267 413 -257 q 317 -244 317 -261 q 320 -220 317 -228 q 376 -213 356 -220 q 398 -200 396 -206 q 407 -85 407 -174 l 407 20 q 406 33 407 26 q 400 36 406 41 q 380 24 394 31 q 344 9 365 17 q 174 11 252 -26 q 56 141 91 50 q 37 246 37 185 q 67 364 37 307 q 143 461 96 420 q 365 544 237 544 q 441 531 400 544 q 509 517 481 517 q 552 526 537 517 q 581 494 581 506 q 567 356 567 450 l 567 -85 q 568 -152 567 -124 q 574 -193 569 -180 q 590 -209 580 -206 q 611 -215 600 -213 q 656 -220 631 -220 q 659 -244 659 -228 q 656 -267 659 -261 m 392 452 q 384 459 392 452 q 359 474 376 467 q 314 481 343 481 q 265 465 285 481 q 233 422 244 448 q 211 317 211 374 q 218 219 211 259 q 237 144 224 178 q 335 69 270 69 q 388 81 369 69 q 407 98 407 94 l 407 420 q 392 452 407 437 z "},"r":{"ha":544,"x_min":30,"x_max":533,"o":"m 202 4 q 33 -6 126 4 q 30 17 30 0 q 33 41 30 33 q 91 49 72 41 q 113 63 109 57 q 122 178 122 85 l 122 337 q 119 381 122 352 q 111 419 115 411 q 33 443 98 443 q 31 462 30 444 q 35 480 31 480 q 172 506 106 485 q 274 544 239 528 q 287 535 280 543 q 294 524 294 528 q 291 507 293 520 q 287 479 289 494 q 283 448 285 463 q 281 429 281 433 q 285 423 281 424 q 289 424 289 422 q 344 502 322 480 q 443 546 393 546 q 519 526 498 546 q 533 477 533 504 q 528 432 533 450 q 511 400 522 415 q 459 369 489 369 q 431 380 443 369 q 408 400 419 391 q 388 418 398 409 q 361 426 378 426 q 330 414 344 426 q 304 385 315 402 q 281 326 281 352 l 281 178 q 287 71 281 85 q 302 53 293 57 q 322 44 311 48 q 361 41 341 41 q 365 17 365 33 q 361 -6 365 0 q 202 4 269 4 z "},"s":{"ha":452,"x_min":44,"x_max":448,"o":"m 54 174 q 72 183 54 183 q 98 170 91 183 q 154 65 111 98 q 224 39 185 39 q 281 59 263 39 q 300 104 300 80 q 288 144 300 128 q 258 170 276 159 q 219 193 241 181 q 81 281 137 230 q 44 371 44 317 q 67 457 44 426 q 122 509 89 489 q 272 548 185 548 q 346 540 315 548 q 409 524 378 531 q 428 430 420 478 q 435 373 435 381 q 419 365 435 365 q 391 376 402 365 q 357 454 376 430 q 261 498 319 498 q 210 481 230 498 q 191 437 191 465 q 203 393 191 409 q 232 364 215 376 q 272 343 250 352 q 317 323 294 333 q 363 300 339 313 q 406 269 387 287 q 448 169 448 226 q 428 81 448 113 q 374 30 407 50 q 207 -9 311 -9 q 126 1 165 -9 q 63 17 87 11 q 57 84 59 43 q 55 147 56 126 q 54 174 54 169 z "},"t":{"ha":394,"x_min":4,"x_max":402,"o":"m 4 481 q 43 522 19 502 l 96 522 l 96 587 q 164 654 131 619 q 224 717 196 689 q 244 723 235 724 q 256 717 254 722 l 256 522 l 394 522 q 402 505 402 522 q 374 465 402 487 l 256 465 l 256 163 q 322 70 256 70 q 363 82 343 70 q 387 98 383 94 q 394 85 394 91 q 388 61 394 69 q 369 43 381 54 q 341 20 357 31 q 260 -9 293 -9 q 199 -1 228 -9 q 148 30 170 7 q 96 170 96 76 l 96 465 l 9 465 q 4 481 4 469 z "},"u":{"ha":635,"x_min":9,"x_max":661,"o":"m 346 480 q 583 544 467 489 q 598 535 591 543 q 606 524 606 528 q 596 475 602 515 q 591 409 591 435 l 591 131 q 592 106 591 117 q 602 85 593 94 q 657 74 613 74 q 661 55 661 67 q 654 33 661 43 q 533 11 617 31 q 444 -9 450 -9 q 433 20 433 -9 l 433 41 q 430 46 433 48 q 257 -6 346 -6 q 107 130 137 -6 q 100 213 100 170 l 100 337 q 96 381 100 352 q 89 419 93 411 q 26 441 80 437 q 12 444 15 443 q 9 462 9 444 q 13 480 9 480 q 150 506 83 485 q 252 544 217 528 q 266 535 259 543 q 272 524 272 528 q 265 493 269 517 q 260 452 261 469 q 259 409 259 435 l 259 269 q 278 119 259 170 q 354 69 296 69 q 406 83 380 69 q 433 113 433 98 l 433 337 q 430 381 433 352 q 422 419 426 411 q 344 443 411 443 q 341 462 341 444 q 346 480 341 480 z "},"v":{"ha":637,"x_min":-9,"x_max":654,"o":"m 394 541 q 521 533 446 533 q 648 541 596 533 q 653 520 652 537 q 648 496 654 504 q 581 482 606 496 q 550 456 556 469 l 361 56 q 307 -13 326 -13 q 293 -4 302 -13 l 74 450 q 32 487 61 478 q -4 496 4 496 q -8 519 -9 504 q -4 541 -7 535 q 53 537 9 539 q 119 534 96 535 q 206 533 143 533 q 315 541 270 533 q 320 519 320 537 q 315 496 320 502 q 281 489 304 496 q 243 463 243 478 l 243 456 q 246 444 243 450 l 372 204 l 469 419 q 481 463 481 452 q 469 481 481 474 q 441 493 457 489 q 394 496 415 496 q 391 518 391 500 q 394 541 391 535 z "},"w":{"ha":946,"x_min":-9,"x_max":965,"o":"m -4 541 q 157 533 44 533 q 315 541 270 533 q 320 519 320 537 q 315 496 320 502 q 281 489 304 496 q 243 463 243 478 l 243 456 q 246 444 243 450 l 365 211 q 402 300 385 261 q 444 409 444 400 q 433 450 444 433 q 392 486 419 476 q 357 496 365 496 q 351 519 350 504 q 356 541 352 535 q 530 533 430 533 q 674 541 630 533 q 680 519 680 537 q 674 496 680 502 q 641 489 663 496 q 602 463 602 478 l 602 456 q 606 444 602 450 l 707 220 l 791 419 q 804 463 804 452 q 792 481 804 474 q 763 493 780 489 q 717 496 737 496 q 713 518 713 500 q 717 541 713 535 q 837 533 772 533 q 961 541 902 533 q 965 520 965 537 q 961 496 965 504 q 902 483 920 496 q 878 457 883 470 l 698 54 q 664 2 681 17 q 639 -13 646 -13 q 622 -4 631 -13 q 570 127 594 67 q 524 244 546 187 q 487 337 502 300 q 365 54 448 237 q 331 2 350 17 q 306 -13 313 -13 q 289 -4 298 -13 l 74 450 q 31 487 59 478 q -4 496 4 496 q -8 519 -9 504 q -4 541 -7 535 z "},"x":{"ha":672,"x_min":2,"x_max":674,"o":"m 17 541 q 193 533 91 533 q 339 541 294 533 q 344 519 344 537 q 339 496 344 502 q 295 486 309 496 q 281 470 281 476 q 293 452 281 463 l 372 352 q 402 384 385 367 q 433 419 419 402 q 465 464 465 454 q 453 481 465 474 q 426 493 441 489 q 380 496 402 496 q 374 518 374 500 q 378 541 374 535 q 479 533 433 533 q 547 534 524 533 q 592 536 570 535 q 630 539 613 537 q 654 541 646 541 q 657 520 657 537 q 654 496 657 504 q 552 457 591 496 q 489 387 520 422 q 411 300 457 352 l 585 81 q 631 48 604 56 q 667 41 659 41 q 673 16 674 31 q 669 -6 672 0 q 583 1 631 0 q 469 3 535 2 q 343 -6 404 4 q 339 18 339 0 q 343 41 339 35 q 378 46 354 41 q 402 67 402 52 q 398 75 402 70 q 391 85 394 80 l 304 191 q 273 158 291 176 q 241 124 256 141 q 202 73 202 83 q 214 56 202 63 q 241 44 226 48 q 289 41 265 41 q 293 19 293 35 q 289 -6 293 2 q 182 4 224 4 q 117 3 141 4 q 70 0 93 2 q 31 -3 48 -2 q 6 -6 13 -4 q 2 17 2 0 q 6 41 2 33 q 55 51 22 41 q 109 81 87 61 q 186 160 154 124 q 263 243 219 196 l 102 457 q 55 489 83 481 q 19 496 26 496 q 12 519 11 504 q 17 541 13 535 z "},"y":{"ha":635,"x_min":-9,"x_max":654,"o":"m 394 541 q 521 533 446 533 q 648 541 596 533 q 653 520 652 537 q 648 496 654 504 q 581 482 606 496 q 550 456 556 469 l 302 -69 q 180 -228 248 -172 q 89 -267 131 -267 q 25 -247 46 -267 q 4 -197 4 -228 q 31 -144 4 -167 q 150 -128 104 -144 q 233 -48 196 -111 q 276 37 252 -20 l 74 450 q 32 487 61 478 q -4 496 4 496 q -8 519 -9 504 q -4 541 -7 535 q 53 537 9 539 q 119 534 96 535 q 206 533 143 533 q 315 541 270 533 q 320 519 320 537 q 315 496 320 502 q 281 489 304 496 q 243 463 243 478 l 243 456 q 246 444 243 450 l 372 204 l 469 419 q 481 463 481 452 q 469 481 481 474 q 441 493 457 489 q 394 496 415 496 q 391 518 391 500 q 394 541 391 535 z "},"z":{"ha":530,"x_min":33,"x_max":528,"o":"m 43 348 q 65 530 54 396 q 104 526 85 528 q 181 522 144 522 l 350 522 q 507 533 433 522 q 511 515 511 524 l 511 504 l 213 56 l 354 56 q 441 100 404 56 q 481 180 472 135 q 496 189 485 189 q 528 176 515 189 q 480 0 504 93 l 44 0 q 33 19 33 6 q 37 41 33 33 l 311 465 l 263 465 l 185 467 q 98 389 128 467 q 85 352 91 369 q 64 343 85 343 q 43 348 43 343 z "},"{":{"ha":389,"x_min":17,"x_max":335,"o":"m 128 519 q 122 562 128 543 q 111 602 117 581 q 94 701 94 663 q 121 781 94 739 q 185 856 148 824 q 261 908 222 889 q 322 930 300 928 q 331 918 326 930 q 330 896 335 906 q 278 854 302 883 q 235 755 235 798 q 241 693 235 711 q 252 657 246 674 q 269 561 269 607 q 209 430 269 491 q 159 390 185 404 q 117 376 133 376 q 159 362 133 376 q 209 324 185 348 q 269 193 269 265 q 257 111 269 143 q 241 61 246 80 q 235 11 235 43 q 245 -45 235 -20 q 270 -89 256 -70 q 330 -144 298 -126 q 331 -164 335 -152 q 322 -176 326 -176 q 261 -155 300 -174 q 185 -104 222 -135 q 94 61 94 -26 q 106 131 94 93 q 122 191 117 170 q 128 235 128 211 q 94 317 128 283 q 20 363 59 350 q 17 375 17 367 q 20 391 17 383 q 94 436 59 402 q 128 519 128 470 z "},"|":{"ha":235,"x_min":87,"x_max":156,"o":"m 156 -131 q 98 -150 156 -144 q 91 -148 91 -150 l 91 926 q 98 935 87 930 q 146 941 120 941 q 153 938 150 941 q 156 933 156 935 l 156 -131 z "},"}":{"ha":359,"x_min":26,"x_max":343,"o":"m 231 519 q 267 436 231 470 q 339 391 302 402 q 343 380 343 387 q 343 369 343 380 q 339 363 343 365 q 267 317 302 350 q 231 235 231 283 q 243 170 231 209 q 259 110 254 131 q 265 51 265 89 q 238 -30 265 13 q 174 -104 211 -72 q 99 -155 137 -135 q 39 -176 61 -174 q 31 -164 35 -176 q 30 -144 26 -152 q 115 -44 89 -111 q 126 11 126 -20 q 120 61 126 43 q 107 96 115 80 q 91 193 91 139 q 152 324 91 267 q 243 376 206 376 q 152 430 204 376 q 91 561 91 489 q 103 644 91 613 q 120 693 115 674 q 126 743 126 711 q 116 799 126 774 q 91 844 106 824 q 30 896 61 883 q 31 918 26 906 q 39 930 35 930 q 99 908 61 928 q 174 856 137 889 q 265 693 265 778 q 248 601 265 659 q 231 519 231 543 z "},"~":{"ha":652,"x_min":59,"x_max":620,"o":"m 319 333 q 251 360 287 346 q 175 374 215 374 q 106 353 135 374 q 67 317 78 331 q 59 332 59 320 q 72 366 59 344 q 107 406 85 387 q 204 448 156 448 q 361 406 270 448 q 429 379 393 393 q 505 365 465 365 q 573 386 544 365 q 613 422 602 407 q 620 408 620 422 q 607 373 620 394 q 574 333 594 352 q 475 293 522 293 q 389 306 428 293 q 319 333 350 320 z "},"":{"ha":278,"x_min":0,"x_max":0,"o":""},"":{"ha":520,"x_min":56,"x_max":537,"o":"m 131 57 q 114 74 131 57 q 76 138 96 91 q 56 243 56 185 q 81 355 56 300 q 152 452 107 409 q 374 548 250 548 q 498 526 454 548 q 522 471 522 502 q 503 416 522 441 q 455 391 483 391 q 409 410 426 391 q 378 446 393 430 q 294 483 344 483 q 231 428 257 483 q 209 315 209 380 q 226 207 209 250 q 269 139 243 165 q 378 91 317 91 q 470 111 439 91 q 522 152 502 131 q 532 144 528 150 q 537 126 537 137 q 531 105 537 115 q 506 75 524 94 q 459 37 487 56 q 324 -11 389 -11 q 213 6 259 -11 q 131 57 167 24 m 346 587 q 389 578 389 587 l 287 -46 q 244 -35 252 -46 l 346 587 z "},"":{"ha":783,"x_min":65,"x_max":733,"o":"m 517 313 q 539 307 533 313 q 530 259 539 287 q 519 231 520 231 q 466 211 494 222 q 402 200 437 200 q 274 245 324 200 q 224 372 224 291 q 280 506 224 454 q 407 556 333 556 q 462 548 433 556 q 513 537 491 541 l 530 461 q 518 454 530 454 q 505 458 506 454 q 498 474 504 463 q 481 496 493 485 q 420 524 457 524 q 365 511 383 524 q 335 478 346 498 q 313 379 313 437 q 338 275 313 320 q 417 230 363 230 q 478 247 459 230 q 506 287 496 265 q 517 313 515 309 m 120 378 q 143 269 120 320 q 202 181 165 219 q 398 100 283 100 q 596 181 511 100 q 678 380 678 261 q 596 576 678 496 q 398 657 511 657 q 202 576 283 657 q 120 378 120 494 m 65 380 q 162 616 65 519 q 398 713 259 713 q 635 615 535 713 q 733 380 733 520 q 635 144 733 239 q 398 46 535 46 q 162 144 259 46 q 65 380 65 241 z "},"":{"ha":811,"x_min":65,"x_max":733,"o":"m 322 611 l 396 613 q 476 589 443 613 q 509 522 509 565 q 456 452 509 483 q 435 443 443 444 q 463 407 448 424 q 511 351 485 381 q 557 314 537 320 q 580 307 578 307 q 581 295 583 304 q 580 285 580 287 l 526 283 q 479 295 496 283 q 444 328 461 307 l 372 426 q 363 433 365 433 l 356 433 l 356 333 q 359 319 356 324 q 391 306 363 306 q 394 295 394 302 q 391 285 394 289 q 356 289 376 289 q 292 289 320 289 q 248 285 263 289 q 246 295 246 289 q 248 306 246 302 q 265 308 252 306 q 281 318 278 311 q 283 333 283 324 l 283 539 q 281 581 283 574 q 248 591 278 591 q 246 602 246 594 q 248 613 246 609 q 285 611 265 611 l 322 611 m 433 519 q 420 569 433 548 q 391 589 407 589 q 357 583 363 589 q 356 554 356 578 l 356 457 l 376 457 q 417 473 400 457 q 433 519 433 489 m 120 441 q 202 244 120 326 q 398 163 283 163 q 596 244 511 163 q 678 441 678 324 q 595 638 678 556 q 398 720 513 720 q 202 637 281 720 q 120 441 120 554 m 65 441 q 91 572 65 511 q 163 678 117 633 q 398 776 259 776 q 635 678 535 776 q 733 443 733 583 q 635 207 733 302 q 398 109 535 109 q 162 206 259 109 q 65 441 65 304 z "},"":{"ha":306,"x_min":33,"x_max":246,"o":"m 188 839 q 204 839 188 839 q 233 826 220 839 q 246 800 246 813 q 218 758 246 787 q 155 704 189 730 q 90 658 120 678 q 54 639 59 639 q 41 646 48 639 q 33 657 33 654 q 44 681 33 661 q 74 726 56 700 q 148 828 104 774 q 188 839 156 839 z "},"":{"ha":917,"x_min":43,"x_max":861,"o":"m 815 2 q 778 -4 787 -4 l 741 -4 q 709 6 709 -4 l 709 113 l 522 113 q 507 133 507 120 l 774 461 q 788 472 781 472 q 805 465 794 472 q 815 448 815 457 l 815 169 l 850 169 q 861 150 861 169 l 856 113 l 815 113 l 815 2 m 709 320 l 583 169 l 709 169 l 709 320 m 317 -13 q 272 -41 307 -31 q 250 -31 250 -44 l 672 811 q 710 835 685 830 q 739 828 735 841 l 317 -13 m 256 759 q 241 656 241 722 l 241 422 q 252 357 241 369 q 311 339 269 339 q 312 324 313 339 q 311 307 311 309 l 189 313 q 63 307 130 313 q 59 325 59 311 q 63 339 59 339 q 94 344 72 339 q 120 356 115 348 q 131 389 126 363 q 135 424 135 415 l 135 624 q 111 681 135 681 q 84 674 102 681 q 56 663 67 667 q 47 671 52 663 q 43 687 43 680 q 44 696 43 694 q 143 739 85 713 q 236 783 233 783 q 246 773 239 783 q 256 759 254 763 z "},"":{"ha":939,"x_min":43,"x_max":876,"o":"m 552 -2 q 543 15 550 0 q 613 94 594 72 q 649 138 631 117 q 693 194 667 159 q 746 330 746 263 q 722 387 746 367 q 672 407 698 407 q 631 399 646 407 q 606 380 617 391 q 588 358 594 369 q 580 346 581 348 q 569 350 578 346 q 561 365 561 354 q 663 459 591 426 q 720 472 689 472 q 823 441 785 472 q 861 352 861 409 q 830 253 861 294 q 767 181 798 211 q 646 85 702 122 l 783 85 q 823 108 811 85 q 841 144 835 131 q 850 156 846 156 q 861 157 854 157 q 876 154 869 157 q 865 117 872 141 q 850 68 857 93 q 837 22 843 43 l 828 -2 l 552 -2 m 289 -13 q 244 -41 280 -31 q 228 -37 231 -43 q 224 -31 224 -35 l 644 811 q 682 835 657 830 q 711 828 707 841 l 289 -13 m 256 759 q 241 656 241 722 l 241 422 q 252 357 241 369 q 311 339 269 339 q 312 324 313 339 q 311 307 311 309 l 189 313 q 63 307 130 313 q 59 325 59 311 q 63 339 59 339 q 94 344 72 339 q 120 356 115 348 q 131 389 126 363 q 135 424 135 415 l 135 624 q 111 681 135 681 q 84 674 102 681 q 56 663 67 667 q 47 671 52 663 q 43 687 43 680 q 44 696 43 694 q 143 739 85 713 q 236 783 233 783 q 246 773 239 783 q 256 759 254 763 z "},"":{"ha":933,"x_min":41,"x_max":874,"o":"m 235 662 q 235 675 235 662 q 216 708 235 689 q 160 728 196 728 q 85 689 124 728 q 73 694 81 689 q 67 709 65 700 q 130 761 87 737 q 203 785 172 785 q 254 780 233 785 q 293 763 274 774 q 333 681 333 733 q 300 606 333 633 q 244 583 278 589 q 306 563 276 583 q 369 461 369 519 q 296 341 369 385 q 154 300 235 300 q 52 326 83 300 q 41 357 41 343 q 51 386 41 372 q 78 400 61 400 q 130 363 107 400 q 185 333 148 333 q 259 433 259 333 q 233 508 259 476 q 170 541 207 541 q 154 541 170 541 q 131 537 141 541 q 124 556 124 552 q 128 570 124 567 q 222 619 193 580 q 235 662 235 635 m 828 2 q 793 -4 800 -4 l 752 -4 q 720 6 720 -4 l 720 113 l 533 113 q 519 133 519 120 l 787 461 q 801 472 794 472 q 818 465 807 472 q 828 448 828 457 l 828 169 l 863 169 q 874 150 874 169 l 869 113 l 828 113 l 828 2 m 720 320 l 596 169 l 720 169 l 720 320 m 330 -13 q 283 -41 320 -31 q 267 -37 270 -43 q 263 -31 263 -35 l 685 811 q 728 835 698 830 q 744 835 737 839 q 750 828 750 831 l 330 -13 z "},"":{"ha":813,"x_min":-20,"x_max":830,"o":"m 474 974 q 498 1032 474 1009 q 557 1056 522 1056 q 617 1032 593 1056 q 641 974 641 1009 q 617 915 641 939 q 557 891 593 891 q 498 915 522 891 q 474 974 474 939 m 200 974 q 223 1032 200 1009 q 281 1056 246 1056 q 341 1032 317 1056 q 365 974 365 1009 q 341 915 365 939 q 281 891 317 891 q 223 915 246 891 q 200 974 200 939 m 250 -6 q 118 6 156 6 q -15 -6 80 6 q -19 14 -19 -2 q -17 39 -20 30 q 36 55 9 39 q 69 78 63 70 q 111 163 93 120 l 372 763 q 393 792 378 774 q 422 809 407 809 q 443 800 437 809 l 693 181 q 712 132 706 152 q 727 94 719 113 q 750 64 735 74 q 780 48 765 54 q 824 41 800 41 q 829 15 828 31 q 826 -6 830 -2 q 646 6 715 6 q 478 -6 578 6 q 474 20 474 0 q 478 41 474 41 q 550 63 524 41 q 561 78 561 70 q 524 180 561 96 l 487 269 q 480 274 481 274 l 235 274 q 226 269 231 274 q 206 221 217 250 q 183 167 194 193 q 156 88 156 106 q 169 62 156 70 q 198 48 181 54 q 250 41 228 41 q 255 16 256 33 q 250 -6 254 -2 m 254 339 q 319 333 254 333 l 406 333 q 456 335 426 333 l 457 339 l 457 343 l 357 581 l 254 343 l 254 339 z "},"":{"ha":804,"x_min":-22,"x_max":828,"o":"m 357 928 q 376 881 357 900 q 421 861 394 861 q 468 881 448 861 q 487 928 487 900 q 468 975 487 956 q 421 994 448 994 q 376 975 394 994 q 357 928 357 956 m 300 928 q 336 1013 300 978 q 421 1048 372 1048 q 506 1013 470 1048 q 541 928 541 978 q 506 843 541 878 q 421 807 470 807 q 336 843 372 807 q 300 928 300 878 m 250 -6 q 119 6 156 6 q -17 -6 83 6 q -21 14 -20 -2 q -19 39 -22 30 q 33 55 4 39 q 67 78 63 70 q 109 163 85 106 l 370 763 q 391 792 376 774 q 420 809 406 809 q 441 800 435 809 l 693 181 q 710 132 704 152 q 725 94 717 113 q 748 64 733 74 q 778 48 763 54 q 822 41 798 41 q 827 15 826 31 q 824 -6 828 -2 q 644 6 713 6 q 476 -6 576 6 q 472 20 472 0 q 476 41 472 41 q 548 63 522 41 q 559 78 559 70 q 532 157 559 96 q 487 269 506 219 q 478 274 487 269 q 413 275 443 276 q 361 274 383 274 l 233 274 q 224 269 230 274 q 207 231 215 250 q 193 195 200 213 q 178 159 185 178 q 154 81 154 93 q 168 62 154 70 q 198 48 181 54 q 248 41 228 41 q 254 16 254 33 q 250 -6 254 -2 m 252 339 q 319 333 252 333 l 404 333 q 454 335 424 333 l 456 339 q 457 343 456 341 l 356 581 l 252 343 l 252 339 z "},"":{"ha":791,"x_min":44,"x_max":781,"o":"m 419 -74 q 456 -2 443 -33 l 496 -2 q 491 -12 494 -7 q 480 -31 487 -17 l 509 -30 q 555 -48 535 -30 q 574 -103 574 -67 q 541 -171 574 -139 q 448 -204 507 -204 q 383 -181 406 -204 q 380 -160 380 -174 q 383 -146 380 -146 q 406 -158 387 -150 q 451 -167 424 -167 q 491 -155 478 -167 q 504 -128 504 -143 q 469 -85 504 -85 q 435 -93 454 -85 q 425 -86 431 -93 q 419 -74 419 -80 m 739 250 q 781 235 761 250 q 769 163 781 222 q 731 48 743 52 q 612 9 674 28 q 464 -9 550 -9 q 302 21 378 -9 q 169 106 226 52 q 44 394 44 222 q 169 693 44 569 q 467 815 291 815 q 720 793 613 815 q 729 759 722 787 q 743 700 735 731 q 763 607 763 613 q 753 595 763 602 q 731 589 743 589 q 713 594 719 589 q 665 687 700 650 q 478 763 593 763 q 293 661 357 763 q 239 430 239 572 q 302 167 239 274 q 502 44 372 44 q 689 141 628 44 q 728 216 717 185 q 739 250 739 246 z "},"":{"ha":735,"x_min":41,"x_max":707,"o":"m 295 889 q 292 889 295 889 q 283 899 289 889 q 278 913 278 909 q 293 933 278 917 q 330 972 307 950 q 433 1061 407 1050 q 447 1063 439 1063 q 468 1060 456 1063 q 491 1052 480 1057 q 517 1019 517 1039 q 484 976 517 998 q 412 934 452 954 q 337 902 372 915 q 295 889 302 889 m 652 631 q 631 624 644 624 q 606 635 609 624 q 557 721 585 685 q 472 757 530 757 l 372 757 q 332 756 350 757 q 311 743 315 754 q 304 669 304 728 l 304 450 q 357 437 304 437 l 422 437 q 491 450 474 437 q 515 480 507 463 q 530 522 522 496 q 545 531 530 531 q 567 526 561 531 l 567 291 q 545 285 561 285 q 528 296 530 285 q 486 369 511 359 q 382 380 461 380 q 304 361 304 380 l 304 157 q 315 76 304 104 q 394 52 326 52 l 474 52 q 586 90 548 52 q 654 207 624 128 q 667 215 656 215 q 707 207 700 215 q 689 155 698 183 q 670 98 680 126 q 641 -2 648 41 q 211 -2 426 -2 l 44 -4 q 41 19 41 2 q 44 41 41 35 q 76 44 52 41 q 124 63 117 50 q 133 178 133 85 l 133 628 q 124 743 133 717 q 44 761 111 761 q 41 785 41 769 q 44 807 41 802 q 133 804 87 804 l 220 804 l 617 811 q 652 631 630 728 z "},"":{"ha":907,"x_min":31,"x_max":902,"o":"m 492 1006 q 524 988 492 1006 q 584 969 556 969 q 631 978 613 969 q 663 998 650 987 q 683 1019 676 1009 q 695 1031 691 1030 q 703 1025 700 1031 q 706 1009 706 1019 q 681 956 706 985 q 569 896 633 896 q 508 906 533 896 q 457 931 483 917 q 407 959 431 946 q 357 972 383 972 q 283 943 319 972 q 263 920 270 931 q 250 907 256 909 q 244 915 246 907 q 241 931 241 922 q 265 985 241 956 q 370 1044 313 1044 q 492 1006 428 1044 m 44 763 q 39 784 39 763 q 43 809 39 806 q 106 804 72 807 q 188 800 139 800 q 315 809 237 800 q 589 448 348 733 q 706 304 650 374 q 709 324 709 309 l 709 581 q 696 739 709 687 q 596 765 683 765 q 594 783 594 765 q 596 811 593 802 q 671 804 639 807 q 746 800 704 800 q 900 811 789 800 q 902 789 902 806 q 896 763 902 772 q 825 754 850 763 q 796 737 800 744 q 791 711 793 730 q 787 670 789 693 q 783 585 783 626 l 783 170 q 789 -2 783 70 q 774 -6 785 -6 l 757 -6 q 720 22 739 -6 l 222 635 l 222 193 q 235 74 222 119 q 317 43 244 52 q 335 41 331 41 q 341 16 341 31 q 339 -6 341 0 q 185 6 228 6 q 110 2 143 6 q 35 -6 78 -2 q 32 22 31 4 q 35 41 33 41 q 102 52 74 41 q 135 74 130 63 q 148 196 148 104 l 148 628 q 111 748 148 733 q 44 763 78 763 z "},"":{"ha":622,"x_min":63,"x_max":513,"o":"m 474 74 q 459 74 467 67 l 289 244 l 115 70 q 85 91 104 65 q 63 130 67 117 l 233 300 l 63 469 q 78 500 65 483 q 117 526 106 537 l 289 354 l 461 528 q 483 522 470 537 q 513 469 507 498 l 343 300 l 513 131 q 474 74 509 113 z "},"":{"ha":587,"x_min":54,"x_max":641,"o":"m 426 528 q 403 472 426 496 q 345 448 380 448 q 288 471 311 448 q 265 529 265 494 q 288 586 265 563 q 345 609 311 609 q 403 584 380 609 q 426 528 426 559 m 426 76 q 403 20 426 44 q 345 -4 380 -4 q 288 20 311 -4 q 265 78 265 44 q 288 134 265 111 q 345 157 311 157 q 403 132 380 157 q 426 76 426 107 m 59 272 q 54 282 54 272 q 56 306 54 293 q 78 343 63 337 l 628 343 q 635 320 641 343 q 611 272 624 276 l 59 272 z "},"":{"ha":37,"x_min":0,"x_max":0,"o":""},"":{"ha":30,"x_min":0,"x_max":0,"o":""},"":{"ha":1480,"x_min":65,"x_max":1387,"o":"m 765 1372 l 859 1276 l 765 1187 l 674 1285 l 765 1372 m 548 1228 q 744 1119 628 1119 q 937 1228 859 1119 l 1057 1126 q 817 998 941 998 q 506 1196 635 998 l 548 1228 m 978 746 q 1026 628 1026 720 l 1026 469 q 1126 306 1026 306 q 1267 384 1209 306 q 1324 581 1324 463 q 1272 772 1324 700 q 1141 844 1220 844 q 978 746 1033 844 m 113 648 q 277 254 159 400 q 552 107 394 107 q 695 168 637 107 q 754 319 754 228 q 624 609 754 472 q 465 472 552 511 l 402 619 q 611 819 611 680 q 483 920 611 920 q 287 867 391 920 l 226 1013 q 404 1054 322 1054 q 602 978 528 1054 q 676 772 676 902 q 656 674 676 728 l 681 648 q 907 763 796 763 l 919 763 q 937 757 926 763 q 1156 978 974 978 q 1387 594 1387 978 q 1316 288 1387 400 q 1119 176 1244 176 q 998 231 1035 176 q 961 419 961 287 l 961 483 q 896 604 961 604 q 757 546 837 604 q 872 260 872 393 q 797 60 872 128 q 593 -7 722 -7 q 239 174 396 -7 q 119 378 159 265 q 65 635 78 491 l 113 648 z "},"":{"ha":207,"x_min":-6,"x_max":115,"o":"m 115 0 l -6 0 l -6 552 l 115 552 l 115 0 z "},"":{"ha":459,"x_min":-6,"x_max":367,"o":"m 367 0 l 243 0 l 243 552 l 367 552 l 367 0 m 115 0 l -6 0 l -6 552 l 115 552 l 115 0 z "},"":{"ha":504,"x_min":28,"x_max":383,"o":"m 326 91 q 352 81 337 91 q 371 54 367 72 q 365 19 376 35 q 319 0 354 2 q 108 77 189 0 q 28 292 28 154 q 107 519 28 430 q 311 602 189 606 q 366 585 348 598 q 380 557 383 572 q 348 543 376 543 q 167 463 233 543 q 120 313 120 406 q 182 158 120 220 q 326 91 244 96 z "},"":{"ha":733,"x_min":-6,"x_max":641,"o":"m 641 296 q 614 173 641 228 q 541 80 587 119 q 306 0 448 0 q 79 75 163 0 q -6 294 -6 150 q 89 511 -6 417 q 311 600 178 600 q 537 515 433 600 q 641 296 641 426 m 519 270 q 539 352 539 304 q 519 436 539 400 q 467 496 500 472 q 313 546 400 546 q 159 494 222 546 q 81 354 81 433 q 148 219 81 267 q 300 178 209 178 q 519 270 461 178 z "},"":{"ha":357,"x_min":-2,"x_max":265,"o":"m 131 601 q 155 601 131 601 q 222 570 180 602 q 265 478 265 539 q 222 385 265 417 q 131 351 180 354 q 40 380 81 348 q -2 474 -2 411 q 40 569 -2 537 q 131 601 81 600 m 128 252 q 228 218 191 252 q 265 127 265 183 q 229 36 265 70 q 133 2 193 2 q 37 36 74 2 q 0 125 0 70 q 32 216 0 180 q 128 252 65 252 m 126 404 q 141 404 126 404 q 180 419 156 404 q 204 466 204 433 q 180 515 204 498 q 126 531 156 531 q 72 515 96 531 q 48 469 48 498 q 72 421 48 439 q 126 404 96 404 m 209 135 q 185 182 209 167 q 131 198 161 198 q 78 181 102 198 q 54 132 54 163 q 78 86 54 102 q 131 70 102 70 q 185 87 161 70 q 209 135 209 104 z "},"":{"ha":1009,"x_min":0,"x_max":917,"o":"m 917 369 q 776 80 917 174 q 459 0 652 0 q 144 80 267 0 q 0 339 0 174 q 72 545 0 459 q 267 631 144 631 q 379 601 324 631 q 433 509 433 570 q 400 414 433 448 q 326 370 367 380 q 191 396 244 354 q 148 474 156 422 q 161 544 143 522 q 78 394 74 493 q 118 280 80 335 q 225 200 156 224 q 480 176 294 176 q 813 289 704 176 q 854 393 854 330 q 820 490 854 456 q 746 531 787 524 q 673 518 706 539 q 641 443 641 496 q 696 341 641 393 q 709 331 707 331 l 709 287 l 276 287 q 233 315 233 287 q 276 343 233 343 l 609 343 q 527 404 554 372 q 500 480 500 435 q 551 591 500 554 q 667 628 602 628 q 776 607 731 628 q 852 552 820 587 q 917 369 917 476 m 258 430 q 270 431 258 430 q 301 449 281 431 q 320 504 320 467 q 301 559 320 541 q 258 575 281 578 q 217 552 235 572 q 198 495 198 531 q 217 444 198 459 q 258 430 235 428 z "},"":{"ha":1007,"x_min":0,"x_max":915,"o":"m 913 270 q 864 143 907 194 q 756 59 820 91 q 487 0 631 0 q 44 181 163 0 q 0 352 0 250 q 81 544 0 465 q 270 633 157 622 q 381 607 333 637 q 441 504 441 572 q 403 412 443 448 q 307 368 363 376 q 207 389 252 359 q 161 546 133 439 q 101 482 128 522 q 74 385 74 443 q 118 284 74 328 q 222 217 161 241 q 459 176 324 176 q 757 244 657 176 q 804 322 800 272 q 742 294 778 298 q 661 287 706 291 l 270 287 q 248 295 256 287 q 241 314 241 304 q 249 333 241 324 q 274 343 257 343 l 644 337 q 680 338 659 337 q 724 337 700 339 q 600 385 644 344 q 556 489 556 426 q 607 600 559 565 q 717 635 656 635 q 867 539 822 635 q 881 449 885 496 q 848 372 876 402 q 898 331 881 363 q 913 270 915 300 m 268 427 q 277 426 268 427 q 308 446 287 426 q 329 506 330 467 q 309 561 328 546 q 269 577 291 576 q 224 556 246 578 q 205 499 202 535 q 228 445 207 463 q 268 427 248 428 m 813 489 q 792 544 811 515 q 741 572 772 572 q 701 556 728 572 q 673 491 674 539 q 691 419 672 443 q 735 394 709 394 q 789 414 761 393 q 813 489 817 435 z "},"":{"ha":830,"x_min":0,"x_max":737,"o":"m 28 380 q 0 441 0 380 q 57 565 0 511 q 178 621 113 617 q 293 595 243 626 q 363 517 343 565 q 444 603 391 580 q 546 620 498 626 q 686 547 641 613 q 731 386 731 481 q 650 163 731 291 q 737 11 737 56 q 721 -23 737 -9 q 685 -38 706 -37 q 646 -27 665 -39 q 624 15 628 -15 q 602 119 624 17 q 281 0 450 0 q 121 47 180 0 q 55 149 63 94 q 70 240 46 204 q 135 298 94 276 q 326 337 207 337 q 572 243 444 337 q 638 319 620 276 q 646 398 656 361 q 606 461 637 435 q 524 487 576 487 q 406 444 454 487 q 381 399 385 428 q 356 371 376 370 q 335 404 335 372 q 309 456 335 435 q 248 483 283 476 q 111 474 174 498 q 54 409 44 448 q 47 390 56 400 q 28 380 39 380 m 522 209 q 306 289 431 289 q 172 259 226 289 q 152 233 152 248 q 189 192 150 207 q 304 176 228 176 q 522 209 435 176 z "},"":{"ha":1187,"x_min":-6,"x_max":1094,"o":"m 126 411 q 330 587 194 539 q 264 622 289 607 q 222 657 239 637 q 212 731 185 691 q 283 770 239 770 q 367 713 320 770 q 406 665 387 689 q 439 624 424 641 q 573 744 515 693 q 676 840 631 794 q 750 899 720 885 q 828 891 780 913 q 865 848 857 876 q 826 789 872 820 q 687 698 754 737 q 520 596 598 644 q 650 525 585 578 q 741 409 715 472 l 981 409 q 1012 474 1019 450 q 981 506 1006 498 q 929 503 957 513 q 893 465 900 493 q 855 447 876 439 q 837 481 833 456 q 881 559 844 531 q 960 587 917 587 q 1035 570 1004 587 q 1078 522 1067 554 q 1080 444 1094 487 q 1033 376 1065 402 q 1082 307 1074 348 q 1079 233 1091 267 q 1035 176 1067 200 q 963 152 1004 152 q 895 171 922 152 q 859 219 869 191 q 885 343 833 285 l 756 343 q 669 85 780 187 q 556 21 620 43 q 424 0 493 0 q 292 29 356 0 q 183 106 228 57 q 119 217 139 154 q 111 344 98 280 l 46 344 q -6 378 -6 344 q 48 411 -6 411 l 126 411 m 656 409 q 568 517 628 480 q 431 554 507 554 q 241 470 315 554 q 207 409 217 444 l 656 409 m 957 209 q 968 209 957 209 q 994 222 978 209 q 1011 261 1011 235 q 1002 315 1011 287 q 959 343 993 343 q 914 312 926 343 q 902 258 902 281 q 919 222 902 235 q 957 209 937 209 m 200 343 q 281 215 204 261 q 431 178 341 178 q 574 219 504 178 q 661 343 654 265 l 200 343 z "},"":{"ha":981,"x_min":2,"x_max":889,"o":"m 843 487 q 878 477 867 487 q 889 455 889 467 q 877 433 889 443 q 843 424 865 424 l 180 424 q 152 267 135 343 q 190 205 161 231 q 272 176 219 178 q 369 210 330 170 q 426 320 407 250 l 467 320 q 522 207 474 248 q 643 167 570 167 q 789 248 748 167 q 715 199 763 211 q 625 201 667 187 q 569 256 583 215 q 572 337 556 298 q 628 397 587 376 q 722 404 669 419 q 843 241 846 367 q 781 66 841 131 q 611 0 720 0 q 513 20 563 0 q 441 91 463 41 q 361 18 415 35 q 270 0 307 0 q 111 69 169 0 q 55 246 54 139 q 104 424 56 354 l 43 424 q 12 434 22 424 q 4 456 2 444 q 16 477 6 467 q 48 487 26 487 l 152 487 q 415 611 287 607 q 406 659 415 620 q 386 763 387 741 q 406 799 385 785 q 454 812 428 813 q 498 796 480 811 q 511 748 517 781 q 497 682 506 715 q 481 609 489 650 q 648 556 554 604 q 667 519 676 541 q 624 513 657 498 q 444 556 515 556 q 233 487 337 556 l 843 487 m 697 346 q 685 346 697 346 q 653 333 672 346 q 634 295 633 320 q 656 258 635 270 q 699 247 676 246 q 743 260 722 248 q 763 296 763 272 q 743 333 763 320 q 697 346 722 346 z "},"":{"ha":1283,"x_min":2,"x_max":1230,"o":"m 491 624 l 472 769 q 494 816 472 802 q 544 828 517 830 q 592 810 570 826 q 606 764 613 794 q 586 707 600 733 q 541 617 572 681 q 649 582 606 600 q 693 535 693 565 q 680 511 693 517 q 640 523 667 506 q 556 556 613 541 q 465 572 498 572 q 402 567 431 572 q 343 550 372 561 q 246 498 267 522 l 1081 498 q 1111 523 1100 515 q 1116 555 1122 531 q 1093 589 1109 578 q 1056 598 1076 600 q 996 563 1011 594 q 962 534 985 537 q 939 565 939 531 q 976 654 939 624 q 1069 681 1013 683 q 1161 637 1126 680 q 1133 465 1228 552 q 1191 367 1191 420 q 1153 277 1191 313 q 1067 241 1115 241 q 988 262 1019 241 q 947 315 957 283 q 946 381 937 346 q 989 435 956 415 l 185 435 q 152 313 152 391 q 195 219 152 263 q 291 174 239 174 q 371 198 343 174 q 416 249 400 222 q 440 300 431 276 q 459 324 448 324 q 481 302 474 324 q 504 251 487 280 q 554 198 520 222 q 646 170 587 174 q 811 248 763 167 q 703 194 756 194 q 614 222 650 194 q 577 303 578 250 q 617 385 576 356 q 709 415 657 415 q 823 359 780 411 q 867 241 867 307 q 806 66 867 131 q 643 0 746 0 q 456 94 500 0 q 272 0 376 0 q 111 74 172 0 q 56 244 56 141 q 107 435 56 346 l 56 435 q 2 465 2 435 q 57 500 2 500 l 163 500 q 369 617 257 600 q 311 765 331 691 q 321 809 300 793 q 369 827 343 826 q 418 812 394 828 q 439 761 441 796 q 429 694 433 728 q 419 626 424 659 q 491 624 443 633 m 1010 348 q 1010 338 1010 348 q 1019 312 1009 328 q 1058 296 1028 296 q 1102 316 1089 296 q 1112 356 1115 335 q 1093 397 1109 378 q 1046 417 1076 417 q 1022 388 1033 407 q 1010 348 1011 369 m 726 255 q 740 257 726 255 q 775 273 754 259 q 796 300 796 287 q 774 330 796 313 q 725 353 752 346 q 677 349 698 359 q 656 303 656 339 q 677 258 656 267 q 726 255 698 250 z "},"":{"ha":1741,"x_min":0,"x_max":1648,"o":"m 569 0 q 385 102 426 0 q 306 29 359 57 q 204 0 252 0 q 61 48 122 0 q 0 180 0 96 q 74 319 0 274 q 149 349 107 337 q 231 372 191 361 q 300 415 281 391 q 309 461 319 439 q 270 499 300 483 q 197 515 241 515 q 108 490 154 515 q 63 415 63 465 q 53 393 63 402 q 30 385 43 383 q 0 452 0 391 q 60 572 0 535 q 196 609 120 609 q 322 563 272 609 q 370 480 361 531 q 351 392 380 428 q 278 339 322 356 q 190 309 233 322 q 115 281 146 296 q 87 241 83 267 q 129 185 89 200 q 194 170 169 170 q 305 206 256 170 q 363 296 354 241 q 390 320 369 322 q 417 298 411 319 q 463 206 428 243 q 552 170 498 170 q 689 241 643 170 q 715 374 726 306 q 637 487 702 450 q 515 507 615 498 q 466 530 487 513 q 450 580 444 546 q 473 605 456 593 q 533 611 491 617 q 665 563 604 604 q 750 466 720 528 q 787 334 780 404 q 778 196 794 265 q 730 85 761 128 q 569 0 663 0 m 1566 510 q 1586 488 1566 510 q 1627 405 1606 465 q 1648 285 1648 344 q 1634 177 1648 226 q 1593 89 1620 128 q 1420 0 1528 0 q 1284 42 1341 0 q 1202 152 1228 83 q 1119 42 1181 83 q 998 0 1057 0 q 895 19 939 0 q 819 71 852 39 q 766 141 787 104 q 744 228 744 178 l 756 276 q 787 330 769 302 q 789 307 789 319 l 789 270 q 848 193 796 217 q 950 170 902 170 q 1032 184 998 170 q 1093 219 1067 198 q 1154 337 1154 270 q 1127 414 1154 380 q 1063 470 1100 448 q 906 504 987 513 q 854 550 872 494 q 850 578 850 561 q 910 611 850 611 q 1031 585 970 611 q 1131 517 1093 559 q 1184 435 1170 474 q 1206 359 1198 396 q 1221 289 1215 322 q 1244 230 1228 256 q 1394 170 1285 170 q 1524 219 1467 170 q 1581 337 1581 267 q 1556 414 1581 380 q 1493 470 1531 448 q 1333 504 1417 513 q 1291 523 1306 498 q 1276 569 1276 548 q 1344 611 1276 611 q 1469 583 1413 611 q 1566 510 1526 556 z "},"":{"ha":1098,"x_min":0,"x_max":1006,"o":"m 28 380 q 0 441 0 380 q 57 565 0 511 q 178 621 113 617 q 293 595 243 626 q 363 517 343 565 q 444 603 391 580 q 546 620 498 626 q 686 547 641 613 q 731 396 731 481 q 690 256 731 311 q 594 156 648 200 q 485 68 539 113 q 415 -28 431 22 q 408 -120 398 -78 q 454 -194 419 -163 q 529 -237 489 -224 q 646 -248 569 -250 q 815 -225 761 -250 q 897 -144 869 -200 q 927 -19 926 -89 q 902 98 928 50 q 874 128 893 117 q 831 133 856 139 q 794 155 806 128 q 786 199 781 181 q 814 219 791 217 q 856 215 837 220 q 930 167 898 204 q 992 22 978 107 q 990 -133 1006 -63 q 940 -257 974 -204 q 869 -340 906 -311 q 770 -389 831 -369 q 616 -406 709 -409 q 461 -381 522 -404 q 359 -324 400 -359 q 261 -126 257 -239 q 299 4 265 -57 q 383 107 333 65 q 583 257 459 170 q 646 396 667 317 q 606 461 637 435 q 524 487 576 487 q 406 444 454 487 q 381 399 385 428 q 356 371 376 370 q 335 404 335 372 q 309 456 335 435 q 248 483 283 476 q 111 474 174 498 q 54 409 44 448 q 47 390 56 400 q 28 380 39 380 z "},"":{"ha":880,"x_min":0,"x_max":798,"o":"m 339 889 q 683 715 539 889 q 780 450 763 619 q 737 152 796 272 q 655 47 707 89 q 524 2 602 6 q 488 1 513 2 q 435 7 463 0 q 337 91 367 26 q 250 15 307 35 q 137 6 193 -6 q 41 62 81 19 q 0 179 0 106 q 40 295 0 252 q 135 352 80 339 q 267 328 209 363 q 305 294 291 313 q 331 257 319 276 q 359 220 343 239 q 418 182 376 202 q 519 170 459 163 q 627 220 578 178 q 696 318 676 263 q 715 433 717 372 q 633 656 715 550 q 502 763 578 724 q 354 789 426 802 q 295 787 328 785 q 257 830 263 789 q 339 889 250 889 m 93 233 q 94 222 93 233 q 118 194 96 211 q 181 176 139 176 q 244 197 222 176 q 261 243 265 219 q 232 285 257 267 q 165 299 207 304 q 106 275 122 294 q 93 233 89 256 z "},"":{"ha":880,"x_min":0,"x_max":798,"o":"m 339 889 q 683 715 539 889 q 780 450 763 619 q 737 152 796 272 q 655 47 707 89 q 524 2 602 6 q 488 1 513 2 q 435 7 463 0 q 337 91 367 26 q 250 15 307 35 q 137 6 193 -6 q 41 62 81 19 q 0 179 0 106 q 40 295 0 252 q 135 352 80 339 q 267 328 209 363 q 305 294 291 313 q 331 257 319 276 q 359 220 343 239 q 418 182 376 202 q 519 170 459 163 q 627 220 578 178 q 696 318 676 263 q 715 433 717 372 q 633 656 715 550 q 502 763 578 724 q 354 789 426 802 q 295 787 328 785 q 257 830 263 789 q 339 889 250 889 m 93 233 q 94 222 93 233 q 118 194 96 211 q 181 176 139 176 q 244 197 222 176 q 261 243 265 219 q 232 285 257 267 q 165 299 207 304 q 106 275 122 294 q 93 233 89 256 m 246 1043 q 294 1027 276 1043 q 312 992 311 1011 q 301 953 313 972 q 258 929 289 933 q 210 907 228 924 q 183 867 193 891 q 189 741 156 789 q 194 723 194 733 q 184 711 194 713 q 161 720 174 709 q 112 796 128 741 q 108 905 96 852 q 156 1000 120 957 q 246 1043 191 1043 z "},"":{"ha":887,"x_min":0,"x_max":794,"o":"m 383 541 q 565 624 439 624 q 737 537 672 624 q 794 379 794 457 q 782 234 794 300 q 741 117 770 169 q 530 0 678 0 q 419 24 476 0 q 339 98 361 48 q 279 29 322 57 q 185 0 235 0 q 51 52 102 0 q 0 181 0 104 q 51 304 0 259 q 160 348 102 348 q 253 338 219 348 q 313 304 287 328 q 356 257 343 280 q 381 219 369 235 q 474 176 413 181 q 717 270 669 157 q 730 333 730 300 q 683 452 730 413 q 574 493 643 491 q 426 444 472 498 q 411 411 415 431 q 402 383 407 391 q 381 376 396 376 q 352 414 359 376 q 302 474 344 452 q 210 497 259 496 q 118 478 161 498 q 65 417 74 457 q 25 381 50 376 q 0 426 0 385 q 61 570 0 513 q 209 628 122 628 q 304 603 252 628 q 383 541 356 578 m 83 234 q 83 219 83 234 q 107 187 83 204 q 173 170 131 170 q 241 191 215 170 q 269 234 267 211 q 246 278 270 257 q 180 298 222 298 q 110 281 137 298 q 83 234 83 265 z "},"":{"ha":894,"x_min":0,"x_max":807,"o":"m 669 354 q 694 369 680 370 q 732 349 709 367 q 774 297 756 331 q 796 222 793 263 q 761 78 807 141 q 594 0 700 6 q 462 27 507 0 q 404 94 417 54 q 327 23 383 46 q 217 0 270 0 q 64 48 128 0 q 0 193 0 96 q 163 367 0 322 q 297 414 267 396 q 328 462 328 431 q 288 514 328 493 q 201 536 248 535 q 116 519 154 537 q 78 463 78 500 q 72 426 78 444 q 33 407 67 407 q 0 456 0 407 q 18 537 0 506 q 67 589 35 569 q 200 634 124 631 q 328 599 276 637 q 392 513 380 561 q 383 420 404 465 q 244 333 357 363 q 117 278 159 311 q 94 237 91 259 q 116 201 96 215 q 163 181 135 187 q 259 174 224 167 q 337 200 313 176 q 373 250 361 224 q 391 299 385 276 q 420 325 396 322 q 452 305 444 328 q 467 252 459 281 q 493 196 474 222 q 548 170 511 170 q 672 187 637 170 q 711 254 707 211 q 691 307 715 289 q 669 354 657 328 z "},"":{"ha":894,"x_min":0,"x_max":807,"o":"m 669 354 q 694 369 680 370 q 732 349 709 367 q 774 297 756 331 q 796 222 793 263 q 761 78 807 141 q 594 0 700 6 q 462 27 507 0 q 404 94 417 54 q 327 23 383 46 q 217 0 270 0 q 64 48 128 0 q 0 193 0 96 q 163 367 0 322 q 297 414 267 396 q 328 462 328 431 q 288 514 328 493 q 201 536 248 535 q 116 519 154 537 q 78 463 78 500 q 72 426 78 444 q 33 407 67 407 q 0 456 0 407 q 18 537 0 506 q 67 589 35 569 q 200 634 124 631 q 328 599 276 637 q 392 513 380 561 q 383 420 404 465 q 244 333 357 363 q 117 278 159 311 q 94 237 91 259 q 116 201 96 215 q 163 181 135 187 q 259 174 224 167 q 337 200 313 176 q 373 250 361 224 q 391 299 385 276 q 420 325 396 322 q 452 305 444 328 q 467 252 459 281 q 493 196 474 222 q 548 170 511 170 q 672 187 637 170 q 711 254 707 211 q 691 307 715 289 q 669 354 657 328 m 104 713 q 144 794 104 765 q 233 824 185 824 q 312 797 281 824 q 352 730 343 770 q 331 656 361 657 q 311 672 311 650 q 280 722 307 706 q 226 733 252 739 q 181 695 180 730 q 202 633 183 661 q 150 624 174 624 q 120 655 137 624 q 104 713 104 685 z "},"":{"ha":935,"x_min":0,"x_max":861,"o":"m 669 354 q 694 369 680 370 q 732 349 709 367 q 774 297 756 331 q 796 222 793 263 q 761 78 807 141 q 594 0 700 6 q 462 27 507 0 q 404 94 417 54 q 327 23 383 46 q 217 0 270 0 q 64 48 128 0 q 0 193 0 96 q 163 367 0 322 q 297 414 267 396 q 328 462 328 431 q 288 514 328 493 q 201 536 248 535 q 116 519 154 537 q 78 463 78 500 q 72 426 78 444 q 33 407 67 407 q 0 456 0 407 q 18 537 0 506 q 67 589 35 569 q 200 634 124 631 q 328 599 276 637 q 392 513 380 561 q 383 420 404 465 q 244 333 357 363 q 117 278 159 311 q 94 237 91 259 q 116 201 96 215 q 163 181 135 187 q 259 174 224 167 q 337 200 313 176 q 373 250 361 224 q 391 299 385 276 q 420 325 396 322 q 452 305 444 328 q 467 252 459 281 q 493 196 474 222 q 548 170 511 170 q 672 187 637 170 q 711 254 707 211 q 691 307 715 289 q 669 354 657 328 m 680 896 q 822 815 776 896 q 828 667 861 743 q 707 589 793 585 q 609 641 643 589 q 604 752 580 687 l 400 752 q 415 667 426 717 q 346 600 406 611 q 78 587 280 587 q 50 610 50 587 q 78 635 50 633 l 256 635 q 329 653 311 637 q 346 704 346 669 q 326 734 346 717 q 256 752 306 752 l 24 752 q 8 754 17 752 q 0 769 0 756 l 0 878 q 7 894 0 891 q 26 896 15 896 l 680 896 m 652 704 q 674 663 656 676 q 715 651 693 650 q 755 668 737 652 q 771 710 772 683 q 751 747 770 737 q 710 757 731 757 q 670 744 689 757 q 652 704 652 730 z "},"":{"ha":641,"x_min":-6,"x_max":713,"o":"m 635 741 q 455 624 546 683 q 270 520 363 565 q 213 541 250 528 q 139 574 176 554 q 43 672 43 624 q 66 723 43 700 q 122 741 89 746 q 211 681 169 737 q 244 636 228 659 q 274 596 259 613 q 411 722 372 685 q 569 869 483 794 q 634 896 602 900 q 683 869 667 893 q 693 799 713 830 q 635 741 672 769 m 445 318 q 468 309 445 318 q 521 270 491 300 q 552 186 552 241 q 525 97 552 131 q 457 41 498 63 q 280 0 383 0 q 67 56 139 0 q 6 259 -6 113 l 54 259 q 256 174 59 174 q 452 235 452 174 q 410 270 452 257 q 312 292 369 283 q 200 307 256 300 q 115 324 144 315 q 36 369 67 343 q 6 441 6 394 q 34 517 6 487 q 104 565 63 546 q 268 600 183 600 q 431 565 352 600 q 539 450 520 522 q 537 421 544 431 q 519 409 530 411 q 474 428 489 406 q 372 487 439 469 q 240 503 306 506 q 126 480 174 500 q 78 424 78 459 q 132 381 78 396 q 243 356 187 367 q 349 341 298 346 q 445 318 400 335 z "},"":{"ha":894,"x_min":0,"x_max":802,"o":"m 537 609 q 681 553 617 602 q 771 441 746 504 q 799 305 796 378 q 780 165 802 231 q 709 50 757 98 q 596 0 661 2 q 481 20 531 -2 q 380 102 431 43 q 293 33 359 69 q 178 0 228 0 q 46 51 91 6 q 2 152 2 96 q 42 252 0 207 q 170 291 83 296 q 367 231 267 283 q 405 356 407 294 q 369 467 402 419 q 280 539 337 515 q 152 548 222 563 q 246 522 200 559 q 294 432 294 485 q 247 347 294 380 q 144 315 200 315 q 44 346 87 315 q 2 444 2 378 q 52 553 2 511 q 167 603 102 594 q 293 594 231 611 q 394 530 354 576 q 469 370 465 459 q 439 198 472 281 q 678 211 596 135 q 723 289 709 239 q 726 382 737 339 q 687 458 715 426 q 619 498 659 491 q 535 504 580 506 q 474 565 483 500 q 537 609 469 613 m 444 -104 q 420 -151 444 -135 q 369 -167 396 -167 q 319 -151 343 -167 q 294 -104 294 -135 q 376 46 294 -54 q 444 -104 444 -46 m 116 379 q 126 378 116 379 q 154 393 137 378 q 170 436 170 407 q 154 479 170 465 q 116 494 137 493 q 77 481 94 496 q 59 438 59 467 q 77 394 59 409 q 116 379 94 380 m 91 207 q 185 170 91 170 q 258 177 222 170 q 307 193 294 183 q 250 226 294 207 q 155 246 219 246 q 91 207 91 246 z "},"":{"ha":706,"x_min":-2,"x_max":752,"o":"m 674 793 q 307 569 465 648 q 252 589 289 576 q 178 622 215 602 q 81 722 81 670 q 104 772 81 748 q 209 770 148 817 q 270 703 243 744 q 313 644 298 661 q 389 716 354 683 q 456 780 424 748 q 607 917 502 824 q 673 945 641 950 q 722 917 706 941 q 731 847 752 878 q 674 793 709 817 m 613 226 q 598 81 613 130 q 566 17 583 33 q 514 -1 548 0 q 452 15 480 -2 q 413 63 424 31 q 428 139 402 94 q 491 343 491 250 q 393 548 491 494 q 308 569 359 569 q 222 550 257 569 q 167 502 187 531 q 130 344 130 448 q 204 135 130 241 q 211 44 235 87 q 128 0 183 0 q 64 21 94 0 q 20 87 33 43 q 3 185 7 131 q 4 293 -2 239 q 65 481 17 407 q 311 617 156 617 q 539 504 448 617 q 613 226 613 411 z "},"":{"ha":1270,"x_min":0,"x_max":1178,"o":"m 593 776 q 412 658 504 717 q 226 554 320 600 q 169 574 207 561 q 94 607 131 587 q 0 706 0 656 q 23 756 0 733 q 76 776 46 780 q 128 756 106 772 q 169 716 150 739 q 203 670 187 693 q 233 631 219 648 q 348 737 291 681 q 524 902 417 802 q 593 930 561 933 q 641 902 624 926 q 648 833 669 865 q 593 776 628 802 m 394 -104 q 370 -151 394 -135 q 319 -167 346 -167 q 267 -151 291 -167 q 243 -104 243 -135 q 328 46 243 -48 q 394 -104 394 -43 m 665 507 q 744 291 744 415 q 683 89 744 167 q 596 22 648 43 q 492 5 544 2 q 392 31 439 7 q 320 96 344 56 q 262 24 296 48 q 165 1 228 0 q 51 55 102 2 q 2 187 0 107 q 56 317 7 274 q 159 356 104 359 q 339 235 278 350 q 415 182 361 198 q 526 177 469 167 q 628 229 583 187 q 672 347 672 270 q 610 470 672 424 q 467 511 548 517 q 415 522 433 507 q 394 560 396 537 q 406 597 393 583 q 469 607 420 611 q 665 507 594 598 m 255 235 q 253 247 255 235 q 228 279 252 259 q 165 298 204 298 q 104 279 126 298 q 80 235 81 259 q 96 193 78 211 q 163 174 115 174 q 234 193 211 174 q 255 235 257 211 m 1175 299 q 1176 287 1175 299 q 1176 236 1178 274 q 1154 141 1174 198 q 1071 42 1133 83 q 950 0 1009 0 q 847 19 891 0 q 771 71 804 39 q 718 141 739 104 q 696 228 696 178 l 707 276 q 739 330 720 302 q 741 307 741 319 l 744 281 q 768 226 748 250 q 811 191 787 202 q 903 170 856 170 q 984 184 950 170 q 1044 219 1019 198 q 1106 337 1106 270 q 1019 474 1106 422 q 857 513 941 522 q 815 533 837 511 q 802 570 802 546 q 816 603 802 594 q 876 611 830 611 q 983 585 922 611 q 1083 517 1044 559 q 1139 435 1122 474 q 1164 360 1156 396 q 1175 299 1172 324 z "},"":{"ha":861,"x_min":0,"x_max":769,"o":"m 730 307 q 767 206 765 259 q 745 106 769 154 q 675 30 722 59 q 565 0 628 0 q 387 94 448 0 q 207 0 330 0 q 57 48 115 0 q 0 187 0 96 q 50 304 0 269 q 106 330 74 320 q 181 355 137 339 q 269 393 224 370 q 313 441 313 415 q 274 495 313 480 q 204 511 235 511 q 67 426 83 511 q 33 385 67 385 q 0 454 0 385 q 57 563 0 522 q 193 604 115 604 q 376 491 319 604 l 493 491 q 433 612 433 576 q 457 665 433 648 q 510 682 481 681 q 563 667 539 683 q 587 622 587 650 q 571 565 587 594 q 530 491 556 535 l 624 491 q 652 446 652 491 q 624 402 652 402 l 363 402 q 248 328 339 363 q 113 267 139 285 q 86 230 89 250 q 102 193 83 209 q 154 172 115 178 q 234 173 193 167 q 314 203 276 180 q 363 270 352 226 q 373 299 369 291 q 390 310 378 307 q 409 300 402 313 q 424 270 417 287 q 476 193 448 215 q 544 170 504 170 q 613 179 585 170 q 659 204 641 187 q 681 296 702 243 l 730 307 z "},"":{"ha":944,"x_min":0,"x_max":852,"o":"m 837 243 q 781 71 837 143 q 617 0 724 0 q 515 24 563 0 q 441 102 467 48 q 280 0 385 0 q 150 44 194 0 q 98 149 106 89 q 121 272 91 209 q 217 372 152 335 q 158 347 194 363 q 89 326 122 331 q 0 379 0 309 q 74 448 0 448 l 307 448 l 307 393 q 254 350 281 372 q 206 290 226 328 q 206 211 185 252 q 283 170 228 170 q 377 209 339 170 q 417 294 415 248 q 441 323 417 322 q 469 294 465 324 q 524 209 487 248 q 619 170 561 170 q 707 205 676 170 q 744 287 739 239 q 731 387 748 335 q 682 471 715 439 q 614 519 650 504 q 541 544 578 535 q 420 556 487 556 l 409 556 q 391 583 394 559 q 441 602 383 602 q 734 511 631 602 q 837 243 837 420 m 772 780 q 650 696 741 756 q 407 556 430 546 q 348 578 396 561 q 267 615 300 594 q 180 709 180 663 q 203 761 180 737 q 259 780 226 785 q 385 674 319 776 q 415 633 400 650 q 489 705 456 672 q 556 769 522 737 q 706 906 633 843 q 772 934 741 939 q 824 906 804 930 q 831 835 852 867 q 772 780 809 804 z "},"":{"ha":944,"x_min":0,"x_max":852,"o":"m 837 243 q 781 71 837 143 q 617 0 724 0 q 515 24 563 0 q 441 102 467 48 q 280 0 385 0 q 150 44 194 0 q 98 149 106 89 q 121 272 91 209 q 217 372 152 335 q 158 347 194 363 q 89 326 122 331 q 0 379 0 309 q 74 448 0 448 l 307 448 l 307 393 q 254 350 281 372 q 206 290 226 328 q 206 211 185 252 q 283 170 228 170 q 377 209 339 170 q 417 294 415 248 q 441 323 417 322 q 469 294 465 324 q 524 209 487 248 q 619 170 561 170 q 707 205 676 170 q 744 287 739 239 q 731 387 748 335 q 682 471 715 439 q 614 519 650 504 q 541 544 578 535 q 420 556 487 556 l 409 556 q 391 583 394 559 q 441 602 383 602 q 734 511 631 602 q 837 243 837 420 m 513 -98 q 489 -145 513 -130 q 437 -161 465 -161 q 385 -145 409 -161 q 361 -98 361 -130 q 444 50 361 -48 q 513 -98 513 -33 m 772 780 q 650 696 741 756 q 407 556 430 546 q 348 578 396 561 q 267 615 300 594 q 180 709 180 663 q 203 761 180 737 q 259 780 226 785 q 385 674 319 776 q 415 633 400 650 q 489 705 456 672 q 556 769 522 737 q 706 906 633 843 q 772 934 741 939 q 824 906 804 930 q 831 835 852 867 q 772 780 809 804 z "},"":{"ha":863,"x_min":0,"x_max":770,"o":"m 733 306 q 767 215 763 267 q 747 115 770 163 q 679 33 724 67 q 579 0 633 0 q 496 8 524 0 q 450 31 469 17 q 417 63 431 46 q 387 96 402 80 q 319 28 361 56 q 187 0 276 0 q 49 48 98 0 q 0 187 0 96 q 74 322 0 281 q 149 351 107 339 q 237 379 191 363 q 301 419 283 394 q 311 462 319 443 q 275 496 304 481 q 205 511 246 511 q 120 492 163 511 q 70 426 78 472 q 33 387 59 387 q 0 454 0 387 q 57 562 0 520 q 193 604 115 604 q 311 574 270 604 q 387 489 352 544 q 520 417 439 417 q 602 436 572 417 q 636 480 631 456 q 619 525 641 504 q 554 551 596 546 q 495 556 511 556 q 474 576 480 556 q 486 607 469 596 q 531 619 504 619 q 701 579 641 619 q 763 469 761 539 q 700 365 763 407 q 587 324 639 324 q 476 340 535 324 q 369 424 417 356 q 316 357 359 376 q 223 327 272 339 q 134 298 174 315 q 94 242 94 281 q 127 186 94 202 q 205 170 159 170 q 301 196 250 170 q 364 271 352 222 q 397 314 376 320 q 424 272 419 307 q 477 194 431 219 q 558 170 522 170 q 619 179 594 170 q 663 204 644 187 q 681 298 704 243 l 733 306 z "},"":{"ha":1602,"x_min":0,"x_max":1509,"o":"m 1133 -87 q 1109 -134 1133 -119 q 1057 -150 1085 -150 q 1006 -134 1030 -150 q 981 -87 981 -119 q 1067 63 981 -37 q 1133 -87 1133 -26 m 683 778 q 320 554 480 635 q 263 574 300 561 q 189 607 226 587 q 91 707 91 659 q 115 759 91 737 q 169 779 139 781 q 220 758 198 776 q 261 719 243 741 q 295 672 280 696 q 324 631 311 648 q 443 741 383 683 q 604 893 554 848 q 733 906 681 963 q 742 835 763 867 q 683 778 720 804 m 650 306 q 563 81 650 161 q 331 0 476 0 q 100 78 194 0 q 0 292 0 159 q 94 515 0 424 q 318 604 191 604 q 547 515 444 604 q 650 306 650 426 m 319 170 q 515 246 450 170 q 546 324 539 276 q 534 419 552 372 q 476 500 517 467 q 321 552 407 552 q 167 498 235 552 q 94 344 94 454 q 174 204 94 250 q 319 170 235 170 m 1426 511 q 1488 405 1467 465 q 1509 285 1509 344 q 1494 177 1509 226 q 1452 89 1480 128 q 1281 0 1387 0 q 1145 42 1202 0 q 1061 152 1089 83 q 980 42 1043 83 q 858 0 917 0 q 756 19 800 0 q 681 71 713 39 q 626 141 648 104 q 604 228 604 178 l 617 276 q 648 330 624 300 q 650 307 650 319 l 652 281 q 677 226 657 250 q 720 191 696 202 q 812 170 765 170 q 893 184 859 170 q 952 219 926 198 q 1013 337 1013 267 q 987 414 1013 380 q 922 470 961 448 q 765 504 846 513 q 722 528 741 496 q 709 573 709 552 q 724 603 709 594 q 784 611 739 611 q 892 585 830 611 q 992 517 954 559 q 1044 435 1030 474 q 1068 359 1059 396 q 1082 289 1076 322 q 1107 230 1089 256 q 1254 170 1146 170 q 1384 219 1326 170 q 1443 337 1443 267 q 1417 414 1443 380 q 1354 470 1391 448 q 1194 504 1278 513 q 1151 523 1165 498 q 1137 569 1137 548 q 1206 611 1137 611 q 1426 511 1339 611 z "},"":{"ha":1111,"x_min":-6,"x_max":1019,"o":"m 731 363 q 650 163 724 274 q 737 9 737 50 q 722 -25 737 -13 q 689 -37 707 -37 q 626 15 639 -41 l 604 119 q 281 0 456 0 q 148 36 202 0 q 72 121 94 72 q 67 221 50 170 q 149 304 83 272 q 315 335 215 335 q 576 241 452 335 q 646 352 624 276 q 626 458 667 424 q 533 490 585 493 q 439 463 481 487 q 383 396 383 433 q 360 370 383 370 q 337 400 337 370 q 293 467 337 444 q 196 489 248 489 q 100 467 144 489 q 56 407 56 444 q 44 381 56 387 q 4 406 11 367 q 4 474 -4 443 q 81 589 22 550 q 181 621 126 619 q 277 597 235 624 q 367 517 319 570 q 443 599 387 572 q 557 619 498 626 q 666 574 617 613 q 728 456 715 535 l 857 456 q 794 578 794 544 q 878 644 794 644 q 948 580 948 644 q 891 456 948 544 l 989 456 q 1014 444 1009 456 q 1019 408 1019 431 q 1016 374 1019 385 q 989 363 1013 363 l 731 363 m 522 209 q 306 289 431 289 l 265 289 q 170 263 204 289 q 154 222 152 248 q 200 181 159 187 q 287 174 241 174 q 427 185 356 170 q 522 209 498 200 z "},"":{"ha":950,"x_min":-20,"x_max":857,"o":"m 787 472 q 844 333 830 415 q 837 178 857 252 q 763 52 817 104 q 635 0 709 0 q 512 33 561 0 q 443 104 463 67 q 369 31 415 63 q 254 0 324 0 q 128 36 183 0 q 41 131 72 72 q 19 407 -19 269 q 233 609 61 574 q 210 665 222 631 q 191 719 198 698 q 180 752 183 739 q 199 806 174 789 q 256 824 224 824 q 316 806 289 824 q 335 761 343 789 q 283 609 319 702 q 387 572 357 606 q 425 506 419 544 q 418 435 431 469 q 375 375 404 402 q 307 343 346 348 q 222 350 265 331 q 161 415 180 369 q 167 522 137 467 q 113 425 130 483 q 106 309 96 367 q 150 211 115 252 q 249 170 185 170 q 356 214 313 170 q 420 320 400 257 l 450 320 q 504 214 469 257 q 600 170 539 170 q 763 256 724 170 q 778 332 778 289 q 757 412 778 376 q 706 474 737 448 q 559 530 633 533 q 504 540 517 528 q 491 572 491 552 q 552 609 491 609 q 787 472 685 609 m 271 552 q 259 552 271 552 q 225 536 246 552 q 204 481 204 520 q 228 421 204 441 q 280 407 252 402 q 331 480 331 415 q 314 531 331 511 q 271 552 296 552 z "},"":{"ha":741,"x_min":0,"x_max":763,"o":"m 685 780 q 506 662 596 720 q 320 556 415 604 q 263 576 300 563 q 189 611 226 589 q 94 709 94 665 q 117 762 94 739 q 169 781 139 785 q 221 761 200 778 q 262 721 243 744 q 297 675 281 698 q 328 635 313 652 q 402 705 369 672 q 467 769 435 737 q 619 907 533 833 q 686 934 656 939 q 733 907 717 930 q 743 837 763 869 q 685 780 722 806 m 252 379 q 252 390 252 379 q 269 421 252 402 q 319 441 287 441 q 369 421 352 441 q 385 379 385 402 q 369 337 385 356 q 319 319 352 319 q 269 337 287 319 q 252 379 252 356 m 648 306 q 560 81 648 161 q 330 0 472 0 q 96 78 193 0 q 0 298 0 156 q 94 518 0 428 q 319 607 187 607 q 437 584 378 607 q 543 520 496 561 q 648 306 648 428 m 546 356 q 527 442 546 407 q 474 500 507 476 q 320 552 406 552 q 163 500 230 552 q 89 354 93 443 q 152 213 78 261 q 311 174 211 174 q 546 356 546 174 z "},"":{"ha":881,"x_min":0,"x_max":826,"o":"m 746 785 q 383 561 552 648 q 326 581 363 569 q 250 615 289 594 q 154 715 154 665 q 177 767 154 744 q 230 785 200 789 q 281 765 259 781 q 323 726 304 748 q 357 680 343 704 q 387 637 372 656 q 463 708 428 676 q 530 772 498 741 q 681 913 617 856 q 746 939 715 944 q 796 913 778 933 q 804 843 826 874 q 746 785 781 811 m 611 433 q 746 377 704 435 q 789 227 789 319 q 727 68 789 135 q 563 0 665 0 q 463 19 507 0 q 380 102 419 39 q 310 23 361 46 q 211 0 259 0 q 123 21 163 0 q 56 78 83 43 q 0 250 0 152 q 117 506 0 404 q 398 609 233 609 q 665 531 587 609 q 667 511 672 524 q 626 493 654 485 q 604 507 613 498 q 380 556 556 556 q 189 493 280 556 q 94 324 94 428 q 128 217 94 263 q 224 170 161 170 q 354 296 324 170 q 380 328 361 328 q 402 298 394 328 q 460 203 415 235 q 570 170 506 170 q 669 194 635 170 q 717 248 704 219 q 652 206 693 219 q 571 202 611 194 q 502 236 531 209 q 472 303 472 263 q 485 365 472 343 q 519 402 498 387 q 611 433 561 433 m 570 319 q 571 308 570 319 q 588 281 572 298 q 634 266 604 265 q 679 285 665 267 q 692 325 693 304 q 673 363 691 346 q 626 378 656 380 q 582 357 596 376 q 570 319 569 339 z "},"":{"ha":881,"x_min":0,"x_max":826,"o":"m 746 785 q 383 561 552 648 q 326 581 363 569 q 250 615 289 594 q 154 715 154 665 q 177 767 154 744 q 230 785 200 789 q 281 765 259 781 q 323 726 304 748 q 357 680 343 704 q 387 637 372 656 q 463 708 428 676 q 530 772 498 741 q 681 913 617 856 q 746 939 715 944 q 796 913 778 933 q 804 843 826 874 q 746 785 781 811 m 611 433 q 746 377 704 435 q 789 227 789 319 q 727 68 789 135 q 563 0 665 0 q 463 19 507 0 q 380 102 419 39 q 310 23 361 46 q 211 0 259 0 q 123 21 163 0 q 56 78 83 43 q 0 250 0 152 q 117 506 0 404 q 398 609 233 609 q 665 531 587 609 q 667 511 672 524 q 628 493 657 487 q 606 506 617 498 q 585 522 596 515 q 380 556 517 556 q 189 493 280 556 q 94 324 94 428 q 128 217 94 263 q 224 170 161 170 q 354 296 324 170 q 380 328 361 328 q 402 298 394 328 q 460 203 415 235 q 570 170 506 170 q 669 194 635 170 q 717 248 704 219 q 652 206 693 219 q 571 202 611 194 q 502 236 531 209 q 472 303 472 263 q 485 365 472 343 q 519 402 498 387 q 611 433 561 433 m 570 319 q 571 308 570 319 q 588 281 572 298 q 634 266 604 265 q 679 285 665 267 q 692 325 693 304 q 673 363 691 346 q 626 378 656 380 q 582 357 596 376 q 570 319 569 339 m 452 -96 q 428 -144 452 -128 q 376 -159 404 -159 q 324 -144 348 -159 q 300 -96 300 -128 q 383 54 300 -43 q 452 -96 452 -37 z "},"":{"ha":946,"x_min":0,"x_max":854,"o":"m 80 296 q 0 411 0 315 q 78 556 4 502 q 241 593 152 607 q 404 498 356 580 q 481 570 428 546 q 596 594 535 594 q 784 509 715 594 q 854 300 854 424 q 817 144 854 211 q 607 0 739 0 q 444 74 494 0 q 420 146 424 107 q 432 224 417 185 q 484 287 448 263 q 560 312 520 311 q 634 293 600 313 q 681 237 669 272 q 691 172 693 202 q 674 115 689 143 q 587 50 644 57 q 731 122 676 50 q 780 267 780 181 q 726 405 780 352 q 584 457 672 457 q 450 417 496 457 q 428 377 435 398 q 416 349 420 356 q 398 343 411 343 q 381 349 385 343 q 374 367 376 356 q 346 417 365 400 q 204 450 306 450 q 122 433 154 450 q 81 394 91 417 q 83 351 70 372 q 123 325 96 330 q 176 321 150 320 q 239 320 202 322 q 274 290 274 315 q 239 265 274 265 l 152 265 q 91 239 107 259 q 81 198 74 219 q 181 133 98 137 q 252 141 217 131 q 319 170 287 150 q 369 181 352 191 q 385 150 385 170 q 319 40 380 80 q 190 0 257 0 q 61 42 122 0 q 0 161 0 83 q 80 296 0 257 m 533 80 q 544 80 533 80 q 569 99 554 80 q 584 152 585 119 q 565 201 583 185 q 527 217 546 217 q 491 200 507 217 q 475 148 474 183 q 494 96 476 113 q 533 80 513 80 z "},"":{"ha":861,"x_min":0,"x_max":804,"o":"m 728 789 q 376 576 526 657 q 346 567 354 563 q 313 583 346 567 q 152 676 196 624 q 135 722 135 696 q 157 771 135 748 q 210 791 180 794 q 262 770 241 787 q 303 731 283 754 q 338 684 322 707 q 369 644 354 661 q 443 714 409 681 q 507 778 476 746 q 659 917 574 843 q 727 944 696 948 q 776 917 757 939 q 783 847 804 878 q 728 789 763 817 m 683 469 q 746 409 717 459 q 767 291 776 359 q 661 89 748 157 q 383 0 557 0 q 122 67 224 0 q 0 294 0 144 q 59 441 0 380 q 207 504 124 504 q 312 477 263 504 q 367 387 361 450 q 318 291 369 322 q 209 267 267 259 q 124 318 152 274 q 115 424 96 361 q 93 296 69 367 q 180 200 115 230 q 279 177 226 180 q 382 174 331 174 q 491 181 433 174 q 594 211 548 187 q 685 383 698 263 q 652 313 680 344 q 556 265 613 267 q 472 297 500 263 q 444 370 444 331 q 461 441 443 409 q 517 489 480 472 q 607 491 554 506 q 400 557 544 548 q 337 570 367 559 q 324 598 319 578 q 378 619 330 619 q 570 589 483 628 q 629 551 598 580 q 671 505 659 522 q 683 469 683 487 m 565 436 q 556 430 565 436 q 537 404 546 424 q 541 361 528 383 q 577 337 554 339 q 619 347 600 335 q 646 381 637 359 q 637 426 656 402 q 604 448 624 448 q 565 436 583 448 m 257 380 q 242 430 257 411 q 200 448 226 448 q 169 430 183 444 q 159 378 154 415 q 177 331 161 348 q 211 320 193 315 q 257 380 257 324 z "},"":{"ha":893,"x_min":0,"x_max":837,"o":"m 463 -96 q 439 -142 463 -126 q 387 -157 415 -157 q 335 -143 359 -157 q 311 -96 311 -128 q 394 56 311 -48 q 463 -96 463 -33 m 809 913 q 816 843 837 874 q 733 770 794 811 q 393 563 520 624 q 338 583 376 570 q 263 615 300 596 q 167 715 167 665 q 189 769 167 744 q 242 787 211 793 q 294 765 272 781 q 334 727 315 748 q 369 681 354 706 q 400 641 385 657 q 474 708 441 676 q 542 773 507 741 q 610 839 576 806 q 685 909 644 872 q 809 913 757 974 m 469 433 q 447 390 469 407 q 399 372 426 372 q 355 390 372 372 q 337 433 337 407 q 355 478 337 459 q 399 496 372 496 q 447 478 426 496 q 469 433 469 459 m 394 104 q 227 0 339 0 q 57 68 115 0 q 0 229 0 135 q 31 390 0 322 q 117 506 63 457 q 389 607 230 607 q 672 498 548 607 q 800 241 800 391 q 741 76 800 152 q 585 0 681 0 q 394 104 452 0 m 578 174 q 662 209 631 176 q 696 293 693 243 q 676 395 700 343 q 594 489 652 448 q 393 556 498 556 q 194 491 287 556 q 122 403 146 457 q 101 298 98 348 q 133 211 104 248 q 229 174 163 174 q 335 211 294 174 q 380 324 376 248 l 417 324 q 466 210 431 250 q 578 174 500 170 z "},"":{"ha":893,"x_min":0,"x_max":837,"o":"m 809 913 q 816 843 837 874 q 733 770 794 811 q 393 563 520 624 q 338 583 376 570 q 263 615 300 596 q 167 715 167 665 q 189 769 167 744 q 242 787 211 793 q 294 765 272 781 q 334 727 315 748 q 369 681 354 706 q 400 641 385 657 q 474 708 441 676 q 542 773 507 741 q 610 839 576 806 q 685 909 644 872 q 809 913 757 974 m 394 104 q 227 0 339 0 q 57 68 115 0 q 0 229 0 135 q 31 390 0 322 q 117 506 63 457 q 389 607 230 607 q 672 498 548 607 q 800 241 800 391 q 741 76 800 152 q 585 0 681 0 q 394 104 452 0 m 578 174 q 662 208 631 174 q 696 293 693 243 q 676 395 700 343 q 594 489 652 448 q 393 556 498 556 q 194 491 287 556 q 122 403 146 457 q 101 298 98 348 q 133 211 104 248 q 229 174 163 174 q 335 211 294 174 q 380 324 376 248 l 417 324 q 466 210 431 250 q 578 174 500 170 z "},"":{"ha":893,"x_min":0,"x_max":837,"o":"m 463 -96 q 439 -142 463 -126 q 387 -157 415 -157 q 335 -143 359 -157 q 311 -96 311 -128 q 394 56 311 -48 q 463 -96 463 -33 m 809 913 q 816 843 837 874 q 733 770 794 811 q 393 563 520 624 q 338 583 376 570 q 263 615 300 596 q 167 715 167 665 q 189 769 167 744 q 242 787 211 793 q 294 765 272 781 q 334 727 315 748 q 369 681 354 706 q 400 641 385 657 q 474 708 441 676 q 542 773 507 741 q 610 839 576 806 q 685 909 644 872 q 809 913 757 974 m 394 104 q 227 0 339 0 q 57 68 115 0 q 0 229 0 135 q 31 390 0 322 q 117 506 63 457 q 389 607 230 607 q 672 498 548 607 q 800 241 800 391 q 741 76 800 152 q 585 0 681 0 q 394 104 452 0 m 578 174 q 662 208 631 174 q 696 293 693 243 q 676 395 700 343 q 594 489 652 448 q 393 556 498 556 q 194 491 287 556 q 122 403 146 457 q 101 298 98 348 q 133 211 104 248 q 229 174 163 174 q 335 211 294 174 q 380 324 376 248 l 417 324 q 466 210 431 250 q 578 174 500 170 z "},"":{"ha":844,"x_min":0,"x_max":752,"o":"m 631 793 q 485 694 559 744 q 367 619 411 643 q 313 587 322 594 q 243 580 280 561 q 61 674 107 628 q 39 724 39 696 q 61 774 39 752 q 114 793 83 796 q 166 772 144 789 q 206 732 187 756 q 242 687 226 709 q 272 648 257 665 q 346 716 313 683 q 415 780 380 748 q 565 920 513 870 q 631 945 600 950 q 681 920 661 941 q 688 850 709 881 q 631 793 667 819 m 391 620 q 562 582 487 617 q 682 492 637 548 q 740 355 728 435 q 724 188 752 274 q 644 51 696 102 q 522 0 593 0 q 414 27 452 0 q 348 89 376 54 q 309 156 331 113 q 257 234 287 198 q 194 291 228 270 q 126 293 161 311 q 90 232 91 274 q 137 150 89 191 q 198 101 169 122 q 217 41 228 80 q 169 3 204 7 q 97 17 135 -2 q 30 78 59 35 q 0 184 0 120 q 29 286 0 248 q 106 340 57 324 q 215 334 156 356 q 319 270 274 313 q 412 191 372 211 q 496 174 452 170 q 606 220 565 176 q 655 325 648 265 q 631 444 661 385 q 531 531 602 504 q 311 570 457 565 q 274 572 291 572 q 246 578 257 572 q 248 611 211 593 q 319 626 278 626 q 391 620 361 626 z "},"":{"ha":837,"x_min":0,"x_max":744,"o":"m 593 772 q 414 654 506 713 q 226 548 322 594 q 169 569 207 556 q 94 602 131 583 q 29 646 57 620 q 0 701 0 672 q 23 754 0 730 q 76 773 46 778 q 128 751 106 769 q 169 711 150 733 q 203 666 187 689 q 233 626 219 643 q 308 694 274 661 q 376 758 343 728 q 444 823 409 789 q 524 898 480 857 q 593 926 561 930 q 643 898 624 922 q 650 828 672 859 q 593 772 628 796 m 506 0 q 408 12 450 0 q 320 94 367 24 q 260 29 298 57 q 167 0 222 0 q 43 53 83 0 q 1 169 2 106 q 39 289 0 233 q 161 348 78 344 q 283 307 231 354 q 325 259 313 283 q 352 217 337 235 q 394 184 367 198 q 492 169 420 170 q 618 206 563 169 q 672 339 672 243 q 608 472 669 420 q 467 524 548 524 l 444 524 q 408 536 417 524 q 400 569 400 548 q 456 607 400 607 q 662 509 580 607 q 744 290 744 411 q 680 84 744 169 q 506 0 615 0 m 79 232 q 78 221 79 232 q 96 190 78 209 q 165 170 115 170 q 240 189 215 170 q 264 231 265 207 q 236 275 263 256 q 166 294 209 294 q 101 275 122 294 q 79 232 80 256 z "},"":{"ha":837,"x_min":0,"x_max":744,"o":"m 391 -96 q 367 -142 391 -126 q 315 -157 343 -157 q 263 -143 287 -157 q 239 -96 239 -128 q 322 56 239 -48 q 391 -96 391 -33 m 593 770 q 226 546 391 630 q 169 567 207 554 q 94 600 131 580 q 0 700 0 652 q 23 753 0 730 q 76 772 46 776 q 128 751 106 769 q 169 711 150 733 q 203 666 187 689 q 233 626 219 643 q 308 694 274 661 q 376 758 343 728 q 444 823 409 789 q 524 898 480 857 q 593 925 561 930 q 643 898 624 920 q 650 828 672 859 q 593 770 628 796 m 506 0 q 408 12 450 0 q 320 94 367 24 q 260 29 298 57 q 167 0 222 0 q 43 53 83 0 q 1 169 2 106 q 39 289 0 233 q 161 348 78 344 q 283 307 231 354 q 325 259 313 283 q 352 217 337 235 q 394 184 367 198 q 492 169 420 170 q 618 206 563 169 q 672 339 672 243 q 608 472 669 420 q 467 524 548 524 l 444 524 q 408 536 417 524 q 400 569 400 548 q 456 607 400 607 q 662 509 580 607 q 744 290 744 411 q 680 84 744 169 q 506 0 615 0 m 79 232 q 78 221 79 232 q 96 190 78 209 q 165 170 115 170 q 240 189 215 170 q 264 231 265 207 q 236 275 263 256 q 166 294 209 294 q 101 275 122 294 q 79 232 80 256 z "},"":{"ha":887,"x_min":0,"x_max":794,"o":"m 569 0 q 385 102 426 0 q 306 29 359 57 q 204 0 252 0 q 61 48 122 0 q 0 180 0 96 q 74 319 0 274 q 149 349 107 337 q 231 372 191 361 q 300 415 281 391 q 309 461 319 439 q 270 499 300 483 q 197 515 241 515 q 108 490 154 515 q 63 415 63 465 q 53 393 63 402 q 30 385 43 383 q 0 452 0 391 q 60 572 0 535 q 196 609 120 609 q 322 563 272 609 q 370 480 361 531 q 351 392 380 428 q 278 339 322 356 q 190 309 233 322 q 115 281 146 296 q 87 241 83 267 q 129 185 89 200 q 194 170 169 170 q 305 206 256 170 q 363 296 354 241 q 390 320 369 322 q 417 298 411 319 q 463 206 428 243 q 552 170 498 170 q 689 241 643 170 q 715 374 726 306 q 637 487 702 450 q 515 507 615 498 q 466 530 487 513 q 450 580 444 546 q 473 605 456 593 q 533 611 491 617 q 665 563 604 604 q 750 466 720 528 q 787 334 780 404 q 778 196 794 265 q 730 85 761 128 q 569 0 663 0 z "},"":{"ha":881,"x_min":0,"x_max":959,"o":"m 444 -96 q 420 -142 444 -126 q 369 -157 396 -157 q 319 -143 343 -157 q 294 -96 294 -128 q 376 56 294 -43 q 444 -96 444 -37 m 865 754 q 539 548 648 607 q 484 533 504 530 q 442 550 465 537 q 389 578 419 563 q 333 607 359 593 q 272 683 272 646 q 296 733 272 709 q 439 693 352 793 q 473 648 457 672 q 504 607 489 624 q 579 677 544 644 q 646 741 613 709 q 716 805 680 772 q 796 878 752 837 q 863 907 830 913 q 913 878 896 902 q 865 754 957 817 m 569 0 q 385 102 426 0 q 306 29 359 57 q 204 0 252 0 q 61 48 122 0 q 0 180 0 96 q 74 319 0 274 q 149 349 107 337 q 231 372 191 361 q 300 415 281 391 q 309 461 319 439 q 270 499 300 483 q 197 515 241 515 q 108 490 154 515 q 63 415 63 465 q 53 393 63 402 q 30 385 43 383 q 0 452 0 391 q 60 572 0 535 q 196 609 120 609 q 322 563 272 609 q 370 480 361 531 q 351 392 380 428 q 278 339 322 356 q 190 309 233 322 q 115 281 146 296 q 87 241 83 267 q 129 185 89 200 q 194 170 169 170 q 305 206 256 170 q 363 296 354 241 q 390 320 369 322 q 417 298 411 319 q 463 206 428 243 q 552 170 498 170 q 689 241 643 170 q 689 441 748 346 q 635 491 669 472 q 522 526 602 513 q 496 531 511 528 q 469 538 481 535 q 451 548 457 541 q 450 580 444 556 q 469 602 456 593 q 544 599 481 611 q 662 551 607 587 q 748 455 717 515 q 787 327 780 394 q 778 194 794 259 q 730 85 761 128 q 569 0 663 0 z "},"":{"ha":1270,"x_min":0,"x_max":1178,"o":"m 691 907 q 700 837 720 869 q 622 767 680 806 q 319 578 435 643 q 262 562 281 559 q 220 579 243 565 q 168 606 198 593 q 111 637 137 620 q 50 707 50 676 q 73 763 50 739 q 126 782 96 787 q 178 761 156 778 q 218 722 200 744 q 251 676 235 700 q 281 635 267 652 q 357 706 322 674 q 426 770 393 739 q 576 907 470 815 q 642 936 609 941 q 691 907 674 931 m 744 283 q 681 89 744 167 q 498 0 619 11 q 352 44 407 0 q 319 96 328 65 q 254 19 309 46 q 163 0 217 0 q 44 56 87 6 q 0 183 0 107 q 45 302 0 259 q 159 344 91 344 q 330 235 296 344 q 387 187 343 200 q 472 174 431 174 q 550 184 513 174 q 615 217 587 194 q 669 343 676 265 q 543 504 661 439 q 272 563 430 563 q 250 569 250 563 q 256 587 250 576 q 300 600 259 600 q 650 519 548 600 q 744 283 744 444 m 76 232 q 75 221 76 232 q 96 190 74 209 q 168 170 119 170 q 238 190 217 170 q 257 232 259 209 q 230 275 256 256 q 163 294 204 294 q 100 275 122 294 q 76 232 78 256 m 1175 299 q 1176 287 1175 299 q 1176 236 1178 274 q 1154 141 1174 198 q 1071 42 1133 83 q 950 0 1009 0 q 847 19 891 0 q 771 71 804 39 q 718 141 739 104 q 696 228 696 178 l 707 276 q 739 330 720 302 q 741 307 741 319 l 744 281 q 768 226 748 250 q 811 191 787 202 q 903 170 856 170 q 984 184 950 170 q 1044 219 1019 198 q 1106 337 1106 270 q 1019 474 1106 422 q 857 513 941 522 q 815 533 837 511 q 802 570 802 546 q 816 603 802 594 q 876 611 830 611 q 983 585 922 611 q 1083 517 1044 559 q 1139 435 1122 474 q 1164 360 1156 396 q 1175 299 1172 324 z "},"":{"ha":1602,"x_min":0,"x_max":1517,"o":"m 1078 772 q 921 667 1002 720 q 756 570 841 613 q 699 556 717 552 q 658 572 681 559 q 606 598 635 585 q 548 626 576 611 q 487 704 487 663 q 511 755 487 731 q 565 772 535 778 q 656 715 611 769 q 690 667 674 691 q 720 626 706 643 q 1013 900 876 774 q 1078 927 1046 931 q 1130 900 1109 922 q 1136 831 1157 861 q 1078 772 1115 800 m 1074 294 q 824 0 1074 2 q 689 42 754 2 q 602 167 624 81 q 481 47 559 94 q 328 0 404 0 q 194 21 252 0 q 93 81 135 43 q 0 306 0 167 q 89 530 0 443 q 314 617 180 617 q 526 530 448 617 q 619 320 604 443 q 691 217 637 259 q 814 174 744 174 q 939 224 883 174 q 994 356 994 274 q 931 487 994 439 q 793 548 869 535 q 741 554 761 556 q 661 576 674 548 q 669 596 659 585 q 689 607 680 607 l 730 607 q 979 528 883 607 q 1074 294 1074 448 m 507 263 q 531 344 530 296 q 511 430 531 393 q 457 493 491 467 q 219 524 341 578 q 113 422 143 491 q 98 347 98 387 q 119 274 98 307 q 170 219 139 241 q 300 176 235 176 q 507 263 444 176 m 1487 146 q 1404 42 1467 83 q 1281 0 1341 0 q 1180 19 1222 0 q 1104 70 1137 39 q 1028 228 1028 144 l 1041 276 q 1070 330 1046 294 q 1074 307 1074 319 l 1076 281 q 1146 189 1087 217 q 1234 170 1185 170 q 1317 184 1283 170 q 1378 219 1350 198 q 1437 337 1437 267 q 1350 474 1437 422 q 1189 513 1272 522 q 1164 519 1174 511 q 1148 533 1154 528 q 1133 569 1133 544 q 1148 603 1133 594 q 1208 611 1163 611 q 1316 585 1254 611 q 1416 517 1378 559 q 1470 435 1454 474 q 1495 360 1487 396 q 1507 300 1504 324 q 1487 146 1515 219 z "},"":{"ha":743,"x_min":0,"x_max":763,"o":"m 733 898 q 742 828 763 859 q 663 756 720 796 q 369 565 480 626 q 309 551 331 546 q 264 569 287 556 q 210 597 241 583 q 154 626 180 611 q 91 697 91 665 q 114 753 91 730 q 170 770 137 776 q 219 751 198 769 q 260 711 241 733 q 295 665 280 689 q 324 624 311 641 q 400 694 367 661 q 467 758 433 728 q 535 823 500 789 q 611 894 570 857 q 683 925 652 930 q 733 898 715 920 m 650 306 q 562 81 650 161 q 330 0 474 0 q 98 78 191 0 q 0 292 0 159 q 94 515 0 424 q 319 604 191 604 q 546 515 448 604 q 650 306 650 424 m 548 359 q 530 440 548 404 q 478 500 511 476 q 320 552 406 552 q 163 500 237 552 q 89 359 89 444 q 163 226 89 280 q 319 176 230 176 q 474 222 409 176 q 548 359 546 274 z "},"":{"ha":1007,"x_min":0,"x_max":915,"o":"m 441 89 q 256 0 367 0 q 63 98 135 0 q 0 311 0 185 q 69 507 0 426 q 252 600 144 600 q 375 569 319 600 q 431 463 431 537 q 406 389 431 419 q 343 344 380 359 q 265 332 306 330 q 193 354 224 335 q 148 410 161 372 q 152 506 135 448 q 67 356 67 457 q 123 226 67 276 q 259 174 180 176 q 335 177 300 174 q 391 195 370 180 q 419 229 411 211 q 442 244 428 246 q 462 225 456 241 q 489 198 469 209 q 554 174 515 178 q 610 172 593 170 q 654 174 628 174 q 717 186 680 174 q 781 222 754 198 q 848 346 848 278 q 815 456 848 415 q 735 498 781 498 q 663 474 689 498 q 637 407 637 450 q 733 309 637 350 q 761 281 761 298 q 750 260 761 263 q 728 257 739 257 l 209 256 q 184 261 198 252 q 170 281 170 270 q 209 307 170 307 l 607 307 q 498 444 498 367 q 555 561 498 522 q 680 600 611 600 q 850 518 785 600 q 915 330 915 435 q 839 100 915 194 q 635 0 757 0 q 441 89 513 0 m 254 394 q 267 394 254 394 q 296 418 280 394 q 313 470 313 441 q 294 519 313 500 q 254 537 276 537 q 213 519 231 537 q 194 464 194 500 q 211 411 194 428 q 254 394 228 394 z "},"":{"ha":874,"x_min":-6,"x_max":781,"o":"m 781 330 q 661 78 781 170 q 388 -7 557 -7 q 111 83 219 -7 q -6 346 -6 178 q 59 524 -6 457 q 153 582 96 563 q 264 597 209 602 q 357 562 319 593 q 396 474 396 531 q 354 377 396 417 q 250 337 311 337 q 137 391 178 337 q 128 511 100 444 q 65 383 59 452 q 148 226 70 281 q 369 170 226 170 q 593 205 511 170 q 699 294 674 239 q 710 400 724 348 q 650 487 696 452 q 541 517 604 522 q 495 522 515 513 q 476 559 476 531 q 537 600 476 600 q 713 517 641 600 q 781 330 781 428 m 229 402 q 239 402 229 402 q 269 418 250 402 q 287 469 287 433 q 269 524 287 504 q 228 544 252 544 q 187 526 204 544 q 170 471 170 507 q 189 419 170 435 q 229 402 207 402 z "},"":{"ha":802,"x_min":0,"x_max":939,"o":"m 913 906 q 919 835 939 867 q 841 763 898 804 q 537 576 693 659 q 486 560 506 559 q 442 575 467 561 q 386 604 417 589 q 330 633 356 619 q 270 705 270 672 q 293 761 270 737 q 345 781 315 785 q 397 758 376 776 q 438 719 419 741 q 473 673 457 696 q 504 633 489 650 q 578 701 544 669 q 645 765 611 733 q 714 831 680 796 q 789 901 748 865 q 861 933 830 937 q 913 906 893 930 m 511 224 q 539 133 543 196 q 504 44 535 72 q 436 7 472 15 q 350 0 400 0 q 270 23 300 0 q 229 76 241 46 q 220 133 217 106 q 233 174 224 161 q 20 307 74 211 q 0 406 0 344 q 44 520 0 469 q 143 593 87 572 q 344 580 257 631 q 404 510 393 552 q 396 439 415 469 q 257 372 352 372 q 204 388 228 372 q 167 430 180 404 q 183 552 141 485 q 146 525 163 546 q 126 474 130 504 q 161 344 106 400 q 352 276 226 276 q 461 290 415 276 q 524 313 507 304 q 581 381 565 339 q 585 463 596 424 q 507 546 563 519 q 485 557 496 554 q 466 565 474 561 q 453 570 457 569 q 443 576 448 572 q 454 592 443 580 q 500 609 465 604 q 645 565 583 613 q 707 439 707 517 q 653 294 707 361 q 511 224 598 228 m 307 487 q 257 546 307 546 q 223 531 239 546 q 207 485 207 515 q 224 444 207 456 q 259 431 241 431 q 294 446 280 428 q 307 487 307 465 m 362 62 q 377 64 362 62 q 408 86 393 67 q 419 128 424 106 q 346 174 409 174 q 300 159 320 174 q 281 117 280 144 q 306 73 281 89 q 362 62 331 57 z "},"":{"ha":837,"x_min":0,"x_max":744,"o":"m 691 907 q 700 837 720 869 q 622 767 680 806 q 319 578 435 643 q 262 562 281 559 q 220 579 243 565 q 168 606 198 593 q 111 637 137 620 q 50 707 50 676 q 73 763 50 739 q 126 782 96 787 q 178 761 156 778 q 218 722 200 744 q 251 676 235 700 q 281 635 267 652 q 357 706 322 674 q 426 770 393 739 q 576 907 470 815 q 642 936 609 941 q 691 907 674 931 m 744 283 q 681 89 744 167 q 498 0 619 11 q 352 44 407 0 q 319 96 328 65 q 254 19 309 46 q 163 0 217 0 q 44 56 87 6 q 0 183 0 107 q 45 302 0 259 q 159 344 91 344 q 330 235 296 344 q 387 187 343 200 q 472 174 431 174 q 550 184 513 174 q 615 217 587 194 q 669 343 676 265 q 543 504 661 439 q 272 563 430 563 q 250 569 250 563 q 256 587 250 576 q 300 600 259 600 q 650 519 548 600 q 744 283 744 444 m 76 232 q 75 221 76 232 q 96 190 74 209 q 168 170 119 170 q 238 190 217 170 q 257 232 259 209 q 230 275 256 256 q 163 294 204 294 q 100 275 122 294 q 76 232 78 256 z "},"":{"ha":633,"x_min":2,"x_max":685,"o":"m 607 780 q 283 578 398 641 q 227 562 246 559 q 184 579 207 565 q 131 606 161 593 q 76 633 102 619 q 15 706 15 672 q 37 762 15 739 q 90 781 59 785 q 142 761 120 778 q 182 721 163 744 q 218 674 202 698 q 248 633 233 650 q 322 705 289 672 q 390 769 356 737 q 458 833 424 800 q 533 904 493 867 q 657 907 606 965 q 664 837 685 869 q 607 780 643 806 m 231 607 q 452 587 369 620 q 522 536 500 569 q 541 469 544 504 q 510 403 537 433 q 433 359 483 372 q 513 185 513 294 q 454 51 513 102 q 311 0 394 0 q 146 81 194 0 q 130 147 130 111 q 143 218 130 183 q 181 285 156 252 q 324 370 237 356 q 265 409 304 393 q 185 425 226 426 q 132 385 144 424 q 131 307 120 346 q 118 272 137 289 q 73 252 98 256 q 25 266 48 248 q 2 327 2 283 q 19 401 2 370 q 63 450 35 431 q 191 481 131 496 q 302 452 270 467 q 394 394 348 426 q 474 493 487 444 q 231 561 452 561 q 198 586 198 561 q 231 607 198 611 m 431 231 q 369 322 439 307 q 307 307 339 328 q 273 252 276 287 q 293 196 270 217 q 400 183 339 150 q 431 231 428 198 z "},"":{"ha":841,"x_min":-2,"x_max":820,"o":"m 593 770 q 226 546 391 630 q 169 567 207 554 q 94 600 131 580 q 0 700 0 652 q 23 753 0 730 q 76 772 46 776 q 128 751 106 769 q 169 711 150 733 q 203 666 187 689 q 233 626 219 643 q 308 694 274 661 q 376 758 343 728 q 444 823 409 789 q 524 898 480 857 q 593 925 561 930 q 643 898 624 920 q 650 828 672 859 q 593 770 628 796 m 498 0 q 328 91 387 0 q 246 19 300 41 q 137 7 193 -2 q 40 59 81 17 q 0 178 -2 102 q 51 298 6 250 q 157 344 96 346 q 247 316 219 343 q 297 257 276 289 q 337 200 319 226 q 387 174 356 174 q 446 171 419 174 q 500 174 474 169 q 598 220 559 183 q 656 313 637 257 q 641 448 674 387 q 513 524 596 520 q 466 534 491 524 q 444 570 441 544 q 500 607 448 607 q 629 573 576 607 q 710 485 681 539 q 745 365 739 431 q 733 233 752 298 q 722 178 728 204 q 727 128 717 152 q 751 89 737 104 q 781 61 765 74 q 820 -3 820 28 q 807 -48 820 -33 q 774 -65 794 -63 q 700 -19 728 -69 q 674 80 681 9 q 594 20 641 41 q 498 0 546 0 m 80 226 q 106 183 81 193 q 154 171 130 174 q 198 176 178 169 q 230 196 219 183 q 235 265 261 228 q 196 292 224 283 q 141 297 169 300 q 94 276 113 294 q 80 226 74 257 z "},"":{"ha":839,"x_min":0,"x_max":783,"o":"m 593 770 q 226 546 391 630 q 169 567 207 554 q 94 600 131 580 q 0 700 0 652 q 23 753 0 730 q 76 772 46 776 q 128 751 106 769 q 169 711 150 733 q 203 666 187 689 q 233 626 219 643 q 308 694 274 661 q 376 758 343 728 q 444 823 409 789 q 524 898 480 857 q 593 925 561 930 q 643 898 624 920 q 650 828 672 859 q 593 770 628 796 m 428 578 q 482 618 428 624 q 586 587 537 611 q 670 522 635 563 q 722 196 781 398 q 604 28 687 80 q 494 0 561 0 q 382 48 428 0 q 304 154 337 96 q 240 258 270 211 q 174 303 209 306 q 122 287 139 300 q 100 256 106 274 q 128 170 93 219 q 160 141 143 156 q 193 111 178 126 q 215 46 231 76 q 151 7 191 7 q 85 24 111 7 q 41 67 59 41 q 0 195 0 126 q 37 308 0 265 q 125 361 74 352 q 230 346 176 370 q 320 272 283 322 q 405 196 354 222 q 501 170 456 170 q 586 196 546 170 q 645 260 626 222 q 666 344 665 298 q 649 431 667 391 q 593 501 631 472 q 505 534 554 530 q 442 547 456 539 q 428 578 428 556 z "},"":{"ha":1200,"x_min":0,"x_max":1107,"o":"m 593 770 q 226 546 391 630 q 169 567 207 554 q 94 600 131 580 q 0 700 0 652 q 23 753 0 730 q 76 772 46 776 q 128 751 106 769 q 169 711 150 733 q 203 666 187 689 q 233 626 219 643 q 308 694 274 661 q 376 758 343 728 q 444 823 409 789 q 524 898 480 857 q 593 925 561 930 q 643 898 624 920 q 650 828 672 859 q 593 770 628 796 m 657 507 q 746 287 746 407 q 685 89 746 167 q 507 0 619 0 q 322 96 396 0 q 167 0 274 0 q 47 54 89 0 q 6 183 6 107 q 51 303 6 259 q 167 346 96 346 q 248 330 200 346 q 317 260 296 313 q 388 189 337 207 q 488 170 439 170 q 577 201 537 170 q 633 275 617 231 q 645 365 650 319 q 613 448 641 411 q 483 507 574 507 q 451 527 463 507 q 440 570 439 546 q 455 614 441 594 q 504 633 469 633 l 944 633 q 1061 586 1020 633 q 1105 481 1102 539 q 1071 376 1107 424 q 961 324 1035 328 q 896 344 924 324 q 853 392 869 363 q 837 452 837 420 q 859 507 837 483 l 657 507 m 81 228 q 103 189 80 204 q 174 174 126 174 q 243 193 222 174 q 260 234 263 211 q 232 277 257 257 q 167 296 207 296 q 81 228 87 296 m 956 398 q 967 397 956 398 q 997 410 978 396 q 1017 450 1017 424 q 997 494 1017 476 q 956 513 978 511 q 915 502 933 515 q 896 457 896 489 q 915 413 896 426 q 956 398 933 400 z "},"":{"ha":1146,"x_min":-7,"x_max":1054,"o":"m -2 134 q -2 166 -2 134 q 41 236 -2 198 q 167 274 83 274 q 520 304 404 274 q 606 361 589 320 q 594 442 624 402 q 496 511 565 481 q 340 541 428 541 q 198 519 252 541 q 111 465 144 498 q 44 444 78 431 q 2 481 11 457 q 18 524 -7 504 q 93 563 43 544 q 326 602 193 602 q 547 559 459 602 q 666 452 635 517 q 666 331 696 387 q 539 249 635 276 q 354 219 443 222 q 154 217 265 217 q 96 202 115 217 q 74 169 78 187 q 75 124 70 152 q 137 96 80 96 l 1052 98 l 1054 0 l 111 0 q 44 16 70 0 q 8 51 19 31 q -2 134 -2 70 z "},"":{"ha":261,"x_min":-833,"x_max":252,"o":"m 19 683 q 248 528 230 683 q 218 417 252 456 q 131 373 183 378 q 51 392 80 369 q 11 445 22 415 q 3 506 0 476 q 15 546 6 535 l -776 546 q -814 561 -794 546 q -833 612 -833 576 q -818 665 -833 648 q -754 683 -802 681 l 19 683 m 109 437 q 120 436 109 437 q 151 447 131 435 q 170 487 170 459 q 153 531 170 515 q 112 546 135 546 q 69 533 89 546 q 50 493 50 520 q 69 452 50 465 q 109 437 87 439 z "},"":{"ha":6,"x_min":-972,"x_max":-494,"o":"m -585 793 q -599 742 -591 769 q -637 692 -607 715 q -702 656 -667 669 q -761 644 -737 644 q -871 676 -819 644 q -924 772 -924 707 q -804 915 -924 874 q -689 923 -752 933 q -581 885 -626 913 q -516 813 -537 857 q -494 733 -494 769 q -600 578 -496 624 q -720 546 -663 548 q -833 559 -778 544 q -972 635 -972 593 q -946 665 -972 665 q -904 649 -939 665 q -824 619 -869 633 q -733 604 -780 604 q -641 631 -687 604 q -576 733 -576 659 q -585 793 -576 765 m -676 819 q -793 772 -765 819 q -804 741 -804 756 q -748 707 -804 704 q -690 757 -707 720 q -676 819 -672 794 z "},"":{"ha":6,"x_min":-972,"x_max":-494,"o":"m -539 950 l -580 948 q -603 988 -580 970 q -650 1006 -626 1006 q -707 981 -700 1006 q -696 922 -715 956 q -700 912 -693 917 q -719 904 -707 907 q -754 900 -748 894 q -789 985 -789 930 q -748 1070 -789 1041 q -661 1100 -707 1100 q -576 1072 -615 1100 q -533 1005 -537 1044 q -539 950 -530 965 m -585 793 q -599 742 -591 769 q -637 692 -607 715 q -702 656 -667 669 q -761 644 -737 644 q -871 676 -819 644 q -924 772 -924 707 q -804 915 -924 874 q -689 923 -752 933 q -581 885 -626 913 q -516 813 -537 857 q -494 733 -494 769 q -600 578 -496 624 q -720 546 -663 548 q -833 559 -778 544 q -972 635 -972 593 q -946 665 -972 665 q -904 649 -939 665 q -824 619 -869 633 q -733 604 -780 604 q -641 631 -687 604 q -576 733 -576 659 q -585 793 -576 765 m -676 819 q -793 772 -765 819 q -804 741 -804 756 q -748 707 -804 704 q -690 757 -707 720 q -676 819 -672 794 z "},"":{"ha":415,"x_min":-230,"x_max":322,"o":"m -226 178 l -230 213 l -230 257 q -228 274 -230 259 q -226 306 -226 289 q -217 361 -224 333 q -131 211 -200 252 q 44 170 -61 170 q 200 218 150 170 q 250 321 250 265 q 221 418 250 378 q 150 485 193 457 q 63 526 107 513 q -11 531 19 539 q -56 534 -41 524 q -73 560 -72 544 q -56 590 -74 576 q -2 604 -39 604 q 257 474 167 600 q 313 332 304 415 q 296 177 322 250 q 207 52 270 104 q 59 0 144 0 q -102 44 -26 0 q -226 178 -178 89 z "},"":{"ha":800,"x_min":-246,"x_max":707,"o":"m 81 511 l 33 507 l 11 507 q -7 544 -7 507 l -7 620 q 11 652 -7 652 l 541 652 q 659 608 611 652 q 707 496 707 565 q 676 385 707 428 q 592 340 644 343 q 510 355 539 337 q 469 399 481 372 q 462 456 457 426 q 491 511 467 487 l 239 511 q 328 276 328 435 q 259 75 328 150 q 65 0 191 0 q -120 72 -24 0 q -207 174 -174 111 q -211 300 -246 244 q -126 211 -187 243 q 76 178 -39 165 q 206 233 157 189 q 239 296 231 257 q 218 424 252 367 q 122 511 183 481 l 81 511 m 571 507 q 560 507 571 507 q 531 492 548 507 q 515 446 513 476 q 536 405 517 417 q 578 394 556 393 q 618 410 600 394 q 635 454 635 426 q 615 494 635 481 q 571 507 594 507 z "},"":{"ha":346,"x_min":-304,"x_max":259,"o":"m 259 -72 q -41 -419 259 -419 q -198 -369 -133 -419 q -285 -170 -304 -287 q -198 -41 -270 -87 q -114 -15 -163 -17 q -30 -47 -65 -13 q 6 -128 6 -81 q -19 -204 6 -174 q -76 -244 -43 -233 q -144 -245 -109 -256 q -202 -200 -178 -235 q -48 -294 -174 -294 q 120 -209 56 -294 q 170 24 191 -119 q 91 259 156 124 q 0 436 43 367 q -66 526 -43 506 q -83 566 -89 546 q -64 594 -78 585 q -38 606 -50 604 q -17 600 -26 607 q 11 561 2 585 q 128 367 41 522 q 252 15 222 189 q 259 -72 259 -37 m -72 -120 q -122 -80 -72 -80 q -163 -88 -143 -80 q -191 -109 -183 -96 q -163 -149 -183 -135 q -123 -165 -143 -163 q -88 -156 -104 -167 q -72 -120 -72 -144 z "},"":{"ha":574,"x_min":-304,"x_max":496,"o":"m 259 -72 q -41 -419 259 -419 q -198 -369 -133 -419 q -285 -170 -304 -287 q -198 -41 -270 -87 q -114 -15 -163 -17 q -30 -47 -65 -13 q 6 -128 6 -81 q -19 -204 6 -174 q -76 -244 -43 -233 q -144 -245 -109 -256 q -202 -200 -178 -235 q -48 -294 -174 -294 q 120 -209 56 -294 q 164 -38 169 -146 q 124 179 159 70 q 41 375 89 287 q -46 487 -7 463 q -74 541 -74 502 q -61 580 -74 567 q -11 587 -28 604 q 5 569 -2 580 q 19 548 11 559 q 217 154 152 357 q 259 -72 259 26 m -72 -120 q -122 -80 -72 -80 q -163 -88 -143 -80 q -191 -109 -183 -96 q -163 -149 -183 -135 q -123 -165 -143 -163 q -88 -156 -104 -167 q -72 -120 -72 -144 m 289 600 q 435 568 391 600 q 488 466 480 535 q 457 358 496 396 q 375 316 419 320 q 304 325 331 311 q 259 365 276 339 q 256 489 222 422 l -50 489 q -84 501 -78 489 q -91 545 -91 513 q -81 589 -91 578 q -31 600 -70 600 l 289 600 m 365 372 q 376 374 365 372 q 402 390 387 376 q 417 431 417 404 q 394 477 417 457 q 330 493 370 496 q 304 461 311 481 q 296 431 296 441 q 319 382 296 396 q 365 372 343 369 z "},"":{"ha":6,"x_min":-872,"x_max":-250,"o":"m -250 691 q -409 554 -250 554 l -567 554 q -603 562 -591 554 q -613 581 -615 570 q -599 602 -611 593 q -567 611 -587 611 l -415 611 q -367 626 -383 611 q -350 658 -350 641 q -365 691 -350 676 q -415 706 -380 706 l -826 704 q -867 721 -861 704 q -872 783 -872 739 q -852 856 -872 852 q -828 857 -841 857 l -467 857 q -267 774 -309 857 q -250 691 -250 741 z "},"":{"ha":6,"x_min":-872,"x_max":-250,"o":"m -250 691 q -409 554 -250 554 l -567 554 q -603 562 -591 554 q -613 581 -615 570 q -599 602 -611 593 q -567 611 -587 611 l -415 611 q -367 626 -383 611 q -350 658 -350 641 q -365 691 -350 676 q -415 706 -380 706 l -826 704 q -867 721 -861 704 q -872 783 -872 739 q -852 856 -872 852 q -828 857 -841 857 l -467 857 q -267 774 -309 857 q -250 691 -250 741 m -393 850 q -429 844 -417 844 q -467 857 -441 843 q -497 915 -494 883 q -486 974 -500 946 q -444 1019 -472 1002 q -368 1037 -415 1037 q -293 1004 -320 1037 q -257 952 -265 970 q -254 924 -250 933 q -265 908 -257 915 q -281 902 -272 902 q -302 916 -291 902 q -329 943 -313 930 q -369 950 -344 956 q -404 929 -393 944 q -416 895 -415 913 q -410 865 -417 878 q -393 850 -404 852 z "},"":{"ha":15,"x_min":-1109,"x_max":-250,"o":"m -250 691 q -409 554 -250 554 l -567 554 q -603 562 -591 554 q -613 581 -615 570 q -599 602 -611 593 q -567 611 -587 611 l -415 611 q -367 626 -383 611 q -350 658 -350 641 q -365 691 -350 676 q -415 706 -380 706 l -826 704 q -867 721 -861 704 q -872 783 -872 739 q -852 856 -872 852 q -828 857 -841 857 l -467 857 q -267 774 -309 857 q -250 691 -250 741 m -417 -183 q -387 -199 -398 -183 q -374 -233 -376 -215 q -417 -283 -372 -283 l -944 -283 q -1069 -248 -1030 -283 q -1103 -189 -1096 -224 q -1099 -119 -1109 -154 q -1062 -59 -1089 -85 q -998 -31 -1035 -33 q -893 -72 -931 -28 q -876 -125 -880 -91 q -885 -183 -872 -159 l -417 -183 m -1024 -137 q -1004 -169 -1020 -161 q -976 -176 -987 -176 q -931 -137 -931 -170 q -945 -106 -930 -119 q -979 -94 -961 -94 q -1010 -106 -996 -94 q -1024 -137 -1024 -119 z "},"":{"ha":120,"x_min":-770,"x_max":41,"o":"m -383 778 q -187 843 -339 843 q 2 772 -61 843 q 35 698 30 741 q 29 616 41 656 q -15 549 17 576 q -94 528 -46 522 q -196 585 -167 531 q -207 635 -207 609 q -193 685 -207 661 q -356 611 -306 685 l -394 611 q -572 689 -441 689 q -672 648 -672 689 q -606 604 -672 619 q -528 593 -565 593 q -506 581 -513 589 q -504 566 -500 572 q -522 552 -507 559 q -606 557 -539 544 q -700 587 -672 570 q -759 656 -748 613 q -751 739 -770 698 q -686 810 -731 780 q -580 843 -641 841 q -383 778 -443 846 m -144 629 q -144 618 -144 629 q -131 592 -144 607 q -90 578 -119 576 q -49 598 -61 580 q -39 637 -37 617 q -56 673 -41 657 q -97 687 -72 689 q -133 668 -122 685 q -144 629 -144 650 z "},"":{"ha":120,"x_min":-770,"x_max":41,"o":"m -102 833 q -138 826 -126 826 q -176 837 -150 826 q -206 897 -202 865 q -195 957 -209 930 q -152 1003 -181 985 q -77 1020 -122 1020 q -4 987 -31 1020 q 31 934 24 954 q 35 906 39 915 q 24 889 31 896 q -9 898 7 876 q -38 926 -22 913 q -78 932 -54 939 q -112 911 -102 926 q -124 879 -122 896 q -119 847 -126 861 q -102 833 -113 833 m -383 778 q -187 843 -339 843 q 2 772 -61 843 q 35 698 30 741 q 29 616 41 656 q -15 549 17 576 q -94 528 -46 522 q -196 585 -167 531 q -207 635 -207 609 q -193 685 -207 661 q -356 611 -306 685 l -394 611 q -572 689 -441 689 q -672 648 -672 689 q -606 604 -672 619 q -528 593 -565 593 q -506 581 -513 589 q -504 566 -500 572 q -522 552 -507 559 q -606 557 -539 544 q -700 587 -672 570 q -759 656 -748 613 q -751 739 -770 698 q -686 810 -731 780 q -580 843 -641 841 q -383 778 -443 846 m -144 629 q -144 618 -144 629 q -131 592 -144 607 q -90 578 -119 576 q -49 598 -61 580 q -39 637 -37 617 q -56 673 -41 657 q -97 687 -72 689 q -133 668 -122 685 q -144 629 -144 650 z "},"":{"ha":204,"x_min":-744,"x_max":143,"o":"m -17 852 q 98 807 54 852 q 143 699 143 763 q 101 597 143 635 q -2 559 59 559 q -88 608 -63 559 q -91 709 -113 657 l -296 709 q -278 630 -269 674 q -343 561 -289 580 q -452 544 -391 541 q -546 546 -513 546 q -586 553 -580 546 q -593 568 -593 559 q -585 584 -593 576 q -567 593 -578 593 l -441 593 q -369 610 -393 593 q -348 651 -346 628 q -374 692 -350 674 q -441 709 -398 709 l -720 709 q -736 711 -728 709 q -744 728 -744 713 l -744 835 q -737 850 -744 848 q -717 852 -730 852 l -17 852 m 12 716 q 1 715 12 716 q -26 702 -9 715 q -42 661 -43 689 q -23 620 -41 633 q 17 608 -6 607 q 56 625 39 609 q 73 667 74 641 q 53 705 72 693 q 12 716 33 717 z "},"":{"ha":122,"x_min":-585,"x_max":70,"o":"m -569 641 q -528 713 -569 691 q -570 756 -556 724 q -585 817 -585 787 q -530 931 -583 898 q -404 965 -476 965 l -6 965 q 60 939 50 965 q 70 896 70 913 l 70 863 q -6 806 70 806 l -428 806 q -472 776 -472 806 q -428 741 -472 741 l -243 741 q -193 709 -194 741 q -204 686 -193 693 q -251 680 -215 680 q -329 681 -287 680 q -403 679 -370 681 q -455 668 -435 676 q -473 644 -474 659 q -453 622 -472 628 q -411 611 -433 617 q -344 583 -354 600 q -391 556 -333 556 q -548 594 -504 556 q -569 641 -569 611 z "},"":{"ha":454,"x_min":57,"x_max":441,"o":"m 126 728 q 57 881 57 789 q 72 943 57 917 q 256 1044 130 1044 q 441 900 378 1044 l 354 865 q 306 920 330 900 q 249 941 283 941 q 187 919 215 941 q 159 865 159 898 q 228 737 159 800 l 126 728 z "},"":{"ha":6,"x_min":-715,"x_max":-33,"o":"m -78 -183 q -48 -199 -59 -183 q -37 -233 -37 -215 q -78 -283 -33 -283 l -535 -283 q -656 -254 -622 -283 q -693 -120 -715 -198 q -581 -31 -661 -35 q -485 -72 -526 -28 q -467 -125 -470 -91 q -478 -183 -463 -159 l -78 -183 m -615 -137 q -567 -176 -611 -176 q -524 -137 -524 -170 q -536 -106 -520 -119 q -570 -94 -552 -94 q -602 -106 -589 -94 q -615 -137 -615 -119 z "},"":{"ha":944,"x_min":0,"x_max":852,"o":"m 611 1093 q 652 963 669 1039 q 493 869 631 869 l 46 869 q 12 884 24 869 q 0 920 0 900 q 12 956 0 941 q 46 972 24 972 l 435 972 q 424 1028 420 994 q 443 1081 428 1061 q 529 1122 474 1126 q 611 1093 583 1119 m 824 906 q 831 835 852 867 q 772 780 809 804 q 650 696 741 756 q 407 556 430 546 q 348 578 396 561 q 267 615 300 594 q 180 709 180 663 q 203 761 180 737 q 259 780 226 785 q 385 674 319 776 q 415 633 400 650 q 489 705 456 672 q 556 769 522 737 q 706 906 633 843 q 772 934 741 939 q 824 906 804 930 m 837 243 q 781 71 837 143 q 617 0 724 0 q 515 24 563 0 q 441 102 467 48 q 280 0 385 0 q 150 44 194 0 q 98 149 106 89 q 121 272 91 209 q 217 372 152 335 q 158 347 194 363 q 89 326 122 331 q 0 379 0 309 q 74 448 0 448 l 307 448 l 307 393 q 254 350 281 372 q 206 290 226 328 q 206 211 185 252 q 283 170 228 170 q 377 209 339 170 q 417 294 415 248 q 441 323 417 322 q 469 294 465 324 q 524 209 487 248 q 619 170 561 170 q 707 205 676 170 q 744 287 739 239 q 731 387 748 335 q 682 471 715 439 q 614 519 650 504 q 541 544 578 535 q 420 556 487 556 l 409 556 q 391 583 394 559 q 441 602 383 602 q 734 511 631 602 q 837 243 837 420 m 524 978 q 554 985 537 978 q 571 1014 570 993 q 559 1047 572 1035 q 527 1059 546 1059 q 494 1047 507 1059 q 480 1017 480 1035 q 524 978 480 981 z "},"":{"ha":863,"x_min":0,"x_max":770,"o":"m 733 306 l 681 298 q 663 204 704 243 q 575 170 628 170 q 477 194 522 170 q 424 272 431 219 q 397 314 419 307 q 364 271 376 320 q 301 196 352 222 q 205 170 250 170 q 127 186 159 170 q 94 242 94 202 q 134 298 94 281 q 223 327 174 315 q 316 357 272 339 q 369 424 359 376 q 476 340 417 356 q 573 324 535 324 q 642 335 611 324 q 700 365 672 346 q 762 473 763 407 q 701 579 761 539 q 531 619 641 619 q 486 607 504 619 q 474 576 469 596 q 495 556 480 556 q 554 551 511 556 q 619 525 596 546 q 636 480 641 504 q 602 436 631 456 q 522 417 572 417 q 387 489 439 417 q 311 574 352 544 q 193 604 270 604 q 57 562 115 604 q 0 454 0 520 q 33 387 0 387 q 70 426 59 387 q 120 492 78 472 q 205 511 163 511 q 275 496 246 511 q 311 462 304 481 q 301 419 319 443 q 237 379 283 394 q 149 351 191 363 q 74 322 107 339 q 0 189 0 281 q 49 48 0 96 q 187 0 98 0 q 319 28 276 0 q 387 96 361 56 q 417 63 402 80 q 450 31 431 46 q 561 0 489 0 q 679 33 633 0 q 747 115 724 67 q 767 215 770 163 q 733 306 763 267 m 611 896 q 652 767 667 839 q 619 707 644 731 q 493 669 580 669 l 46 669 q 12 684 24 669 q 0 720 0 700 q 12 756 0 741 q 46 772 24 772 l 435 772 q 424 829 420 796 q 443 881 428 861 q 531 925 478 928 q 611 896 583 922 m 524 780 q 554 785 537 778 q 571 815 570 793 q 559 848 572 837 q 527 859 546 859 q 494 848 507 859 q 480 819 480 837 q 524 780 480 780 z "},"":{"ha":2078,"x_min":0,"x_max":1985,"o":"m 569 0 q 385 102 426 0 q 306 29 359 57 q 204 0 252 0 q 61 48 122 0 q 0 180 0 96 q 74 319 0 274 q 149 349 107 337 q 231 372 191 361 q 300 415 281 391 q 309 461 319 439 q 270 499 300 483 q 197 515 241 515 q 108 490 154 515 q 63 415 63 465 q 53 393 63 402 q 30 385 43 383 q 0 452 0 391 q 60 572 0 535 q 196 609 120 609 q 322 563 272 609 q 370 480 361 531 q 351 392 380 428 q 278 339 322 356 q 190 309 233 322 q 115 281 146 296 q 87 241 83 267 q 129 185 89 200 q 194 170 169 170 q 305 206 256 170 q 363 296 354 241 q 390 320 369 322 q 417 298 411 319 q 463 206 428 243 q 552 170 498 170 q 689 241 643 170 q 715 374 726 306 q 637 487 702 450 q 515 507 615 498 q 466 530 487 513 q 450 580 444 546 q 473 605 456 593 q 533 611 491 617 q 665 563 604 604 q 750 466 720 528 q 787 334 780 404 q 778 196 794 265 q 730 85 761 128 q 569 0 663 0 m 1756 613 q 1981 457 1963 613 q 1953 346 1985 385 q 1870 304 1920 307 q 1792 321 1820 300 q 1749 369 1763 343 q 1735 427 1735 396 q 1748 476 1735 457 l 1330 476 q 1289 491 1309 476 q 1269 542 1269 506 q 1284 595 1269 578 q 1348 613 1300 613 l 1756 613 m 1846 367 q 1907 419 1900 367 q 1889 462 1907 448 q 1849 478 1870 476 q 1809 465 1828 480 q 1791 421 1791 450 q 1807 380 1791 393 q 1846 367 1824 367 m 1331 476 q 1276 568 1276 524 q 1344 611 1276 611 q 1469 583 1413 611 q 1567 511 1526 556 q 1648 276 1648 417 q 1593 89 1648 167 q 1420 0 1528 0 q 1284 42 1341 0 q 1202 152 1228 83 q 1119 42 1181 83 q 998 0 1057 0 q 895 19 939 0 q 819 71 852 39 q 766 141 787 104 q 744 228 744 178 l 756 276 q 787 330 769 302 q 789 307 789 319 l 793 281 q 816 226 796 250 q 859 191 835 202 q 951 170 904 170 q 1032 184 998 170 q 1093 219 1067 198 q 1154 337 1154 270 q 1127 414 1154 380 q 1063 470 1100 448 q 906 504 987 513 q 854 550 872 494 q 850 578 850 561 q 910 611 850 611 q 1031 585 970 611 q 1131 517 1093 559 q 1184 435 1170 474 q 1206 359 1198 396 q 1221 289 1215 322 q 1244 230 1228 256 q 1394 170 1285 170 q 1524 219 1467 170 q 1581 337 1581 267 q 1556 414 1581 380 q 1496 461 1531 448 q 1426 475 1461 474 q 1331 476 1391 476 z "},"":{"ha":1396,"x_min":0,"x_max":1309,"o":"m 1302 115 q 1290 35 1307 72 q 1248 -20 1272 -2 q 1182 -39 1224 -39 q 1112 -22 1141 -39 q 1069 21 1083 -6 q 1059 79 1056 48 q 1087 133 1063 109 l 811 133 q 783 169 783 133 l 783 217 q 811 252 783 246 l 1139 252 q 1252 219 1207 252 q 1302 115 1296 185 m 1231 78 q 1211 119 1231 106 q 1169 131 1191 133 q 1128 114 1146 130 q 1112 69 1109 98 q 1133 27 1115 39 q 1174 17 1152 15 q 1214 34 1196 19 q 1231 78 1231 50 m 28 380 q 0 441 0 380 q 57 565 0 511 q 178 621 113 617 q 293 595 243 626 q 363 517 343 565 q 444 603 391 580 q 546 620 498 626 q 686 547 641 613 q 731 396 731 481 q 690 256 731 311 q 594 156 648 200 q 485 68 539 113 q 415 -28 431 22 q 408 -120 398 -78 q 454 -194 419 -163 q 529 -237 489 -224 q 646 -248 569 -250 q 815 -225 761 -250 q 897 -144 869 -200 q 927 -19 926 -89 q 902 98 928 50 q 831 133 881 137 q 794 155 806 128 q 786 199 781 181 q 814 219 791 217 q 856 215 837 220 q 930 167 898 204 q 992 22 978 107 q 990 -133 1006 -63 q 940 -257 974 -204 q 869 -340 906 -311 q 770 -389 831 -369 q 616 -406 709 -409 q 461 -381 522 -404 q 359 -324 400 -359 q 261 -126 257 -239 q 299 4 265 -57 q 383 107 333 65 q 583 257 459 170 q 646 396 667 317 q 606 461 637 435 q 524 487 576 487 q 406 444 454 487 q 381 399 385 428 q 356 371 376 370 q 335 404 335 372 q 309 456 335 435 q 248 483 283 476 q 111 474 174 498 q 54 409 44 448 q 47 390 56 400 q 28 380 39 380 z "},"":{"ha":7,"x_min":-706,"x_max":-193,"o":"m -202 -415 q -280 -517 -217 -481 q -407 -546 -343 -552 q -537 -507 -480 -546 q -587 -407 -594 -467 q -531 -313 -583 -361 q -417 -222 -480 -265 q -380 -144 -370 -191 q -400 -112 -383 -126 q -433 -98 -417 -98 q -513 -144 -506 -98 q -526 -157 -515 -157 q -537 -142 -537 -157 q -550 -116 -537 -126 q -581 -102 -563 -106 q -648 -106 -613 -96 q -676 -137 -680 -119 q -691 -155 -676 -150 q -706 -122 -706 -159 q -677 -59 -706 -85 q -616 -31 -648 -33 q -559 -45 -583 -30 q -522 -85 -535 -61 q -431 -31 -504 -26 q -361 -69 -383 -37 q -339 -144 -339 -102 q -359 -215 -339 -187 q -406 -265 -380 -243 q -458 -308 -433 -287 q -494 -361 -483 -330 q -475 -434 -507 -411 q -394 -460 -443 -457 q -309 -445 -344 -463 q -257 -403 -274 -428 q -241 -349 -241 -378 q -252 -302 -241 -320 q -291 -263 -270 -270 q -296 -244 -304 -257 q -241 -259 -283 -220 q -204 -332 -215 -289 q -202 -415 -193 -376 z "},"":{"ha":139,"x_min":-735,"x_max":83,"o":"m 83 -330 q 74 -383 83 -367 q 7 -422 52 -422 q -54 -386 -37 -422 q -41 -320 -70 -350 l -191 -320 q -143 -506 -111 -400 q -237 -630 -169 -593 q -383 -663 -306 -667 q -533 -617 -472 -663 q -594 -496 -598 -569 q -531 -386 -591 -443 q -394 -280 -470 -330 q -356 -234 -367 -259 q -351 -188 -346 -209 q -375 -151 -356 -167 q -411 -135 -394 -135 q -442 -136 -428 -135 q -470 -144 -456 -137 q -507 -187 -504 -159 q -524 -204 -513 -202 q -535 -186 -535 -206 q -551 -155 -535 -167 q -589 -137 -567 -143 q -667 -144 -633 -128 q -700 -181 -707 -157 q -706 -192 -700 -185 q -717 -199 -711 -198 q -729 -193 -722 -200 q -735 -163 -735 -185 q -700 -89 -735 -119 q -561 -70 -630 -30 q -520 -119 -531 -89 q -472 -67 -504 -80 q -411 -56 -441 -54 q -330 -100 -356 -61 q -304 -189 -304 -139 q -328 -271 -304 -239 q -383 -330 -352 -304 q -444 -381 -415 -356 q -483 -443 -474 -407 q -462 -531 -500 -504 q -359 -561 -424 -559 q -251 -533 -294 -563 q -194 -464 -207 -504 q -196 -383 -181 -424 q -257 -320 -211 -343 l -278 -320 q -296 -298 -296 -320 l -296 -256 q -278 -235 -296 -235 l -9 -235 q 55 -262 30 -235 q 83 -330 80 -289 m 8 -389 q 15 -388 8 -389 q 31 -378 22 -387 q 41 -353 41 -369 q 30 -329 41 -337 q 6 -320 19 -320 q -19 -330 -7 -320 q -26 -359 -30 -339 q -16 -383 -26 -376 q 8 -389 -6 -391 z "},"":{"ha":733,"x_min":-6,"x_max":641,"o":"m 641 296 q 614 173 641 228 q 541 80 587 119 q 306 0 448 0 q 79 75 163 0 q -6 294 -6 150 q 89 511 -6 417 q 311 600 178 600 q 537 515 433 600 q 641 296 641 426 m 519 270 q 539 352 539 304 q 519 436 539 400 q 467 496 500 472 q 313 546 400 546 q 159 494 222 546 q 81 354 81 433 q 148 219 81 267 q 300 178 209 178 q 519 270 461 178 z "},"":{"ha":820,"x_min":-9,"x_max":728,"o":"m 728 224 q 696 57 728 131 q 669 17 685 31 q 605 -2 644 -2 q 532 14 565 -2 q 487 60 500 30 q 506 139 474 91 q 578 343 578 243 q 465 552 578 496 q 363 570 424 570 q 197 503 243 570 q 152 339 152 435 q 241 131 152 243 q 246 44 276 87 q 150 0 217 0 q 22 87 54 0 q 4 293 -9 176 q 74 481 15 404 q 369 619 185 619 q 635 506 528 619 q 728 224 728 407 z "},"":{"ha":1254,"x_min":28,"x_max":1161,"o":"m 778 0 l 91 0 q 52 15 72 0 q 31 63 31 30 q 38 138 28 106 q 93 174 48 170 l 763 169 q 906 177 848 169 q 998 211 963 185 q 1065 335 1065 257 q 983 533 1069 452 q 785 624 904 613 q 631 563 694 631 q 744 548 693 583 q 804 441 804 509 q 779 370 804 396 q 714 333 754 344 q 629 335 674 322 q 557 392 583 348 q 547 507 531 435 q 617 628 563 580 q 794 696 685 696 q 893 678 833 696 q 1128 474 1076 626 q 1149 282 1161 380 q 1085 124 1137 185 q 778 0 983 0 m 674 404 q 735 437 733 407 q 709 490 737 467 q 645 514 681 513 q 596 465 609 515 q 615 423 593 444 q 674 404 637 402 z "},"":{"ha":672,"x_min":0,"x_max":580,"o":"m 546 80 q 274 0 469 0 q 135 17 194 0 q 0 154 0 56 q 28 214 0 193 q 96 235 56 235 q 164 214 137 235 q 191 156 191 193 q 163 83 191 119 q 265 35 176 39 q 380 82 331 33 q 420 193 428 131 q 267 296 409 267 q 252 311 252 298 q 267 328 252 320 l 294 337 q 387 452 387 376 q 265 563 387 563 q 211 557 235 561 q 163 535 187 554 q 204 498 193 524 q 208 444 215 472 q 181 393 202 415 q 120 370 159 370 q 54 395 81 370 q 26 459 26 420 q 97 569 26 530 q 281 609 169 609 q 452 569 393 609 q 525 479 511 530 q 511 382 539 428 q 420 322 483 337 q 552 248 506 307 q 580 162 580 209 q 546 80 580 115 z "},"":{"ha":606,"x_min":-2,"x_max":513,"o":"m 513 520 q 448 363 513 417 q 253 300 370 300 q 54 376 135 300 q 6 481 15 417 q 19 594 -2 544 q 107 643 39 643 q 178 619 156 643 q 169 569 200 594 q 111 455 111 507 q 144 365 111 402 q 259 330 176 328 q 378 366 344 328 q 411 455 411 404 q 356 563 411 506 q 343 607 331 589 q 377 635 354 626 q 430 644 400 644 q 478 630 459 643 q 505 578 496 617 q 513 520 513 539 m 467 161 q 467 124 467 161 q 405 44 467 87 q 255 0 343 0 q 112 42 167 0 q 57 158 57 83 q 118 281 57 233 q 257 330 178 330 q 398 285 335 330 q 467 161 467 235 m 252 98 q 354 119 306 98 q 402 193 402 139 q 357 273 402 246 q 261 300 313 300 q 161 271 209 300 q 113 193 113 243 q 156 120 113 143 q 252 98 198 98 z "},"":{"ha":978,"x_min":0,"x_max":898,"o":"m 772 441 q 746 484 770 472 q 695 494 722 496 q 648 473 669 491 q 633 428 628 456 q 663 374 635 393 q 717 361 691 356 q 772 441 780 372 m 607 0 q 546 22 552 -6 q 583 59 541 50 q 685 92 626 72 q 769 136 744 111 q 798 182 794 161 q 794 226 802 204 q 741 296 781 265 q 422 98 674 209 q 228 26 320 54 q 89 0 135 -2 q 115 21 91 9 q 178 52 139 33 q 372 150 315 115 q 563 231 481 178 q 672 319 644 283 q 546 389 607 319 q 506 513 500 441 q 562 618 515 587 q 670 648 609 648 q 779 612 731 648 q 845 526 826 576 q 856 424 865 476 q 806 343 848 372 q 876 231 857 298 q 852 102 898 154 q 719 26 809 50 q 607 0 657 7 m 56 102 q 207 174 156 106 q 259 344 259 243 q 215 502 259 444 q 78 559 170 559 q 20 566 41 559 q 2 607 0 572 q 74 659 2 650 q 320 569 215 674 q 419 324 419 474 q 363 133 419 209 q 65 0 265 0 q 0 43 0 15 q 20 83 0 65 q 56 102 41 102 z "},"":{"ha":752,"x_min":2,"x_max":659,"o":"m 154 472 q 204 407 154 407 q 287 409 250 404 q 380 413 324 415 q 449 403 435 411 q 463 370 463 394 q 448 337 463 346 q 394 328 433 328 l 211 328 q 167 304 180 328 q 154 251 154 280 q 169 196 154 222 q 211 170 185 170 l 554 170 q 652 135 631 170 q 658 104 659 120 q 657 79 657 87 q 656 58 657 70 q 644 33 656 46 q 554 2 619 2 l 246 2 q 22 111 78 2 q 2 188 2 150 q 6 253 2 226 q 22 302 11 280 q 46 343 33 324 q 80 369 59 361 q 46 427 54 385 q 53 511 39 469 q 106 583 67 554 q 209 611 144 613 l 359 611 q 410 609 393 611 q 428 580 428 607 q 412 545 428 552 q 359 539 396 539 l 204 539 q 169 513 183 535 q 154 472 154 491 z "},"":{"ha":648,"x_min":0,"x_max":556,"o":"m 26 96 q 0 186 0 131 q 30 272 0 241 q 105 319 59 304 q 199 341 150 335 q 304 356 248 346 q 416 394 359 367 q 472 452 472 420 q 424 506 472 483 q 309 530 376 528 q 177 514 243 531 q 74 452 111 496 q 30 433 59 430 q 10 445 19 435 q 7 474 2 456 q 119 589 31 552 q 274 624 187 624 q 428 598 369 624 q 516 543 487 572 q 544 467 544 513 q 513 381 544 420 q 433 324 481 343 q 347 309 404 315 q 234 294 291 304 q 136 270 178 283 q 94 235 94 257 q 292 174 94 174 q 496 259 489 174 l 544 259 q 481 57 556 115 q 267 0 407 0 q 26 96 104 0 z "},"":{"ha":820,"x_min":-15,"x_max":728,"o":"m 728 393 q 635 113 728 209 q 369 0 530 0 q 74 135 185 0 q 4 433 -13 246 q 74 596 13 561 q 150 619 107 619 q 246 574 217 619 q 241 483 276 530 q 152 276 152 372 q 197 113 152 180 q 363 46 243 46 q 530 115 476 46 q 578 272 578 174 q 506 476 578 370 q 487 555 474 522 q 532 604 500 587 q 605 619 565 620 q 669 600 644 619 q 715 502 696 576 q 728 393 728 450 z "},"":{"ha":752,"x_min":2,"x_max":659,"o":"m 554 611 q 644 581 620 611 q 657 548 657 569 q 658 512 657 528 q 652 481 659 496 q 554 444 630 444 l 211 444 q 169 419 185 444 q 154 366 154 394 q 167 312 154 337 q 211 287 180 287 l 394 287 q 448 277 433 287 q 463 243 463 267 q 449 210 463 219 q 380 202 435 202 q 287 206 324 202 q 212 208 250 209 q 164 185 174 207 q 154 143 154 163 q 169 101 154 122 q 204 74 183 80 l 359 74 q 412 69 396 74 q 428 37 428 65 q 410 6 428 9 q 359 2 393 2 l 209 2 q 106 32 144 0 q 53 106 67 65 q 46 187 39 146 q 80 246 54 228 q 22 311 43 259 q 2 414 2 363 q 21 503 2 465 q 74 565 41 541 q 246 611 139 611 l 554 611 z "},"":{"ha":911,"x_min":-6,"x_max":819,"o":"m 641 296 q 614 173 641 228 q 541 80 587 119 q 306 0 448 0 q 79 75 163 0 q -6 294 -6 150 q 89 511 -6 417 q 311 600 178 600 q 537 515 433 600 q 641 296 641 426 m 519 270 q 539 352 539 304 q 519 436 539 400 q 467 496 500 472 q 313 546 400 546 q 159 494 222 546 q 81 354 81 433 q 148 219 81 267 q 300 178 209 178 q 519 270 461 178 m 778 81 q 782 -51 819 9 q 680 -140 746 -111 q 567 -189 613 -169 q 431 -254 474 -233 q 394 -251 409 -259 q 374 -230 378 -243 q 391 -174 361 -193 q 494 -126 409 -163 q 648 -63 580 -89 q 696 -11 689 -46 q 688 56 704 24 q 640 104 672 87 q 570 102 607 120 q 498 46 530 61 q 459 30 467 31 l 433 111 l 570 167 q 694 162 641 193 q 778 81 748 131 z "},"":{"ha":267,"x_min":65,"x_max":174,"o":"m 65 865 l 174 874 l 174 9 l 65 0 l 65 865 z "},"":{"ha":672,"x_min":-11,"x_max":580,"o":"m 448 -85 l 320 -85 q 328 -33 320 -72 q 341 43 330 -9 q 363 176 352 94 q 329 153 352 169 q 278 122 306 137 q 154 89 213 89 q 64 108 94 89 q 19 159 33 128 q 6 322 -9 224 l 56 602 l 156 602 l 106 322 q 121 201 89 231 q 217 170 154 170 q 341 219 270 170 q 369 241 359 231 l 450 602 l 580 602 l 448 -85 z "},"":{"ha":1022,"x_min":-13,"x_max":930,"o":"m 363 169 q 137 80 256 80 q 17 148 54 80 q 6 319 -13 202 l 56 602 l 156 602 l 104 319 q 120 193 87 224 q 204 161 154 161 q 354 222 276 161 q 356 319 346 259 l 409 602 l 511 602 l 456 319 q 474 193 441 226 q 563 161 504 161 q 683 211 613 161 q 709 233 700 224 l 794 602 l 930 602 l 794 -96 l 661 -96 q 667 -54 661 -85 q 706 169 683 24 q 646 126 691 154 q 491 80 570 80 q 363 169 396 80 z "},"":{"ha":1026,"x_min":17,"x_max":933,"o":"m 57 515 q 493 517 57 515 q 733 517 493 517 q 933 515 850 517 l 896 378 l 17 378 l 57 515 z "},"":{"ha":1146,"x_min":-7,"x_max":1054,"o":"m -2 150 q -2 181 -2 150 q 41 247 -2 211 q 167 283 83 283 q 520 313 404 283 q 608 367 591 328 q 596 444 626 406 q 497 511 567 483 q 340 539 428 539 q 198 519 252 539 q 111 467 144 498 q 44 447 78 435 q 2 483 11 459 q 18 523 -7 504 q 93 561 43 543 q 328 598 196 598 q 548 557 459 598 q 668 455 637 517 q 668 339 698 393 q 540 260 637 285 q 354 232 443 235 q 154 230 265 230 q 96 215 115 230 q 74 183 78 200 q 80 151 70 167 q 146 133 89 135 l 1054 133 l 1054 0 l 111 0 q 7 59 30 0 q -2 150 -2 89 z "},"":{"ha":1150,"x_min":-9,"x_max":1057,"o":"m 431 481 q 458 475 431 481 q 521 446 485 470 q 557 374 557 422 q 522 304 557 326 q 434 275 487 281 q 319 269 381 269 q 203 265 256 270 q 115 240 150 259 q 80 189 80 220 q 121 147 85 154 q 215 141 157 141 l 1057 137 l 1057 0 l 165 0 q 41 63 94 0 q -2 177 -2 115 q 33 269 -2 239 q 121 314 69 300 q 236 329 174 328 q 352 331 298 330 q 440 342 406 333 q 474 378 474 350 q 440 415 474 406 q 352 426 406 424 q 236 426 298 428 q 121 431 174 424 q 33 462 69 439 q -2 534 -2 485 q 33 605 -2 583 q 121 631 69 626 q 236 635 174 637 q 352 635 298 633 q 440 653 406 637 q 474 711 474 669 q 418 768 474 754 q 276 781 361 781 q 143 764 191 781 q 61 741 94 746 q 8 749 26 731 q 26 802 -9 767 q 131 836 74 822 q 298 850 187 850 q 480 806 409 850 q 550 707 550 763 q 515 626 550 652 q 427 589 480 600 q 311 578 374 578 q 195 577 248 578 q 108 567 143 576 q 74 530 74 557 q 110 502 74 507 q 199 494 146 496 q 315 492 252 493 q 431 481 378 491 z "},"":{"ha":1120,"x_min":-30,"x_max":1028,"o":"m 658 -70 q 613 -79 658 -70 q 469 -76 569 -87 q 288 -21 369 -65 q 145 82 207 22 q 48 220 83 143 q 54 585 -28 394 q 119 691 78 637 q 211 778 159 744 q 448 804 335 857 q 541 701 522 770 q 533 568 559 631 q 446 469 507 504 q 304 469 385 433 q 209 574 228 504 q 226 713 191 643 q 124 567 159 657 q 102 404 89 476 q 153 271 115 331 q 240 166 191 211 q 345 87 289 120 q 481 31 402 54 q 633 9 559 7 q 889 115 783 13 q 931 206 924 154 q 934 281 939 257 q 942 320 930 306 q 970 339 954 335 q 1004 335 987 343 q 1024 290 1020 328 q 1012 201 1028 252 q 937 74 996 150 q 822 -15 896 24 q 658 -70 748 -54 m 463 585 q 478 679 493 637 q 426 737 463 720 q 356 752 393 756 q 286 711 320 748 q 261 622 252 674 q 308 549 270 570 q 390 532 346 528 q 463 585 433 537 z "},"":{"ha":178,"x_min":0,"x_max":80,"o":"m 0 -480 l 0 1061 l 80 1061 l 80 -480 l 0 -480 z "},"":{"ha":344,"x_min":0,"x_max":298,"o":"m 0 -480 l 0 1061 l 298 1061 l 298 989 l 80 989 l 80 -480 l 0 -480 z "},"":{"ha":554,"x_min":70,"x_max":615,"o":"m 70 248 q 89 328 76 328 l 607 328 q 615 314 615 328 q 611 274 615 300 q 594 237 604 237 l 78 237 q 73 238 76 235 q 70 248 70 241 z "},"":{"ha":937,"x_min":70,"x_max":1085,"o":"m 70 248 q 89 328 76 328 l 1078 328 q 1085 314 1085 328 q 1081 275 1085 300 q 1074 244 1076 250 l 1070 239 q 1067 237 1069 237 l 78 237 q 73 238 76 235 q 70 248 70 241 z "},"":{"ha":294,"x_min":48,"x_max":209,"o":"m 67 593 q 48 670 48 620 q 68 755 48 720 q 111 812 87 789 q 157 848 135 835 q 183 861 180 861 q 209 839 200 861 q 144 783 154 807 q 135 741 135 759 q 153 694 135 715 q 179 663 170 672 q 187 636 187 654 q 165 599 187 619 q 124 580 143 580 q 67 593 83 580 z "},"":{"ha":281,"x_min":44,"x_max":204,"o":"m 185 850 q 204 772 204 822 q 184 688 204 722 q 141 630 165 654 q 95 593 117 606 q 70 580 74 580 q 44 602 50 580 q 107 659 98 635 q 117 700 117 683 q 74 780 117 733 q 67 806 67 789 q 89 844 67 824 q 130 863 111 863 q 185 850 163 863 z "},"":{"ha":494,"x_min":48,"x_max":391,"o":"m 248 593 q 230 670 230 620 q 249 755 230 720 q 293 812 269 789 q 339 848 317 835 q 365 861 361 861 q 391 839 381 861 q 326 783 335 807 q 317 741 317 759 q 359 663 317 706 q 369 636 369 654 q 346 599 369 619 q 293 580 324 580 q 248 593 265 580 m 67 591 q 48 669 48 619 q 68 753 48 719 q 111 811 87 787 q 157 848 135 835 q 183 861 180 861 q 209 839 200 861 q 144 781 154 806 q 135 741 135 757 q 153 692 135 713 q 179 661 170 670 q 187 634 187 652 q 165 597 187 617 q 124 578 143 578 q 67 591 89 578 z "},"":{"ha":487,"x_min":44,"x_max":396,"o":"m 185 850 q 204 772 204 822 q 184 688 204 722 q 141 630 165 654 q 95 593 117 606 q 70 580 74 580 q 44 602 50 580 q 107 659 98 635 q 117 700 117 683 q 74 780 117 733 q 67 806 67 789 q 89 844 67 824 q 130 863 111 863 q 185 850 163 863 m 381 815 q 370 699 394 743 q 322 631 346 656 q 276 594 298 607 q 250 581 254 581 q 224 604 233 581 q 289 661 280 637 q 298 702 298 685 q 256 780 298 737 q 246 806 246 789 q 269 844 246 824 q 322 865 291 865 q 367 850 348 865 q 381 815 376 839 z "},"":{"ha":924,"x_min":52,"x_max":915,"o":"m 915 78 q 888 14 915 41 q 823 -13 861 -13 q 758 14 785 -13 q 731 80 731 41 q 758 144 731 119 q 823 170 785 170 q 888 143 861 170 q 915 78 915 115 m 574 78 q 547 14 574 41 q 483 -13 520 -13 q 419 14 446 -13 q 391 80 391 41 q 419 144 391 119 q 483 170 446 170 q 547 143 520 170 q 574 78 574 115 m 235 78 q 208 14 235 41 q 144 -13 181 -13 q 79 14 106 -13 q 52 80 52 41 q 79 144 52 119 q 144 170 106 170 q 208 143 181 170 q 235 78 235 115 z "},"":{"ha":794,"x_min":2,"x_max":759,"o":"m 2 772 l 2 880 l 683 880 l 683 772 l 469 772 q 535 712 500 761 q 572 604 570 663 l 681 604 l 681 541 l 570 541 q 478 348 567 404 q 259 298 396 294 q 356 245 293 287 q 492 159 420 204 q 633 70 563 115 q 759 -6 704 26 l 759 -46 l 546 -46 q 488 -4 531 -37 q 391 70 444 30 q 278 156 337 111 q 169 236 219 200 q 89 296 120 272 q 59 320 89 296 l 59 378 q 400 444 313 367 q 456 541 446 483 l 59 541 l 59 604 l 456 604 q 412 722 456 676 q 319 770 369 769 l 246 772 l 2 772 z "},"":{"ha":785,"x_min":48,"x_max":941,"o":"m 941 243 l 941 120 q 628 -9 811 -9 q 316 123 444 -9 q 187 442 187 256 q 319 763 187 628 q 628 896 443 896 q 896 804 785 896 l 896 650 l 891 650 l 857 700 q 631 824 772 824 q 400 700 489 824 q 319 442 319 589 q 400 183 319 294 q 628 63 493 63 q 933 243 806 63 l 941 243 m 246 817 q 260 834 246 817 q 274 895 274 852 q 246 974 274 939 q 181 1009 219 1009 q 115 974 143 1009 q 87 895 87 939 q 115 817 87 852 q 181 781 143 781 q 246 817 219 781 m 274 989 q 313 894 313 950 q 274 799 313 837 q 181 761 235 761 q 87 799 126 761 q 48 894 48 837 q 87 989 48 950 q 181 1028 126 1028 q 274 989 235 1028 z "},"":{"ha":635,"x_min":48,"x_max":761,"o":"m 246 817 q 260 834 246 817 q 274 895 274 852 q 246 974 274 939 q 181 1009 219 1009 q 115 974 143 1009 q 87 895 87 939 q 115 817 87 852 q 181 781 143 781 q 246 817 219 781 m 274 989 q 313 894 313 950 q 274 799 313 837 q 181 761 235 761 q 87 799 126 761 q 48 894 48 837 q 87 989 48 950 q 181 1028 126 1028 q 274 989 235 1028 m 761 391 q 585 407 681 407 l 493 407 l 493 176 q 511 0 493 78 l 359 0 q 372 176 372 87 l 372 709 q 359 883 372 800 l 761 883 l 761 794 q 585 811 661 811 l 498 811 q 493 709 493 733 l 493 480 l 585 480 q 761 498 650 480 l 761 391 z "},"":{"ha":589,"x_min":59,"x_max":533,"o":"m 250 220 q 259 272 256 237 l 272 404 l 272 452 l 313 452 q 330 406 317 433 l 391 272 l 454 406 q 461 426 457 415 q 470 452 465 437 l 513 452 q 511 437 511 444 l 511 404 l 522 272 l 533 220 l 480 220 q 483 237 483 228 l 483 254 q 481 272 483 269 l 472 378 l 422 269 q 407 220 411 243 l 367 220 q 350 269 363 246 l 302 378 l 293 272 l 293 235 q 294 220 293 228 l 250 220 m 117 220 q 124 272 124 246 l 124 422 l 109 422 q 59 417 83 422 l 59 452 l 231 452 l 231 417 q 180 422 207 422 l 167 422 l 167 272 q 170 220 167 239 l 117 220 z "},"":{"ha":948,"x_min":43,"x_max":878,"o":"m 317 -13 q 272 -41 307 -31 q 250 -31 250 -44 l 672 811 q 710 835 685 830 q 739 828 735 841 l 317 -13 m 256 759 q 241 656 241 722 l 241 422 q 252 357 241 369 q 311 339 269 339 q 312 324 313 339 q 311 307 311 309 l 189 313 q 63 307 130 313 q 59 325 59 311 q 63 339 59 339 q 94 344 72 339 q 120 356 115 348 q 131 389 126 363 q 135 424 135 415 l 135 624 q 111 681 135 681 q 84 674 102 681 q 56 663 67 667 q 47 671 52 663 q 43 687 43 680 q 44 696 43 694 q 143 739 85 713 q 236 783 233 783 q 246 773 239 783 q 256 759 254 763 m 744 358 q 744 372 744 358 q 725 406 744 385 q 669 426 706 426 q 593 385 633 426 q 576 406 574 394 q 639 457 596 433 q 711 481 681 481 q 761 476 741 481 q 800 459 781 470 q 843 380 843 431 q 807 304 843 331 q 754 280 787 287 q 815 259 783 280 q 862 216 846 239 q 878 155 878 193 q 857 86 878 117 q 806 37 837 56 q 663 -4 741 -4 q 561 22 593 -4 q 550 54 550 37 q 559 84 550 70 q 585 98 569 98 q 639 59 613 98 q 693 30 657 30 q 767 130 767 30 q 742 206 767 172 q 680 239 717 239 l 663 239 q 641 235 650 239 q 633 254 633 250 l 635 269 q 733 315 702 278 q 744 358 744 331 z "},"":{"ha":780,"x_min":31,"x_max":906,"o":"m 293 517 q 335 485 335 502 q 315 457 335 478 l 202 346 l 896 346 q 902 343 898 346 q 906 335 906 339 q 896 265 906 335 q 887 257 891 254 l 200 257 l 244 215 q 315 146 294 167 q 335 117 335 126 q 317 98 335 107 q 293 89 298 89 q 233 139 291 91 q 41 276 176 187 q 31 296 31 278 q 41 326 31 315 q 189 427 120 372 q 274 498 257 481 l 293 517 z "},"":{"ha":452,"x_min":28,"x_max":456,"o":"m 285 7 q 265 0 285 0 q 222 6 244 0 q 194 17 200 11 l 194 706 l 154 659 l 85 591 q 55 570 65 570 q 36 589 44 570 q 28 613 28 607 q 78 672 30 615 q 215 865 126 730 q 230 872 217 872 q 265 863 254 872 q 366 715 311 783 q 437 630 420 646 l 456 611 q 444 588 454 606 q 424 570 433 570 q 395 591 415 570 q 328 659 376 611 l 285 704 l 285 7 z "},"":{"ha":813,"x_min":35,"x_max":909,"o":"m 35 335 q 44 346 35 346 l 739 346 l 696 389 q 626 457 646 437 q 606 487 606 478 q 648 517 606 502 l 667 498 q 767 416 694 470 q 900 326 839 361 q 909 296 909 315 q 900 276 909 278 q 707 139 765 187 q 648 89 650 91 q 624 98 643 89 q 606 117 606 107 q 627 146 606 126 q 696 215 648 167 l 741 257 l 54 257 q 44 265 50 254 l 35 335 z "},"":{"ha":474,"x_min":28,"x_max":456,"o":"m 28 261 q 59 304 43 304 q 88 282 69 304 q 156 213 107 261 l 198 169 l 198 865 q 212 872 198 872 q 250 869 226 872 q 285 859 285 863 l 289 856 l 289 167 l 330 213 q 398 282 378 261 q 426 304 419 304 q 446 284 437 304 q 456 259 456 265 q 405 200 454 257 q 269 7 356 143 q 246 0 263 0 q 219 9 230 0 q 113 164 163 102 q 46 243 63 226 l 28 261 z "},"":{"ha":961,"x_min":98,"x_max":1154,"o":"m 853 -94 q 838 -94 853 -94 q 805 -71 824 -94 q 785 -21 785 -48 q 805 26 785 6 q 853 46 824 46 q 903 26 881 46 q 924 -21 924 6 q 903 -71 924 -48 q 853 -94 881 -94 m 396 696 q 347 717 367 696 q 328 766 328 737 q 347 815 328 794 q 396 835 367 835 q 446 815 426 835 q 467 766 467 794 q 446 717 467 737 q 396 696 426 696 m 1021 72 q 1007 72 1021 72 q 970 93 993 72 q 948 142 948 113 q 970 191 948 170 q 1021 211 993 211 q 1070 191 1050 211 q 1091 142 1091 170 q 1070 93 1091 113 q 1021 72 1050 72 m 231 530 q 216 530 231 530 q 181 551 202 530 q 159 600 159 572 q 181 647 159 628 q 231 667 202 667 q 280 647 259 667 q 300 600 300 628 q 280 551 300 572 q 231 530 259 530 m 396 -94 q 347 -71 367 -94 q 328 -21 328 -48 q 347 26 328 6 q 396 46 367 46 q 446 26 426 46 q 467 -21 467 6 q 446 -71 467 -48 q 396 -94 426 -94 m 853 696 q 838 696 853 696 q 805 717 824 696 q 785 766 785 737 q 805 815 785 794 q 853 835 824 835 q 903 815 881 835 q 924 766 924 794 q 903 717 924 737 q 853 696 881 696 m 1021 530 q 1007 530 1021 530 q 970 551 993 530 q 948 600 948 572 q 970 647 948 628 q 1021 667 993 667 q 1070 647 1050 667 q 1091 600 1091 628 q 1070 551 1091 572 q 1021 530 1050 530 m 231 72 q 216 72 231 72 q 181 93 202 72 q 159 142 159 113 q 181 191 159 170 q 231 211 202 211 q 280 191 259 211 q 300 142 300 170 q 280 93 300 113 q 231 72 259 72 m 1083 300 q 1033 321 1054 300 q 1013 371 1013 343 q 1033 420 1013 400 q 1083 441 1054 441 q 1133 420 1113 441 q 1154 371 1154 400 q 1133 321 1154 343 q 1083 300 1113 300 m 167 300 q 153 300 167 300 q 119 321 139 300 q 98 371 98 343 q 119 420 98 400 q 167 441 139 441 q 217 420 194 441 q 239 371 239 400 q 217 321 239 343 q 167 300 194 300 m 623 -154 q 609 -154 623 -154 q 574 -133 594 -154 q 554 -84 554 -113 q 574 -34 554 -56 q 623 -13 594 -13 q 674 -34 652 -13 q 696 -84 696 -56 q 674 -133 696 -113 q 623 -154 652 -154 m 554 830 q 574 880 554 859 q 623 900 594 900 q 674 880 652 900 q 696 830 696 859 q 674 779 696 800 q 623 757 652 757 q 574 779 594 757 q 554 830 554 800 z "}}}
